%TF.GenerationSoftware,KiCad,Pcbnew,5.1.9-1.fc32*%
%TF.CreationDate,2021-02-08T21:25:55-08:00*%
%TF.ProjectId,tinypico-io,74696e79-7069-4636-9f2d-696f2e6b6963,1.0.0*%
%TF.SameCoordinates,Original*%
%TF.FileFunction,Copper,L1,Top*%
%TF.FilePolarity,Positive*%
%FSLAX46Y46*%
G04 Gerber Fmt 4.6, Leading zero omitted, Abs format (unit mm)*
G04 Created by KiCad (PCBNEW 5.1.9-1.fc32) date 2021-02-08 21:25:55*
%MOMM*%
%LPD*%
G01*
G04 APERTURE LIST*
%TA.AperFunction,SMDPad,CuDef*%
%ADD10R,3.429990X1.270000*%
%TD*%
%TA.AperFunction,SMDPad,CuDef*%
%ADD11R,3.429991X1.270000*%
%TD*%
%TA.AperFunction,SMDPad,CuDef*%
%ADD12R,2.413991X1.270000*%
%TD*%
%TA.AperFunction,SMDPad,CuDef*%
%ADD13R,0.600000X1.550000*%
%TD*%
%TA.AperFunction,SMDPad,CuDef*%
%ADD14R,1.200000X1.800000*%
%TD*%
%TA.AperFunction,SMDPad,CuDef*%
%ADD15R,1.500000X3.400000*%
%TD*%
%TA.AperFunction,SMDPad,CuDef*%
%ADD16R,1.000000X3.500000*%
%TD*%
%TA.AperFunction,Conductor*%
%ADD17C,1.400000*%
%TD*%
%TA.AperFunction,Conductor*%
%ADD18C,0.600000*%
%TD*%
G04 APERTURE END LIST*
D10*
%TO.P,J4,4*%
%TO.N,+3V3*%
X143839990Y-96350000D03*
%TO.P,J4,3*%
%TO.N,+5V*%
X140920010Y-98890000D03*
%TO.P,J4,2*%
%TO.N,GND*%
X143839990Y-101430000D03*
D11*
%TO.P,J4,1*%
%TO.N,Net-(J4-Pad1)*%
X140920010Y-103970000D03*
%TD*%
D10*
%TO.P,J5,10*%
%TO.N,GND*%
X159079990Y-81110000D03*
%TO.P,J5,9*%
%TO.N,Net-(J5-Pad9)*%
X156160010Y-83650000D03*
D11*
%TO.P,J5,8*%
%TO.N,Net-(J5-Pad8)*%
X159079990Y-86190000D03*
D10*
%TO.P,J5,7*%
%TO.N,Net-(J5-Pad7)*%
X156160010Y-88730000D03*
%TO.P,J5,6*%
%TO.N,SDA*%
X159079990Y-91270000D03*
%TO.P,J5,5*%
%TO.N,SCL*%
X156160010Y-93810000D03*
D12*
%TO.P,J5,4*%
%TO.N,Net-(J5-Pad4)*%
X158571990Y-96350000D03*
D10*
%TO.P,J5,3*%
%TO.N,SCK*%
X156160010Y-98890000D03*
D11*
%TO.P,J5,2*%
%TO.N,Net-(J5-Pad2)*%
X159079990Y-101430000D03*
D10*
%TO.P,J5,1*%
%TO.N,MOSI*%
X156160010Y-103970000D03*
%TD*%
D13*
%TO.P,J3,4*%
%TO.N,SCL*%
X165000000Y-80000000D03*
%TO.P,J3,3*%
%TO.N,SDA*%
X164000000Y-80000000D03*
%TO.P,J3,2*%
%TO.N,+3V3*%
X163000000Y-80000000D03*
%TO.P,J3,1*%
%TO.N,GND*%
X162000000Y-80000000D03*
D14*
%TO.P,J3,S1*%
%TO.N,Net-(J3-PadS1)*%
X160700000Y-83875000D03*
%TO.P,J3,S2*%
%TO.N,Net-(J3-PadS2)*%
X166300000Y-83875000D03*
%TD*%
%TO.P,J2,S2*%
%TO.N,Net-(J2-PadS2)*%
X161200000Y-96625000D03*
%TO.P,J2,S1*%
%TO.N,Net-(J2-PadS1)*%
X165800000Y-96625000D03*
D13*
%TO.P,J2,3*%
%TO.N,MOSI*%
X162500000Y-100500000D03*
%TO.P,J2,1*%
%TO.N,SCK*%
X164500000Y-100500000D03*
%TO.P,J2,2*%
%TO.N,GND*%
X163500000Y-100500000D03*
%TD*%
D15*
%TO.P,J1,S1*%
%TO.N,GND*%
X139850000Y-91250000D03*
%TO.P,J1,S2*%
X133150000Y-91250000D03*
D16*
%TO.P,J1,1*%
%TO.N,+5V*%
X137500000Y-97000000D03*
%TO.P,J1,2*%
%TO.N,GND*%
X135500000Y-97000000D03*
%TD*%
D17*
%TO.N,GND*%
X143839990Y-101430000D02*
X146430000Y-101430000D01*
X146430000Y-101430000D02*
X150000000Y-97860000D01*
X154550013Y-81110000D02*
X159079990Y-81110000D01*
X150000000Y-85660013D02*
X154550013Y-81110000D01*
X150000000Y-97860000D02*
X150000000Y-85660013D01*
D18*
X160890000Y-81110000D02*
X162000000Y-80000000D01*
X159079990Y-81110000D02*
X160890000Y-81110000D01*
D17*
X136780000Y-101430000D02*
X143839990Y-101430000D01*
X135500000Y-100150000D02*
X136780000Y-101430000D01*
X135500000Y-97000000D02*
X135500000Y-100150000D01*
X135500000Y-92000000D02*
X136250000Y-91250000D01*
X135500000Y-97000000D02*
X135500000Y-92000000D01*
X136250000Y-91250000D02*
X139850000Y-91250000D01*
X133150000Y-91250000D02*
X136250000Y-91250000D01*
D18*
X150205001Y-105205001D02*
X146430000Y-101430000D01*
X160067805Y-105205001D02*
X150205001Y-105205001D01*
X163500000Y-101772806D02*
X160067805Y-105205001D01*
X163500000Y-100500000D02*
X163500000Y-101772806D01*
D17*
%TO.N,+5V*%
X137500000Y-97000000D02*
X137500000Y-97500000D01*
X138890000Y-98890000D02*
X140920010Y-98890000D01*
X137500000Y-97500000D02*
X138890000Y-98890000D01*
D18*
%TO.N,MOSI*%
X162500000Y-101500000D02*
X162500000Y-100500000D01*
X160030000Y-103970000D02*
X162500000Y-101500000D01*
X156160010Y-103970000D02*
X160030000Y-103970000D01*
%TO.N,SCK*%
X164500000Y-99125000D02*
X164500000Y-100500000D01*
X164265000Y-98890000D02*
X164500000Y-99125000D01*
X156160010Y-98890000D02*
X164265000Y-98890000D01*
%TO.N,SCL*%
X165000000Y-88779987D02*
X165000000Y-80000000D01*
X159969987Y-93810000D02*
X165000000Y-88779987D01*
X156160010Y-93810000D02*
X159969987Y-93810000D01*
%TO.N,SDA*%
X164000000Y-86349990D02*
X164000000Y-80000000D01*
X159079990Y-91270000D02*
X164000000Y-86349990D01*
%TO.N,+3V3*%
X163000000Y-78844998D02*
X163000000Y-80000000D01*
X162780001Y-78624999D02*
X163000000Y-78844998D01*
X155196524Y-78624999D02*
X162780001Y-78624999D01*
X143839990Y-89981533D02*
X155196524Y-78624999D01*
X143839990Y-96350000D02*
X143839990Y-89981533D01*
%TD*%
M02*
