%TF.GenerationSoftware,KiCad,Pcbnew,5.1.9-1.fc32*%
%TF.CreationDate,2021-02-16T11:33:07-08:00*%
%TF.ProjectId,tinypico-io,74696e79-7069-4636-9f2d-696f2e6b6963,1.0.0*%
%TF.SameCoordinates,Original*%
%TF.FileFunction,Legend,Top*%
%TF.FilePolarity,Positive*%
%FSLAX46Y46*%
G04 Gerber Fmt 4.6, Leading zero omitted, Abs format (unit mm)*
G04 Created by KiCad (PCBNEW 5.1.9-1.fc32) date 2021-02-16 11:33:07*
%MOMM*%
%LPD*%
G01*
G04 APERTURE LIST*
%ADD10C,0.150000*%
%ADD11C,0.120000*%
%ADD12C,0.300000*%
%ADD13C,0.127000*%
G04 APERTURE END LIST*
D10*
X162476190Y-95404761D02*
X162619047Y-95452380D01*
X162857142Y-95452380D01*
X162952380Y-95404761D01*
X163000000Y-95357142D01*
X163047619Y-95261904D01*
X163047619Y-95166666D01*
X163000000Y-95071428D01*
X162952380Y-95023809D01*
X162857142Y-94976190D01*
X162666666Y-94928571D01*
X162571428Y-94880952D01*
X162523809Y-94833333D01*
X162476190Y-94738095D01*
X162476190Y-94642857D01*
X162523809Y-94547619D01*
X162571428Y-94500000D01*
X162666666Y-94452380D01*
X162904761Y-94452380D01*
X163047619Y-94500000D01*
X163476190Y-95452380D02*
X163476190Y-94452380D01*
X163857142Y-94452380D01*
X163952380Y-94500000D01*
X164000000Y-94547619D01*
X164047619Y-94642857D01*
X164047619Y-94785714D01*
X164000000Y-94880952D01*
X163952380Y-94928571D01*
X163857142Y-94976190D01*
X163476190Y-94976190D01*
X164476190Y-95452380D02*
X164476190Y-94452380D01*
X162952380Y-87547619D02*
X162857142Y-87500000D01*
X162761904Y-87404761D01*
X162619047Y-87261904D01*
X162523809Y-87214285D01*
X162428571Y-87214285D01*
X162476190Y-87452380D02*
X162380952Y-87404761D01*
X162285714Y-87309523D01*
X162238095Y-87119047D01*
X162238095Y-86785714D01*
X162285714Y-86595238D01*
X162380952Y-86500000D01*
X162476190Y-86452380D01*
X162666666Y-86452380D01*
X162761904Y-86500000D01*
X162857142Y-86595238D01*
X162904761Y-86785714D01*
X162904761Y-87119047D01*
X162857142Y-87309523D01*
X162761904Y-87404761D01*
X162666666Y-87452380D01*
X162476190Y-87452380D01*
X163238095Y-86785714D02*
X163428571Y-87452380D01*
X163619047Y-86976190D01*
X163809523Y-87452380D01*
X164000000Y-86785714D01*
X164380952Y-87452380D02*
X164380952Y-86785714D01*
X164380952Y-86452380D02*
X164333333Y-86500000D01*
X164380952Y-86547619D01*
X164428571Y-86500000D01*
X164380952Y-86452380D01*
X164380952Y-86547619D01*
X164857142Y-87452380D02*
X164857142Y-86785714D01*
X164857142Y-86452380D02*
X164809523Y-86500000D01*
X164857142Y-86547619D01*
X164904761Y-86500000D01*
X164857142Y-86452380D01*
X164857142Y-86547619D01*
X165761904Y-87404761D02*
X165666666Y-87452380D01*
X165476190Y-87452380D01*
X165380952Y-87404761D01*
X165333333Y-87357142D01*
X165285714Y-87261904D01*
X165285714Y-86976190D01*
X165333333Y-86880952D01*
X165380952Y-86833333D01*
X165476190Y-86785714D01*
X165666666Y-86785714D01*
X165761904Y-86833333D01*
X132714285Y-86928571D02*
X133047619Y-86928571D01*
X133190476Y-87452380D02*
X132714285Y-87452380D01*
X132714285Y-86452380D01*
X133190476Y-86452380D01*
X133523809Y-86452380D02*
X134190476Y-87452380D01*
X134190476Y-86452380D02*
X133523809Y-87452380D01*
X134428571Y-86452380D02*
X135000000Y-86452380D01*
X134714285Y-87452380D02*
X134714285Y-86452380D01*
X136095238Y-87071428D02*
X136857142Y-87071428D01*
X136476190Y-87452380D02*
X136476190Y-86690476D01*
X137809523Y-86452380D02*
X137333333Y-86452380D01*
X137285714Y-86928571D01*
X137333333Y-86880952D01*
X137428571Y-86833333D01*
X137666666Y-86833333D01*
X137761904Y-86880952D01*
X137809523Y-86928571D01*
X137857142Y-87023809D01*
X137857142Y-87261904D01*
X137809523Y-87357142D01*
X137761904Y-87404761D01*
X137666666Y-87452380D01*
X137428571Y-87452380D01*
X137333333Y-87404761D01*
X137285714Y-87357142D01*
X138142857Y-86452380D02*
X138476190Y-87452380D01*
X138809523Y-86452380D01*
X139857142Y-86785714D02*
X140333333Y-86785714D01*
X140095238Y-86452380D02*
X140095238Y-87785714D01*
X146023809Y-106952380D02*
X146023809Y-107761904D01*
X146071428Y-107857142D01*
X146119047Y-107904761D01*
X146214285Y-107952380D01*
X146404761Y-107952380D01*
X146500000Y-107904761D01*
X146547619Y-107857142D01*
X146595238Y-107761904D01*
X146595238Y-106952380D01*
X147023809Y-107904761D02*
X147166666Y-107952380D01*
X147404761Y-107952380D01*
X147500000Y-107904761D01*
X147547619Y-107857142D01*
X147595238Y-107761904D01*
X147595238Y-107666666D01*
X147547619Y-107571428D01*
X147500000Y-107523809D01*
X147404761Y-107476190D01*
X147214285Y-107428571D01*
X147119047Y-107380952D01*
X147071428Y-107333333D01*
X147023809Y-107238095D01*
X147023809Y-107142857D01*
X147071428Y-107047619D01*
X147119047Y-107000000D01*
X147214285Y-106952380D01*
X147452380Y-106952380D01*
X147595238Y-107000000D01*
X148357142Y-107428571D02*
X148500000Y-107476190D01*
X148547619Y-107523809D01*
X148595238Y-107619047D01*
X148595238Y-107761904D01*
X148547619Y-107857142D01*
X148500000Y-107904761D01*
X148404761Y-107952380D01*
X148023809Y-107952380D01*
X148023809Y-106952380D01*
X148357142Y-106952380D01*
X148452380Y-107000000D01*
X148500000Y-107047619D01*
X148547619Y-107142857D01*
X148547619Y-107238095D01*
X148500000Y-107333333D01*
X148452380Y-107380952D01*
X148357142Y-107428571D01*
X148023809Y-107428571D01*
X149785714Y-107571428D02*
X150547619Y-107571428D01*
X150166666Y-107952380D02*
X150166666Y-107190476D01*
X151500000Y-106952380D02*
X151023809Y-106952380D01*
X150976190Y-107428571D01*
X151023809Y-107380952D01*
X151119047Y-107333333D01*
X151357142Y-107333333D01*
X151452380Y-107380952D01*
X151500000Y-107428571D01*
X151547619Y-107523809D01*
X151547619Y-107761904D01*
X151500000Y-107857142D01*
X151452380Y-107904761D01*
X151357142Y-107952380D01*
X151119047Y-107952380D01*
X151023809Y-107904761D01*
X150976190Y-107857142D01*
X151833333Y-106952380D02*
X152166666Y-107952380D01*
X152500000Y-106952380D01*
X153547619Y-107285714D02*
X154023809Y-107285714D01*
X153785714Y-106952380D02*
X153785714Y-108285714D01*
D11*
%TO.C,U1*%
X141000000Y-74000000D02*
X159000000Y-74000000D01*
X159000000Y-74000000D02*
X159000000Y-106000000D01*
X159000000Y-106000000D02*
X141000000Y-106000000D01*
X141000000Y-106000000D02*
X141000000Y-74000000D01*
%TO.C,R2*%
X164422742Y-93732500D02*
X164897258Y-93732500D01*
X164422742Y-92687500D02*
X164897258Y-92687500D01*
%TO.C,R1*%
X163442742Y-91182500D02*
X163917258Y-91182500D01*
X163442742Y-90137500D02*
X163917258Y-90137500D01*
D12*
%TO.C,J3*%
X161650000Y-80865000D02*
G75*
G03*
X161650000Y-80865000I-100000J0D01*
G01*
D13*
X161800000Y-81575000D02*
X161000000Y-81575000D01*
X161000000Y-81575000D02*
X161000000Y-83850000D01*
X166200000Y-81575000D02*
X167000000Y-81575000D01*
X167000000Y-81575000D02*
X167000000Y-83850000D01*
X162200000Y-85825000D02*
X165800000Y-85825000D01*
%TO.C,J2*%
X165115000Y-100175000D02*
X166000000Y-100175000D01*
X166000000Y-100175000D02*
X166000000Y-97900000D01*
X164800000Y-95925000D02*
X162200000Y-95925000D01*
X161000000Y-97900000D02*
X161000000Y-100175000D01*
X161000000Y-100175000D02*
X161885000Y-100175000D01*
D12*
X165400000Y-100900000D02*
G75*
G03*
X165400000Y-100900000I-100000J0D01*
G01*
D13*
%TO.C,J1*%
X132050000Y-96350000D02*
X134100000Y-96350000D01*
X137900000Y-96350000D02*
X139950000Y-96350000D01*
X139950000Y-96350000D02*
X139950000Y-92350000D01*
D12*
X138250000Y-97350000D02*
G75*
G03*
X138250000Y-97350000I-100000J0D01*
G01*
D13*
X138200000Y-88750000D02*
X133800000Y-88750000D01*
X132050000Y-92350000D02*
X132050000Y-96350000D01*
%TD*%
M02*
