%TF.GenerationSoftware,KiCad,Pcbnew,5.1.9-1.fc32*%
%TF.CreationDate,2021-02-08T21:25:55-08:00*%
%TF.ProjectId,tinypico-io,74696e79-7069-4636-9f2d-696f2e6b6963,1.0.0*%
%TF.SameCoordinates,Original*%
%TF.FileFunction,Legend,Bot*%
%TF.FilePolarity,Positive*%
%FSLAX46Y46*%
G04 Gerber Fmt 4.6, Leading zero omitted, Abs format (unit mm)*
G04 Created by KiCad (PCBNEW 5.1.9-1.fc32) date 2021-02-08 21:25:55*
%MOMM*%
%LPD*%
G01*
G04 APERTURE LIST*
%ADD10C,0.150000*%
G04 APERTURE END LIST*
D10*
X150238095Y-100635714D02*
X149761904Y-100635714D01*
X150000000Y-100302380D02*
X150000000Y-101635714D01*
X160714285Y-102857142D02*
X160761904Y-102904761D01*
X160904761Y-102952380D01*
X161000000Y-102952380D01*
X161142857Y-102904761D01*
X161238095Y-102809523D01*
X161285714Y-102714285D01*
X161333333Y-102523809D01*
X161333333Y-102380952D01*
X161285714Y-102190476D01*
X161238095Y-102095238D01*
X161142857Y-102000000D01*
X161000000Y-101952380D01*
X160904761Y-101952380D01*
X160761904Y-102000000D01*
X160714285Y-102047619D01*
X160142857Y-102952380D02*
X160238095Y-102904761D01*
X160285714Y-102857142D01*
X160333333Y-102761904D01*
X160333333Y-102476190D01*
X160285714Y-102380952D01*
X160238095Y-102333333D01*
X160142857Y-102285714D01*
X160000000Y-102285714D01*
X159904761Y-102333333D01*
X159857142Y-102380952D01*
X159809523Y-102476190D01*
X159809523Y-102761904D01*
X159857142Y-102857142D01*
X159904761Y-102904761D01*
X160000000Y-102952380D01*
X160142857Y-102952380D01*
X159380952Y-102285714D02*
X159380952Y-102952380D01*
X159380952Y-102380952D02*
X159333333Y-102333333D01*
X159238095Y-102285714D01*
X159095238Y-102285714D01*
X159000000Y-102333333D01*
X158952380Y-102428571D01*
X158952380Y-102952380D01*
X158476190Y-102285714D02*
X158476190Y-102952380D01*
X158476190Y-102380952D02*
X158428571Y-102333333D01*
X158333333Y-102285714D01*
X158190476Y-102285714D01*
X158095238Y-102333333D01*
X158047619Y-102428571D01*
X158047619Y-102952380D01*
X157190476Y-102904761D02*
X157285714Y-102952380D01*
X157476190Y-102952380D01*
X157571428Y-102904761D01*
X157619047Y-102809523D01*
X157619047Y-102428571D01*
X157571428Y-102333333D01*
X157476190Y-102285714D01*
X157285714Y-102285714D01*
X157190476Y-102333333D01*
X157142857Y-102428571D01*
X157142857Y-102523809D01*
X157619047Y-102619047D01*
X156285714Y-102904761D02*
X156380952Y-102952380D01*
X156571428Y-102952380D01*
X156666666Y-102904761D01*
X156714285Y-102857142D01*
X156761904Y-102761904D01*
X156761904Y-102476190D01*
X156714285Y-102380952D01*
X156666666Y-102333333D01*
X156571428Y-102285714D01*
X156380952Y-102285714D01*
X156285714Y-102333333D01*
X156000000Y-102285714D02*
X155619047Y-102285714D01*
X155857142Y-101952380D02*
X155857142Y-102809523D01*
X155809523Y-102904761D01*
X155714285Y-102952380D01*
X155619047Y-102952380D01*
X154523809Y-102428571D02*
X154190476Y-102428571D01*
X154047619Y-102952380D02*
X154523809Y-102952380D01*
X154523809Y-101952380D01*
X154047619Y-101952380D01*
X153714285Y-101952380D02*
X153047619Y-102952380D01*
X153047619Y-101952380D02*
X153714285Y-102952380D01*
X152809523Y-101952380D02*
X152238095Y-101952380D01*
X152523809Y-102952380D02*
X152523809Y-101952380D01*
X151142857Y-102571428D02*
X150380952Y-102571428D01*
X150761904Y-102952380D02*
X150761904Y-102190476D01*
X149428571Y-101952380D02*
X149904761Y-101952380D01*
X149952380Y-102428571D01*
X149904761Y-102380952D01*
X149809523Y-102333333D01*
X149571428Y-102333333D01*
X149476190Y-102380952D01*
X149428571Y-102428571D01*
X149380952Y-102523809D01*
X149380952Y-102761904D01*
X149428571Y-102857142D01*
X149476190Y-102904761D01*
X149571428Y-102952380D01*
X149809523Y-102952380D01*
X149904761Y-102904761D01*
X149952380Y-102857142D01*
X149095238Y-101952380D02*
X148761904Y-102952380D01*
X148428571Y-101952380D01*
X147190476Y-102952380D02*
X147285714Y-102904761D01*
X147333333Y-102857142D01*
X147380952Y-102761904D01*
X147380952Y-102476190D01*
X147333333Y-102380952D01*
X147285714Y-102333333D01*
X147190476Y-102285714D01*
X147047619Y-102285714D01*
X146952380Y-102333333D01*
X146904761Y-102380952D01*
X146857142Y-102476190D01*
X146857142Y-102761904D01*
X146904761Y-102857142D01*
X146952380Y-102904761D01*
X147047619Y-102952380D01*
X147190476Y-102952380D01*
X146428571Y-102952380D02*
X146428571Y-102285714D01*
X146428571Y-102476190D02*
X146380952Y-102380952D01*
X146333333Y-102333333D01*
X146238095Y-102285714D01*
X146142857Y-102285714D01*
X145047619Y-101952380D02*
X145047619Y-102761904D01*
X145000000Y-102857142D01*
X144952380Y-102904761D01*
X144857142Y-102952380D01*
X144666666Y-102952380D01*
X144571428Y-102904761D01*
X144523809Y-102857142D01*
X144476190Y-102761904D01*
X144476190Y-101952380D01*
X144047619Y-102904761D02*
X143904761Y-102952380D01*
X143666666Y-102952380D01*
X143571428Y-102904761D01*
X143523809Y-102857142D01*
X143476190Y-102761904D01*
X143476190Y-102666666D01*
X143523809Y-102571428D01*
X143571428Y-102523809D01*
X143666666Y-102476190D01*
X143857142Y-102428571D01*
X143952380Y-102380952D01*
X144000000Y-102333333D01*
X144047619Y-102238095D01*
X144047619Y-102142857D01*
X144000000Y-102047619D01*
X143952380Y-102000000D01*
X143857142Y-101952380D01*
X143619047Y-101952380D01*
X143476190Y-102000000D01*
X142714285Y-102428571D02*
X142571428Y-102476190D01*
X142523809Y-102523809D01*
X142476190Y-102619047D01*
X142476190Y-102761904D01*
X142523809Y-102857142D01*
X142571428Y-102904761D01*
X142666666Y-102952380D01*
X143047619Y-102952380D01*
X143047619Y-101952380D01*
X142714285Y-101952380D01*
X142619047Y-102000000D01*
X142571428Y-102047619D01*
X142523809Y-102142857D01*
X142523809Y-102238095D01*
X142571428Y-102333333D01*
X142619047Y-102380952D01*
X142714285Y-102428571D01*
X143047619Y-102428571D01*
X141285714Y-102571428D02*
X140523809Y-102571428D01*
X140904761Y-102952380D02*
X140904761Y-102190476D01*
X139571428Y-101952380D02*
X140047619Y-101952380D01*
X140095238Y-102428571D01*
X140047619Y-102380952D01*
X139952380Y-102333333D01*
X139714285Y-102333333D01*
X139619047Y-102380952D01*
X139571428Y-102428571D01*
X139523809Y-102523809D01*
X139523809Y-102761904D01*
X139571428Y-102857142D01*
X139619047Y-102904761D01*
X139714285Y-102952380D01*
X139952380Y-102952380D01*
X140047619Y-102904761D01*
X140095238Y-102857142D01*
X139238095Y-101952380D02*
X138904761Y-102952380D01*
X138571428Y-101952380D01*
X153500000Y-104602380D02*
X153500000Y-103602380D01*
X152928571Y-104602380D01*
X152928571Y-103602380D01*
X152261904Y-103602380D02*
X152071428Y-103602380D01*
X151976190Y-103650000D01*
X151880952Y-103745238D01*
X151833333Y-103935714D01*
X151833333Y-104269047D01*
X151880952Y-104459523D01*
X151976190Y-104554761D01*
X152071428Y-104602380D01*
X152261904Y-104602380D01*
X152357142Y-104554761D01*
X152452380Y-104459523D01*
X152500000Y-104269047D01*
X152500000Y-103935714D01*
X152452380Y-103745238D01*
X152357142Y-103650000D01*
X152261904Y-103602380D01*
X151547619Y-103602380D02*
X150976190Y-103602380D01*
X151261904Y-104602380D02*
X151261904Y-103602380D01*
X149547619Y-104078571D02*
X149404761Y-104126190D01*
X149357142Y-104173809D01*
X149309523Y-104269047D01*
X149309523Y-104411904D01*
X149357142Y-104507142D01*
X149404761Y-104554761D01*
X149500000Y-104602380D01*
X149880952Y-104602380D01*
X149880952Y-103602380D01*
X149547619Y-103602380D01*
X149452380Y-103650000D01*
X149404761Y-103697619D01*
X149357142Y-103792857D01*
X149357142Y-103888095D01*
X149404761Y-103983333D01*
X149452380Y-104030952D01*
X149547619Y-104078571D01*
X149880952Y-104078571D01*
X148690476Y-103602380D02*
X148500000Y-103602380D01*
X148404761Y-103650000D01*
X148309523Y-103745238D01*
X148261904Y-103935714D01*
X148261904Y-104269047D01*
X148309523Y-104459523D01*
X148404761Y-104554761D01*
X148500000Y-104602380D01*
X148690476Y-104602380D01*
X148785714Y-104554761D01*
X148880952Y-104459523D01*
X148928571Y-104269047D01*
X148928571Y-103935714D01*
X148880952Y-103745238D01*
X148785714Y-103650000D01*
X148690476Y-103602380D01*
X147976190Y-103602380D02*
X147404761Y-103602380D01*
X147690476Y-104602380D02*
X147690476Y-103602380D01*
X147071428Y-104602380D02*
X147071428Y-103602380D01*
X147071428Y-104078571D02*
X146500000Y-104078571D01*
X146500000Y-104602380D02*
X146500000Y-103602380D01*
X150238095Y-88135714D02*
X150285714Y-88183333D01*
X150333333Y-88278571D01*
X150333333Y-88564285D01*
X150285714Y-88659523D01*
X150190476Y-88754761D01*
X150095238Y-88802380D01*
X149904761Y-88802380D01*
X149809523Y-88754761D01*
X149714285Y-88659523D01*
X149666666Y-88564285D01*
X149666666Y-88278571D01*
X149714285Y-88183333D01*
X149809523Y-88135714D01*
X149857142Y-88135714D01*
X149952380Y-88183333D01*
X150000000Y-88278571D01*
X150000000Y-89135714D01*
X160333333Y-90166666D02*
X159857142Y-90166666D01*
X160428571Y-90452380D02*
X160095238Y-89452380D01*
X159761904Y-90452380D01*
X159428571Y-90452380D02*
X159428571Y-89785714D01*
X159428571Y-89976190D02*
X159380952Y-89880952D01*
X159333333Y-89833333D01*
X159238095Y-89785714D01*
X159142857Y-89785714D01*
X158952380Y-89785714D02*
X158571428Y-89785714D01*
X158809523Y-89452380D02*
X158809523Y-90309523D01*
X158761904Y-90404761D01*
X158666666Y-90452380D01*
X158571428Y-90452380D01*
X157761904Y-90452380D02*
X158238095Y-90452380D01*
X158238095Y-89452380D01*
X157428571Y-90452380D02*
X157428571Y-89785714D01*
X157428571Y-89452380D02*
X157476190Y-89500000D01*
X157428571Y-89547619D01*
X157380952Y-89500000D01*
X157428571Y-89452380D01*
X157428571Y-89547619D01*
X156523809Y-89785714D02*
X156523809Y-90595238D01*
X156571428Y-90690476D01*
X156619047Y-90738095D01*
X156714285Y-90785714D01*
X156857142Y-90785714D01*
X156952380Y-90738095D01*
X156523809Y-90404761D02*
X156619047Y-90452380D01*
X156809523Y-90452380D01*
X156904761Y-90404761D01*
X156952380Y-90357142D01*
X157000000Y-90261904D01*
X157000000Y-89976190D01*
X156952380Y-89880952D01*
X156904761Y-89833333D01*
X156809523Y-89785714D01*
X156619047Y-89785714D01*
X156523809Y-89833333D01*
X156047619Y-90452380D02*
X156047619Y-89452380D01*
X155619047Y-90452380D02*
X155619047Y-89928571D01*
X155666666Y-89833333D01*
X155761904Y-89785714D01*
X155904761Y-89785714D01*
X156000000Y-89833333D01*
X156047619Y-89880952D01*
X155285714Y-89785714D02*
X154904761Y-89785714D01*
X155142857Y-89452380D02*
X155142857Y-90309523D01*
X155095238Y-90404761D01*
X155000000Y-90452380D01*
X154904761Y-90452380D01*
X153285714Y-89500000D02*
X153380952Y-89452380D01*
X153523809Y-89452380D01*
X153666666Y-89500000D01*
X153761904Y-89595238D01*
X153809523Y-89690476D01*
X153857142Y-89880952D01*
X153857142Y-90023809D01*
X153809523Y-90214285D01*
X153761904Y-90309523D01*
X153666666Y-90404761D01*
X153523809Y-90452380D01*
X153428571Y-90452380D01*
X153285714Y-90404761D01*
X153238095Y-90357142D01*
X153238095Y-90023809D01*
X153428571Y-90023809D01*
X152666666Y-90452380D02*
X152761904Y-90404761D01*
X152809523Y-90357142D01*
X152857142Y-90261904D01*
X152857142Y-89976190D01*
X152809523Y-89880952D01*
X152761904Y-89833333D01*
X152666666Y-89785714D01*
X152523809Y-89785714D01*
X152428571Y-89833333D01*
X152380952Y-89880952D01*
X152333333Y-89976190D01*
X152333333Y-90261904D01*
X152380952Y-90357142D01*
X152428571Y-90404761D01*
X152523809Y-90452380D01*
X152666666Y-90452380D01*
X151761904Y-90452380D02*
X151857142Y-90404761D01*
X151904761Y-90309523D01*
X151904761Y-89452380D01*
X150952380Y-90452380D02*
X150952380Y-89452380D01*
X150952380Y-90404761D02*
X151047619Y-90452380D01*
X151238095Y-90452380D01*
X151333333Y-90404761D01*
X151380952Y-90357142D01*
X151428571Y-90261904D01*
X151428571Y-89976190D01*
X151380952Y-89880952D01*
X151333333Y-89833333D01*
X151238095Y-89785714D01*
X151047619Y-89785714D01*
X150952380Y-89833333D01*
X150095238Y-90404761D02*
X150190476Y-90452380D01*
X150380952Y-90452380D01*
X150476190Y-90404761D01*
X150523809Y-90309523D01*
X150523809Y-89928571D01*
X150476190Y-89833333D01*
X150380952Y-89785714D01*
X150190476Y-89785714D01*
X150095238Y-89833333D01*
X150047619Y-89928571D01*
X150047619Y-90023809D01*
X150523809Y-90119047D01*
X149619047Y-89785714D02*
X149619047Y-90452380D01*
X149619047Y-89880952D02*
X149571428Y-89833333D01*
X149476190Y-89785714D01*
X149333333Y-89785714D01*
X149238095Y-89833333D01*
X149190476Y-89928571D01*
X149190476Y-90452380D01*
X148095238Y-89452380D02*
X147523809Y-89452380D01*
X147809523Y-90452380D02*
X147809523Y-89452380D01*
X147190476Y-90452380D02*
X147190476Y-89785714D01*
X147190476Y-89452380D02*
X147238095Y-89500000D01*
X147190476Y-89547619D01*
X147142857Y-89500000D01*
X147190476Y-89452380D01*
X147190476Y-89547619D01*
X146714285Y-89785714D02*
X146714285Y-90452380D01*
X146714285Y-89880952D02*
X146666666Y-89833333D01*
X146571428Y-89785714D01*
X146428571Y-89785714D01*
X146333333Y-89833333D01*
X146285714Y-89928571D01*
X146285714Y-90452380D01*
X145904761Y-89785714D02*
X145666666Y-90452380D01*
X145428571Y-89785714D02*
X145666666Y-90452380D01*
X145761904Y-90690476D01*
X145809523Y-90738095D01*
X145904761Y-90785714D01*
X145047619Y-90452380D02*
X145047619Y-89452380D01*
X144666666Y-89452380D01*
X144571428Y-89500000D01*
X144523809Y-89547619D01*
X144476190Y-89642857D01*
X144476190Y-89785714D01*
X144523809Y-89880952D01*
X144571428Y-89928571D01*
X144666666Y-89976190D01*
X145047619Y-89976190D01*
X144047619Y-90452380D02*
X144047619Y-89452380D01*
X143000000Y-90357142D02*
X143047619Y-90404761D01*
X143190476Y-90452380D01*
X143285714Y-90452380D01*
X143428571Y-90404761D01*
X143523809Y-90309523D01*
X143571428Y-90214285D01*
X143619047Y-90023809D01*
X143619047Y-89880952D01*
X143571428Y-89690476D01*
X143523809Y-89595238D01*
X143428571Y-89500000D01*
X143285714Y-89452380D01*
X143190476Y-89452380D01*
X143047619Y-89500000D01*
X143000000Y-89547619D01*
X142380952Y-89452380D02*
X142190476Y-89452380D01*
X142095238Y-89500000D01*
X142000000Y-89595238D01*
X141952380Y-89785714D01*
X141952380Y-90119047D01*
X142000000Y-90309523D01*
X142095238Y-90404761D01*
X142190476Y-90452380D01*
X142380952Y-90452380D01*
X142476190Y-90404761D01*
X142571428Y-90309523D01*
X142619047Y-90119047D01*
X142619047Y-89785714D01*
X142571428Y-89595238D01*
X142476190Y-89500000D01*
X142380952Y-89452380D01*
X140761904Y-90452380D02*
X140761904Y-89452380D01*
X140095238Y-89452380D02*
X139904761Y-89452380D01*
X139809523Y-89500000D01*
X139714285Y-89595238D01*
X139666666Y-89785714D01*
X139666666Y-90119047D01*
X139714285Y-90309523D01*
X139809523Y-90404761D01*
X139904761Y-90452380D01*
X140095238Y-90452380D01*
X140190476Y-90404761D01*
X140285714Y-90309523D01*
X140333333Y-90119047D01*
X140333333Y-89785714D01*
X140285714Y-89595238D01*
X140190476Y-89500000D01*
X140095238Y-89452380D01*
X156000000Y-91340476D02*
X156095238Y-91292857D01*
X156285714Y-91292857D01*
X156380952Y-91340476D01*
X156476190Y-91435714D01*
X156523809Y-91530952D01*
X156523809Y-91721428D01*
X156476190Y-91816666D01*
X156380952Y-91911904D01*
X156285714Y-91959523D01*
X156095238Y-91959523D01*
X156000000Y-91911904D01*
X156190476Y-90959523D02*
X156428571Y-91007142D01*
X156666666Y-91150000D01*
X156809523Y-91388095D01*
X156857142Y-91626190D01*
X156809523Y-91864285D01*
X156666666Y-92102380D01*
X156428571Y-92245238D01*
X156190476Y-92292857D01*
X155952380Y-92245238D01*
X155714285Y-92102380D01*
X155571428Y-91864285D01*
X155523809Y-91626190D01*
X155571428Y-91388095D01*
X155714285Y-91150000D01*
X155952380Y-91007142D01*
X156190476Y-90959523D01*
X155142857Y-91197619D02*
X155095238Y-91150000D01*
X155000000Y-91102380D01*
X154761904Y-91102380D01*
X154666666Y-91150000D01*
X154619047Y-91197619D01*
X154571428Y-91292857D01*
X154571428Y-91388095D01*
X154619047Y-91530952D01*
X155190476Y-92102380D01*
X154571428Y-92102380D01*
X153952380Y-91102380D02*
X153857142Y-91102380D01*
X153761904Y-91150000D01*
X153714285Y-91197619D01*
X153666666Y-91292857D01*
X153619047Y-91483333D01*
X153619047Y-91721428D01*
X153666666Y-91911904D01*
X153714285Y-92007142D01*
X153761904Y-92054761D01*
X153857142Y-92102380D01*
X153952380Y-92102380D01*
X154047619Y-92054761D01*
X154095238Y-92007142D01*
X154142857Y-91911904D01*
X154190476Y-91721428D01*
X154190476Y-91483333D01*
X154142857Y-91292857D01*
X154095238Y-91197619D01*
X154047619Y-91150000D01*
X153952380Y-91102380D01*
X153238095Y-91197619D02*
X153190476Y-91150000D01*
X153095238Y-91102380D01*
X152857142Y-91102380D01*
X152761904Y-91150000D01*
X152714285Y-91197619D01*
X152666666Y-91292857D01*
X152666666Y-91388095D01*
X152714285Y-91530952D01*
X153285714Y-92102380D01*
X152666666Y-92102380D01*
X151714285Y-92102380D02*
X152285714Y-92102380D01*
X152000000Y-92102380D02*
X152000000Y-91102380D01*
X152095238Y-91245238D01*
X152190476Y-91340476D01*
X152285714Y-91388095D01*
X149952380Y-92102380D02*
X150285714Y-91626190D01*
X150523809Y-92102380D02*
X150523809Y-91102380D01*
X150142857Y-91102380D01*
X150047619Y-91150000D01*
X150000000Y-91197619D01*
X149952380Y-91292857D01*
X149952380Y-91435714D01*
X150000000Y-91530952D01*
X150047619Y-91578571D01*
X150142857Y-91626190D01*
X150523809Y-91626190D01*
X149380952Y-92102380D02*
X149476190Y-92054761D01*
X149523809Y-92007142D01*
X149571428Y-91911904D01*
X149571428Y-91626190D01*
X149523809Y-91530952D01*
X149476190Y-91483333D01*
X149380952Y-91435714D01*
X149238095Y-91435714D01*
X149142857Y-91483333D01*
X149095238Y-91530952D01*
X149047619Y-91626190D01*
X149047619Y-91911904D01*
X149095238Y-92007142D01*
X149142857Y-92054761D01*
X149238095Y-92102380D01*
X149380952Y-92102380D01*
X148666666Y-92054761D02*
X148571428Y-92102380D01*
X148380952Y-92102380D01*
X148285714Y-92054761D01*
X148238095Y-91959523D01*
X148238095Y-91911904D01*
X148285714Y-91816666D01*
X148380952Y-91769047D01*
X148523809Y-91769047D01*
X148619047Y-91721428D01*
X148666666Y-91626190D01*
X148666666Y-91578571D01*
X148619047Y-91483333D01*
X148523809Y-91435714D01*
X148380952Y-91435714D01*
X148285714Y-91483333D01*
X147857142Y-92054761D02*
X147761904Y-92102380D01*
X147571428Y-92102380D01*
X147476190Y-92054761D01*
X147428571Y-91959523D01*
X147428571Y-91911904D01*
X147476190Y-91816666D01*
X147571428Y-91769047D01*
X147714285Y-91769047D01*
X147809523Y-91721428D01*
X147857142Y-91626190D01*
X147857142Y-91578571D01*
X147809523Y-91483333D01*
X147714285Y-91435714D01*
X147571428Y-91435714D01*
X147476190Y-91483333D01*
X146380952Y-91102380D02*
X145809523Y-91102380D01*
X146095238Y-92102380D02*
X146095238Y-91102380D01*
X145571428Y-91435714D02*
X145333333Y-92102380D01*
X145095238Y-91435714D02*
X145333333Y-92102380D01*
X145428571Y-92340476D01*
X145476190Y-92388095D01*
X145571428Y-92435714D01*
X144571428Y-92102380D02*
X144666666Y-92054761D01*
X144714285Y-91959523D01*
X144714285Y-91102380D01*
X143809523Y-92054761D02*
X143904761Y-92102380D01*
X144095238Y-92102380D01*
X144190476Y-92054761D01*
X144238095Y-91959523D01*
X144238095Y-91578571D01*
X144190476Y-91483333D01*
X144095238Y-91435714D01*
X143904761Y-91435714D01*
X143809523Y-91483333D01*
X143761904Y-91578571D01*
X143761904Y-91673809D01*
X144238095Y-91769047D01*
X143333333Y-92102380D02*
X143333333Y-91435714D01*
X143333333Y-91626190D02*
X143285714Y-91530952D01*
X143238095Y-91483333D01*
X143142857Y-91435714D01*
X143047619Y-91435714D01*
M02*
