%TF.GenerationSoftware,KiCad,Pcbnew,5.1.9-1.fc32*%
%TF.CreationDate,2021-02-08T21:25:55-08:00*%
%TF.ProjectId,tinypico-io,74696e79-7069-4636-9f2d-696f2e6b6963,1.0.0*%
%TF.SameCoordinates,Original*%
%TF.FileFunction,Paste,Top*%
%TF.FilePolarity,Positive*%
%FSLAX46Y46*%
G04 Gerber Fmt 4.6, Leading zero omitted, Abs format (unit mm)*
G04 Created by KiCad (PCBNEW 5.1.9-1.fc32) date 2021-02-08 21:25:55*
%MOMM*%
%LPD*%
G01*
G04 APERTURE LIST*
%ADD10C,0.010000*%
%ADD11R,3.429990X1.270000*%
%ADD12R,3.429991X1.270000*%
%ADD13R,2.413991X1.270000*%
%ADD14R,0.600000X1.550000*%
%ADD15R,1.200000X1.800000*%
%ADD16R,1.500000X3.400000*%
%ADD17R,1.000000X3.500000*%
G04 APERTURE END LIST*
D10*
%TO.C,J4*%
G36*
X142125009Y-96985000D02*
G01*
X142125009Y-95715000D01*
X145555000Y-95715000D01*
X145555000Y-96985000D01*
X142125009Y-96985000D01*
G37*
X142125009Y-96985000D02*
X142125009Y-95715000D01*
X145555000Y-95715000D01*
X145555000Y-96985000D01*
X142125009Y-96985000D01*
G36*
X139205030Y-99525000D02*
G01*
X139205030Y-98255000D01*
X142635016Y-98255000D01*
X142635016Y-99525000D01*
X139205030Y-99525000D01*
G37*
X139205030Y-99525000D02*
X139205030Y-98255000D01*
X142635016Y-98255000D01*
X142635016Y-99525000D01*
X139205030Y-99525000D01*
G36*
X142125009Y-102065000D02*
G01*
X142125009Y-100795000D01*
X145555000Y-100795000D01*
X145555000Y-102065000D01*
X142125009Y-102065000D01*
G37*
X142125009Y-102065000D02*
X142125009Y-100795000D01*
X145555000Y-100795000D01*
X145555000Y-102065000D01*
X142125009Y-102065000D01*
G36*
X139205030Y-104605000D02*
G01*
X139205030Y-103335000D01*
X142635016Y-103335000D01*
X142635016Y-104605000D01*
X139205030Y-104605000D01*
G37*
X139205030Y-104605000D02*
X139205030Y-103335000D01*
X142635016Y-103335000D01*
X142635016Y-104605000D01*
X139205030Y-104605000D01*
%TO.C,J5*%
G36*
X157365009Y-81745000D02*
G01*
X157365009Y-80475000D01*
X160795000Y-80475000D01*
X160795000Y-81745000D01*
X157365009Y-81745000D01*
G37*
X157365009Y-81745000D02*
X157365009Y-80475000D01*
X160795000Y-80475000D01*
X160795000Y-81745000D01*
X157365009Y-81745000D01*
G36*
X154445030Y-84285000D02*
G01*
X154445030Y-83015000D01*
X157875016Y-83015000D01*
X157875016Y-84285000D01*
X154445030Y-84285000D01*
G37*
X154445030Y-84285000D02*
X154445030Y-83015000D01*
X157875016Y-83015000D01*
X157875016Y-84285000D01*
X154445030Y-84285000D01*
G36*
X157365009Y-86825000D02*
G01*
X157365009Y-85555000D01*
X160795000Y-85555000D01*
X160795000Y-86825000D01*
X157365009Y-86825000D01*
G37*
X157365009Y-86825000D02*
X157365009Y-85555000D01*
X160795000Y-85555000D01*
X160795000Y-86825000D01*
X157365009Y-86825000D01*
G36*
X154445030Y-89365000D02*
G01*
X154445030Y-88095000D01*
X157875016Y-88095000D01*
X157875016Y-89365000D01*
X154445030Y-89365000D01*
G37*
X154445030Y-89365000D02*
X154445030Y-88095000D01*
X157875016Y-88095000D01*
X157875016Y-89365000D01*
X154445030Y-89365000D01*
G36*
X157365009Y-91905000D02*
G01*
X157365009Y-90635000D01*
X160795000Y-90635000D01*
X160795000Y-91905000D01*
X157365009Y-91905000D01*
G37*
X157365009Y-91905000D02*
X157365009Y-90635000D01*
X160795000Y-90635000D01*
X160795000Y-91905000D01*
X157365009Y-91905000D01*
G36*
X154445030Y-94445000D02*
G01*
X154445030Y-93175000D01*
X157875016Y-93175000D01*
X157875016Y-94445000D01*
X154445030Y-94445000D01*
G37*
X154445030Y-94445000D02*
X154445030Y-93175000D01*
X157875016Y-93175000D01*
X157875016Y-94445000D01*
X154445030Y-94445000D01*
G36*
X157365009Y-96985000D02*
G01*
X157365009Y-95715000D01*
X160795000Y-95715000D01*
X160795000Y-96985000D01*
X157365009Y-96985000D01*
G37*
X157365009Y-96985000D02*
X157365009Y-95715000D01*
X160795000Y-95715000D01*
X160795000Y-96985000D01*
X157365009Y-96985000D01*
G36*
X154445030Y-99525000D02*
G01*
X154445030Y-98255000D01*
X157875016Y-98255000D01*
X157875016Y-99525000D01*
X154445030Y-99525000D01*
G37*
X154445030Y-99525000D02*
X154445030Y-98255000D01*
X157875016Y-98255000D01*
X157875016Y-99525000D01*
X154445030Y-99525000D01*
G36*
X157365009Y-102065000D02*
G01*
X157365009Y-100795000D01*
X160795000Y-100795000D01*
X160795000Y-102065000D01*
X157365009Y-102065000D01*
G37*
X157365009Y-102065000D02*
X157365009Y-100795000D01*
X160795000Y-100795000D01*
X160795000Y-102065000D01*
X157365009Y-102065000D01*
G36*
X154445030Y-104605000D02*
G01*
X154445030Y-103335000D01*
X157875016Y-103335000D01*
X157875016Y-104605000D01*
X154445030Y-104605000D01*
G37*
X154445030Y-104605000D02*
X154445030Y-103335000D01*
X157875016Y-103335000D01*
X157875016Y-104605000D01*
X154445030Y-104605000D01*
%TD*%
D11*
%TO.C,J4*%
X143839990Y-96350000D03*
X140920010Y-98890000D03*
X143839990Y-101430000D03*
D12*
X140920010Y-103970000D03*
%TD*%
D11*
%TO.C,J5*%
X159079990Y-81110000D03*
X156160010Y-83650000D03*
D12*
X159079990Y-86190000D03*
D11*
X156160010Y-88730000D03*
X159079990Y-91270000D03*
X156160010Y-93810000D03*
D13*
X158571990Y-96350000D03*
D11*
X156160010Y-98890000D03*
D12*
X159079990Y-101430000D03*
D11*
X156160010Y-103970000D03*
%TD*%
D14*
%TO.C,J3*%
X165000000Y-80000000D03*
X164000000Y-80000000D03*
X163000000Y-80000000D03*
X162000000Y-80000000D03*
D15*
X160700000Y-83875000D03*
X166300000Y-83875000D03*
%TD*%
%TO.C,J2*%
X161200000Y-96625000D03*
X165800000Y-96625000D03*
D14*
X162500000Y-100500000D03*
X164500000Y-100500000D03*
X163500000Y-100500000D03*
%TD*%
D16*
%TO.C,J1*%
X139850000Y-91250000D03*
X133150000Y-91250000D03*
D17*
X137500000Y-97000000D03*
X135500000Y-97000000D03*
%TD*%
M02*
