%TF.GenerationSoftware,KiCad,Pcbnew,5.1.9-1.fc32*%
%TF.CreationDate,2021-02-15T18:21:08-08:00*%
%TF.ProjectId,tinypico-io,74696e79-7069-4636-9f2d-696f2e6b6963,1.0.0*%
%TF.SameCoordinates,Original*%
%TF.FileFunction,Soldermask,Top*%
%TF.FilePolarity,Negative*%
%FSLAX46Y46*%
G04 Gerber Fmt 4.6, Leading zero omitted, Abs format (unit mm)*
G04 Created by KiCad (PCBNEW 5.1.9-1.fc32) date 2021-02-15 18:21:08*
%MOMM*%
%LPD*%
G01*
G04 APERTURE LIST*
%ADD10R,0.600000X1.550000*%
%ADD11R,1.200000X1.800000*%
%ADD12R,1.500000X3.400000*%
%ADD13R,1.000000X3.500000*%
G04 APERTURE END LIST*
%TO.C,R2*%
G36*
G01*
X165085000Y-93485000D02*
X165085000Y-92935000D01*
G75*
G02*
X165285000Y-92735000I200000J0D01*
G01*
X165685000Y-92735000D01*
G75*
G02*
X165885000Y-92935000I0J-200000D01*
G01*
X165885000Y-93485000D01*
G75*
G02*
X165685000Y-93685000I-200000J0D01*
G01*
X165285000Y-93685000D01*
G75*
G02*
X165085000Y-93485000I0J200000D01*
G01*
G37*
G36*
G01*
X163435000Y-93485000D02*
X163435000Y-92935000D01*
G75*
G02*
X163635000Y-92735000I200000J0D01*
G01*
X164035000Y-92735000D01*
G75*
G02*
X164235000Y-92935000I0J-200000D01*
G01*
X164235000Y-93485000D01*
G75*
G02*
X164035000Y-93685000I-200000J0D01*
G01*
X163635000Y-93685000D01*
G75*
G02*
X163435000Y-93485000I0J200000D01*
G01*
G37*
%TD*%
%TO.C,R1*%
G36*
G01*
X164105000Y-90935000D02*
X164105000Y-90385000D01*
G75*
G02*
X164305000Y-90185000I200000J0D01*
G01*
X164705000Y-90185000D01*
G75*
G02*
X164905000Y-90385000I0J-200000D01*
G01*
X164905000Y-90935000D01*
G75*
G02*
X164705000Y-91135000I-200000J0D01*
G01*
X164305000Y-91135000D01*
G75*
G02*
X164105000Y-90935000I0J200000D01*
G01*
G37*
G36*
G01*
X162455000Y-90935000D02*
X162455000Y-90385000D01*
G75*
G02*
X162655000Y-90185000I200000J0D01*
G01*
X163055000Y-90185000D01*
G75*
G02*
X163255000Y-90385000I0J-200000D01*
G01*
X163255000Y-90935000D01*
G75*
G02*
X163055000Y-91135000I-200000J0D01*
G01*
X162655000Y-91135000D01*
G75*
G02*
X162455000Y-90935000I0J200000D01*
G01*
G37*
%TD*%
D10*
%TO.C,J3*%
X165500000Y-81250000D03*
X164500000Y-81250000D03*
X163500000Y-81250000D03*
X162500000Y-81250000D03*
D11*
X161200000Y-85125000D03*
X166800000Y-85125000D03*
%TD*%
%TO.C,J2*%
X161200000Y-96625000D03*
X165800000Y-96625000D03*
D10*
X162500000Y-100500000D03*
X164500000Y-100500000D03*
X163500000Y-100500000D03*
%TD*%
D12*
%TO.C,J1*%
X139350000Y-90250000D03*
X132650000Y-90250000D03*
D13*
X137000000Y-96000000D03*
X135000000Y-96000000D03*
%TD*%
M02*
