%TF.GenerationSoftware,KiCad,Pcbnew,5.1.9-1.fc32*%
%TF.CreationDate,2021-02-08T21:25:55-08:00*%
%TF.ProjectId,tinypico-io,74696e79-7069-4636-9f2d-696f2e6b6963,1.0.0*%
%TF.SameCoordinates,Original*%
%TF.FileFunction,Soldermask,Top*%
%TF.FilePolarity,Negative*%
%FSLAX46Y46*%
G04 Gerber Fmt 4.6, Leading zero omitted, Abs format (unit mm)*
G04 Created by KiCad (PCBNEW 5.1.9-1.fc32) date 2021-02-08 21:25:55*
%MOMM*%
%LPD*%
G01*
G04 APERTURE LIST*
%ADD10C,0.010000*%
%ADD11R,0.600000X1.550000*%
%ADD12R,1.200000X1.800000*%
%ADD13R,1.500000X3.400000*%
%ADD14R,1.000000X3.500000*%
G04 APERTURE END LIST*
D10*
%TO.C,J4*%
G36*
X142074006Y-97036000D02*
G01*
X142074006Y-95664000D01*
X145606000Y-95664000D01*
X145606000Y-97036000D01*
X142074006Y-97036000D01*
G37*
X142074006Y-97036000D02*
X142074006Y-95664000D01*
X145606000Y-95664000D01*
X145606000Y-97036000D01*
X142074006Y-97036000D01*
G36*
X139154020Y-99576003D02*
G01*
X139154020Y-98204000D01*
X142686019Y-98204000D01*
X142686019Y-99576003D01*
X139154020Y-99576003D01*
G37*
X139154020Y-99576003D02*
X139154020Y-98204000D01*
X142686019Y-98204000D01*
X142686019Y-99576003D01*
X139154020Y-99576003D01*
G36*
X142074006Y-102116000D02*
G01*
X142074006Y-100743997D01*
X145606000Y-100743997D01*
X145606000Y-102116000D01*
X142074006Y-102116000D01*
G37*
X142074006Y-102116000D02*
X142074006Y-100743997D01*
X145606000Y-100743997D01*
X145606000Y-102116000D01*
X142074006Y-102116000D01*
G36*
X139154020Y-104656000D02*
G01*
X139154020Y-103284000D01*
X142686019Y-103284000D01*
X142686019Y-104656000D01*
X139154020Y-104656000D01*
G37*
X139154020Y-104656000D02*
X139154020Y-103284000D01*
X142686019Y-103284000D01*
X142686019Y-104656000D01*
X139154020Y-104656000D01*
%TO.C,J5*%
G36*
X157314006Y-81796000D02*
G01*
X157314006Y-80424000D01*
X160846000Y-80424000D01*
X160846000Y-81796000D01*
X157314006Y-81796000D01*
G37*
X157314006Y-81796000D02*
X157314006Y-80424000D01*
X160846000Y-80424000D01*
X160846000Y-81796000D01*
X157314006Y-81796000D01*
G36*
X154394020Y-84336000D02*
G01*
X154394020Y-82964000D01*
X157926019Y-82964000D01*
X157926019Y-84336000D01*
X154394020Y-84336000D01*
G37*
X154394020Y-84336000D02*
X154394020Y-82964000D01*
X157926019Y-82964000D01*
X157926019Y-84336000D01*
X154394020Y-84336000D01*
G36*
X157314006Y-86876000D02*
G01*
X157314006Y-85504000D01*
X160846000Y-85504000D01*
X160846000Y-86876000D01*
X157314006Y-86876000D01*
G37*
X157314006Y-86876000D02*
X157314006Y-85504000D01*
X160846000Y-85504000D01*
X160846000Y-86876000D01*
X157314006Y-86876000D01*
G36*
X154394020Y-89416000D02*
G01*
X154394020Y-88044000D01*
X157926019Y-88044000D01*
X157926019Y-89416000D01*
X154394020Y-89416000D01*
G37*
X154394020Y-89416000D02*
X154394020Y-88044000D01*
X157926019Y-88044000D01*
X157926019Y-89416000D01*
X154394020Y-89416000D01*
G36*
X157314006Y-91956003D02*
G01*
X157314006Y-90584000D01*
X160846000Y-90584000D01*
X160846000Y-91956003D01*
X157314006Y-91956003D01*
G37*
X157314006Y-91956003D02*
X157314006Y-90584000D01*
X160846000Y-90584000D01*
X160846000Y-91956003D01*
X157314006Y-91956003D01*
G36*
X154394020Y-94496000D02*
G01*
X154394020Y-93123997D01*
X157926019Y-93123997D01*
X157926019Y-94496000D01*
X154394020Y-94496000D01*
G37*
X154394020Y-94496000D02*
X154394020Y-93123997D01*
X157926019Y-93123997D01*
X157926019Y-94496000D01*
X154394020Y-94496000D01*
G36*
X157314006Y-97036000D02*
G01*
X157314006Y-95664000D01*
X160846000Y-95664000D01*
X160846000Y-97036000D01*
X157314006Y-97036000D01*
G37*
X157314006Y-97036000D02*
X157314006Y-95664000D01*
X160846000Y-95664000D01*
X160846000Y-97036000D01*
X157314006Y-97036000D01*
G36*
X154394020Y-99576000D02*
G01*
X154394020Y-98204000D01*
X157926019Y-98204000D01*
X157926019Y-99576000D01*
X154394020Y-99576000D01*
G37*
X154394020Y-99576000D02*
X154394020Y-98204000D01*
X157926019Y-98204000D01*
X157926019Y-99576000D01*
X154394020Y-99576000D01*
G36*
X157314006Y-102116000D02*
G01*
X157314006Y-100744000D01*
X160846000Y-100744000D01*
X160846000Y-102116000D01*
X157314006Y-102116000D01*
G37*
X157314006Y-102116000D02*
X157314006Y-100744000D01*
X160846000Y-100744000D01*
X160846000Y-102116000D01*
X157314006Y-102116000D01*
G36*
X154394020Y-104656000D02*
G01*
X154394020Y-103284000D01*
X157926019Y-103284000D01*
X157926019Y-104656000D01*
X154394020Y-104656000D01*
G37*
X154394020Y-104656000D02*
X154394020Y-103284000D01*
X157926019Y-103284000D01*
X157926019Y-104656000D01*
X154394020Y-104656000D01*
%TD*%
D11*
%TO.C,J3*%
X165000000Y-80000000D03*
X164000000Y-80000000D03*
X163000000Y-80000000D03*
X162000000Y-80000000D03*
D12*
X160700000Y-83875000D03*
X166300000Y-83875000D03*
%TD*%
%TO.C,J2*%
X161200000Y-96625000D03*
X165800000Y-96625000D03*
D11*
X162500000Y-100500000D03*
X164500000Y-100500000D03*
X163500000Y-100500000D03*
%TD*%
D13*
%TO.C,J1*%
X139850000Y-91250000D03*
X133150000Y-91250000D03*
D14*
X137500000Y-97000000D03*
X135500000Y-97000000D03*
%TD*%
M02*
