;Layer: Drill PTH
;EasyEDA v6.4.7, 2020-12-05T12:44:13--8:00
;005523fa74924ed2a5d768746dba2907,10
;Gerber Generator version 0.2
M48
METRIC,LZ,000.000
;Holesize 1 = 0.600 METRIC
T01C0.600
%
G05
G90
T01
X+163475Y+158640
X+165271Y+157896
X+167067Y+158640
X+167067Y+162232
X+165271Y+162976
X+163475Y+162232
X+171280Y+154660
X+172712Y+153345
X+174654Y+153427
X+175886Y+156801
X+174455Y+158116
X+172512Y+158034
X+163745Y+153512
X+164247Y+151633
X+165931Y+150661
X+168781Y+152846
X+168279Y+154724
X+166596Y+155697
X+156291Y+150955
X+155106Y+149413
X+155358Y+147486
X+158827Y+146553
X+160012Y+148094
X+159760Y+150022
X+156043Y+158605
X+154216Y+157941
X+153394Y+156179
X+155821Y+153530
X+157648Y+154195
X+158469Y+155957
X+148310Y+157264
X+146366Y+157267
X+144990Y+155894
X+146360Y+152573
X+148305Y+152571
X+149681Y+153944
X+152714Y+163672
X+151075Y+164717
X+149177Y+164298
X+148551Y+160760
X+150190Y+159715
X+152088Y+160135
X+157161Y+171145
X+156993Y+173082
X+155505Y+174333
X+152317Y+172678
X+152485Y+170741
X+153973Y+169490
X+163024Y+166378
X+163922Y+168102
X+163338Y+169956
X+159760Y+170270
X+158862Y+168546
X+159446Y+166692
X+169597Y+163967
X+171512Y+164303
X+172628Y+165895
X+170700Y+168926
X+168786Y+168589
X+167669Y+166998
X+176039Y+161969
X+177953Y+161628
X+179547Y+162740
X+178776Y+166249
X+176862Y+166589
X+175268Y+165477
X+179933Y+156036
X+181614Y+155059
X+183493Y+155556
X+183972Y+159117
X+182291Y+160093
X+180412Y+159596
X+172583Y+148071
X+173477Y+146345
X+175330Y+145756
X+177645Y+148503
X+176751Y+150229
X+174898Y+150818
X+163188Y+146500
X+163016Y+144563
X+164263Y+143072
X+167691Y+144147
X+167863Y+146084
X+166616Y+147575
X+158044Y+141888
X+157218Y+140128
X+157878Y+138300
X+161466Y+138134
X+162292Y+139894
X+161632Y+141722
X+150079Y+148452
X+148438Y+147411
X+148013Y+145514
X+150952Y+143448
X+152593Y+144489
X+153018Y+146386
X+143149Y+150413
X+141250Y+149998
X+140201Y+148361
X+142252Y+145412
X+144152Y+145828
X+145201Y+147464
X+143039Y+161503
X+141214Y+162172
X+139450Y+161354
X+139598Y+157765
X+141424Y+157096
X+143187Y+157914
X+148891Y+169355
X+147710Y+170899
X+145783Y+171156
X+143982Y+168048
X+145163Y+166503
X+147090Y+166247
X+149805Y+176294
X+149226Y+178149
X+147504Y+179051
X+144746Y+176750
X+145325Y+174895
X+147047Y+173992
X+160361Y+177021
X+160868Y+178898
X+159900Y+180584
X+156337Y+180122
X+155830Y+178246
X+156799Y+176560
X+166974Y+180141
X+168093Y+181730
X+167762Y+183646
X+164257Y+184434
X+163137Y+182845
X+163469Y+180930
X+167992Y+171782
X+169427Y+173093
X+169515Y+175035
X+166261Y+176558
X+164826Y+175246
X+164739Y+173304
X+174820Y+171953
X+176617Y+172693
X+177366Y+174487
X+174832Y+177033
X+173034Y+176293
X+172286Y+174499
X+181389Y+168016
X+183331Y+168094
X+184649Y+169523
X+183143Y+172784
X+181200Y+172706
X+179882Y+171277
X+186014Y+160731
X+187865Y+160137
X+189594Y+161027
X+189297Y+164607
X+187446Y+165200
X+185717Y+164310
X+187407Y+151254
X+188942Y+150062
X+190871Y+150305
X+191821Y+153769
X+190285Y+154961
X+188357Y+154718
X+180441Y+148031
X+181685Y+146537
X+183620Y+146360
X+185292Y+149539
X+184048Y+151034
X+182112Y+151211
X+177099Y+139685
X+177755Y+137854
X+179512Y+137024
X+182173Y+139438
X+181517Y+141268
X+179759Y+142098
X+169614Y+141266
X+169861Y+139338
X+171400Y+138150
X+174516Y+139936
X+174269Y+141864
X+172730Y+143053
X+170050Y+132702
X+170039Y+130758
X+171405Y+129375
X+174732Y+130729
X+174744Y+132673
X+173377Y+134056
X+163074Y+136017
X+162645Y+134121
X+163682Y+132477
X+167222Y+133085
X+167651Y+134981
X+166614Y+136625
X+154014Y+133722
X+152961Y+132088
X+153371Y+130188
X+156905Y+129545
X+157959Y+131179
X+157548Y+133079
X+150396Y+140469
X+149016Y+139099
X+149009Y+137155
X+152323Y+135768
X+153703Y+137138
X+153710Y+139082
X+141972Y+142837
X+140206Y+142024
X+139533Y+140200
X+142170Y+137761
X+143935Y+138574
X+144609Y+140397
X+134496Y+149007
X+132558Y+148849
X+131300Y+147367
X+132940Y+144171
X+134878Y+144329
X+136136Y+145811
X+137363Y+156142
X+135437Y+156403
X+133890Y+155226
X+134805Y+151753
X+136732Y+151491
X+138279Y+152668
X+134223Y+164693
X+132504Y+165600
X+130646Y+165025
X+130315Y+161448
X+132035Y+160541
X+133892Y+161116
X+140746Y+168686
X+139262Y+169941
X+137324Y+169778
X+136233Y+166356
X+137718Y+165101
X+139655Y+165264
X+134767Y+174713
X+133463Y+176154
X+131521Y+176251
X+129983Y+173005
X+131288Y+171564
X+133229Y+171467
X+142142Y+177079
X+141178Y+178767
X+139302Y+179279
X+137102Y+176439
X+138067Y+174751
X+139942Y+174239
X+147395Y+184950
X+147068Y+186866
X+145482Y+187990
X+142442Y+186077
X+142769Y+184160
X+144355Y+183036
X+154664Y+182521
X+154757Y+184463
X+153449Y+185901
X+150069Y+184686
X+149976Y+182744
X+151284Y+181305
X+162622Y+186441
X+163375Y+188233
X+162640Y+190033
X+159048Y+190050
X+158295Y+188258
X+159030Y+186458
X+172421Y+186884
X+173742Y+188310
X+173669Y+190252
X+170301Y+191501
X+168979Y+190076
X+169053Y+188133
X+175226Y+179708
X+176824Y+180816
X+177169Y+182729
X+174148Y+184672
X+172551Y+183564
X+172205Y+181650
X+182477Y+183250
X+184208Y+184135
X+184805Y+185985
X+182070Y+188314
X+180340Y+187428
X+179742Y+185578
X+183388Y+175400
X+185268Y+175894
X+186249Y+177572
X+184078Y+180433
X+182197Y+179940
X+181216Y+178262
X+191091Y+175590
X+193020Y+175828
X+194216Y+177360
X+192445Y+180486
X+190516Y+180248
X+189320Y+178715
X+189782Y+167523
X+191718Y+167341
X+193215Y+168581
X+192156Y+172014
X+190221Y+172195
X+188724Y+170955
X+196684Y+164618
X+198577Y+164180
X+200227Y+165209
X+199636Y+168753
X+197742Y+169191
X+196092Y+168161
X+192983Y+156986
X+194739Y+156152
X+196571Y+156803
X+196754Y+160390
X+194998Y+161225
X+193167Y+160574
X+198040Y+151627
X+199668Y+150566
X+201571Y+150967
X+202231Y+154498
X+200602Y+155559
X+198700Y+155158
X+192016Y+145199
X+193379Y+143812
X+195322Y+143796
X+196726Y+147103
X+195363Y+148489
X+193419Y+148505
X+184813Y+141103
X+185847Y+139456
X+187742Y+139023
X+189822Y+141951
X+188789Y+143598
X+186894Y+144031
X+186510Y+133866
X+187315Y+132096
X+189135Y+131414
X+191587Y+134039
X+190782Y+135808
X+188962Y+136491
X+178118Y+131972
X+178524Y+130070
X+180155Y+129013
X+183114Y+131050
X+182708Y+132951
X+181076Y+134009
X+167873Y+125492
X+167602Y+123567
X+168772Y+122014
X+172250Y+122912
X+172521Y+124837
X+171351Y+126390
X+160063Y+128590
X+159386Y+126768
X+160195Y+125000
X+163784Y+125131
X+164462Y+126953
X+163653Y+128721
X+155240Y+122990
X+154325Y+121275
X+154891Y+119415
X+158466Y+119066
X+159381Y+120781
X+158815Y+122641
X+148436Y+128455
X+147175Y+126976
X+147328Y+125038
X+150745Y+123930
X+152007Y+125409
X+151853Y+127347
X+143876Y+135282
X+142326Y+134108
X+142060Y+132183
X+145159Y+130366
X+146709Y+131540
X+146975Y+133465
X+136822Y+132829
X+135130Y+131872
X+134609Y+129999
X+137438Y+127786
X+139131Y+128742
X+139651Y+130615
X+134330Y+140978
X+132472Y+140407
X+131561Y+138690
X+133849Y+135920
X+135708Y+136491
X+136618Y+138209
X+126995Y+141570
X+125077Y+141253
X+123946Y+139672
X+125844Y+136623
X+127762Y+136940
X+128894Y+138521
X+127047Y+150422
X+125106Y+150524
X+123661Y+149223
X+124860Y+145837
X+126802Y+145735
X+128246Y+147036
X+129544Y+158363
X+127669Y+158879
X+125979Y+157918
X+126423Y+154354
X+128297Y+153838
X+129988Y+154798
X+123452Y+162595
X+121663Y+163357
X+119860Y+162630
X+119825Y+159038
X+121613Y+158277
X+123417Y+159003
X+128340Y+169724
X+126756Y+170852
X+124839Y+170530
X+124034Y+167029
X+125617Y+165902
X+127534Y+166224
X+131572Y+181508
X+130472Y+183110
X+128560Y+183465
X+126603Y+180453
X+127703Y+178851
X+129615Y+178496
X+139440Y+184568
X+138709Y+186369
X+136918Y+187126
X+134360Y+184605
X+135091Y+182803
X+136881Y+182046
X+139273Y+191945
X+138789Y+193827
X+137115Y+194816
X+134243Y+192659
X+134727Y+190776
X+136401Y+189787
X+148019Y+192564
X+147951Y+194506
X+146529Y+195832
X+143260Y+194341
X+143329Y+192398
X+144751Y+191073
X+156045Y+190665
X+156395Y+192577
X+155291Y+194177
X+151779Y+193423
X+151428Y+191511
X+152533Y+189911
X+159636Y+197192
X+160238Y+199041
X+159357Y+200774
X+155776Y+200494
X+155174Y+198646
X+156055Y+196913
X+167041Y+192894
X+168026Y+194570
X+167538Y+196451
X+163980Y+196948
X+162995Y+195272
X+163484Y+193390
X+172878Y+197361
X+174078Y+198891
X+173844Y+200821
X+170385Y+201787
X+169185Y+200258
X+169418Y+198328
X+178882Y+190800
X+180382Y+192037
X+180569Y+193972
X+177397Y+195658
X+175897Y+194422
X+175711Y+192487
X+185977Y+192574
X+187629Y+193600
X+188071Y+195493
X+185153Y+197587
X+183501Y+196562
X+183059Y+194669
X+189822Y+184182
X+191655Y+184829
X+192494Y+186582
X+190094Y+189255
X+188260Y+188608
X+187422Y+186854
X+197052Y+183033
X+198956Y+183429
X+200021Y+185056
X+197998Y+188024
X+196095Y+187628
X+195030Y+186001
X+198123Y+173522
X+200067Y+173501
X+201457Y+174861
X+200118Y+178194
X+198175Y+178216
X+196785Y+176856
X+204381Y+169642
X+206304Y+169362
X+207863Y+170524
X+206981Y+174006
X+205058Y+174287
X+203499Y+173125
X+202313Y+159953
X+204132Y+159266
X+205904Y+160066
X+205790Y+163657
X+203971Y+164344
X+202200Y+163543
X+206647Y+153919
X+208358Y+152996
X+210221Y+153553
X+210587Y+157126
X+208876Y+158049
X+207014Y+157492
X+201414Y+145116
X+202887Y+143847
X+204826Y+143991
X+205951Y+147402
X+204478Y+148672
X+202539Y+148528
X+194501Y+138316
X+195667Y+136760
X+197591Y+136485
X+199423Y+139575
X+198257Y+141131
X+196332Y+141406
X+195110Y+130956
X+196058Y+129259
X+197928Y+128729
X+200155Y+131547
X+199207Y+133245
X+197337Y+133774
X+186090Y+126562
X+186651Y+124701
X+188364Y+123782
X+191145Y+126056
X+190583Y+127918
X+188870Y+128837
X+176778Y+124752
X+176927Y+122814
X+178403Y+121549
X+181607Y+123173
X+181458Y+125112
X+179982Y+126377
X+173541Y+118154
X+173430Y+116213
X+174724Y+114762
X+178115Y+115945
X+178226Y+117886
X+176933Y+119337
X+163799Y+119420
X+163274Y+117548
X+164226Y+115853
X+167793Y+116280
X+168318Y+118152
X+167366Y+119847
X+158231Y+114530
X+157461Y+112745
X+158179Y+110938
X+161771Y+110885
X+162541Y+112670
X+161823Y+114477
X+149105Y+118989
X+147969Y+117411
X+148282Y+115493
X+151779Y+114670
X+152914Y+116248
X+152601Y+118167
X+141836Y+125279
X+140388Y+123982
X+140281Y+122041
X+143520Y+120487
X+144968Y+121784
X+145074Y+123725
X+134586Y+123953
X+132978Y+122860
X+132614Y+120950
X+135616Y+118978
X+137224Y+120071
X+137589Y+121981
X+129517Y+132514
X+127712Y+131792
X+126946Y+130005
X+129455Y+127434
X+131260Y+128156
X+132026Y+129943
X+122243Y+134074
X+120358Y+133599
X+119361Y+131930
X+121505Y+129048
X+123390Y+129523
X+124387Y+131192
X+120119Y+144135
X+118176Y+144076
X+116844Y+142660
X+118319Y+139384
X+120262Y+139443
X+121594Y+140859
X+120592Y+153863
X+118682Y+154222
X+117076Y+153125
X+117813Y+149610
X+119724Y+149250
X+121329Y+150347
X+115192Y+158913
X+113347Y+159524
X+111610Y+158651
X+111872Y+155069
X+113717Y+154458
X+115454Y+155330
X+118862Y+168296
X+117191Y+169289
X+115307Y+168809
X+114794Y+165254
X+116465Y+164261
X+118349Y+164740
X+124501Y+175976
X+123082Y+177304
X+121139Y+177241
X+119874Y+173879
X+121293Y+172550
X+123236Y+172614
X+122470Y+183046
X+121241Y+184552
X+119307Y+184748
X+117605Y+181585
X+118834Y+180079
X+120768Y+179883
X+130524Y+188744
X+129647Y+190478
X+127800Y+191085
X+125458Y+188361
X+126336Y+186626
X+128182Y+186020
X+131365Y+196115
X+130727Y+197952
X+128978Y+198799
X+126294Y+196412
X+126932Y+194576
X+128681Y+193728
X+141139Y+199032
X+140910Y+200963
X+139384Y+202166
X+136249Y+200411
X+136478Y+198480
X+138005Y+197277
X+150789Y+199340
X+150980Y+201275
X+149747Y+202778
X+146310Y+201736
X+146118Y+199802
X+147351Y+198299
X+155275Y+205197
X+155723Y+207089
X+154701Y+208743
X+151155Y+208169
X+150708Y+206277
X+151729Y+204623
X+164845Y+202326
X+165689Y+204078
X+165046Y+205913
X+161460Y+206114
X+160616Y+204362
X+161259Y+202527
X+171289Y+206062
X+172359Y+207686
X+171967Y+209590
X+168439Y+210267
X+167370Y+208643
X+167762Y+206739
X+179701Y+200077
X+181094Y+201433
X+181120Y+203377
X+177820Y+204796
X+176427Y+203440
X+176401Y+201496
X+187168Y+201111
X+188729Y+202269
X+189014Y+204192
X+185933Y+206039
X+184371Y+204881
X+184087Y+202958
X+194969Y+200493
X+196671Y+201433
X+197210Y+203301
X+194402Y+205541
X+192700Y+204602
X+192161Y+202734
X+193378Y+192458
X+195151Y+193254
X+195843Y+195071
X+193230Y+197536
X+191456Y+196740
X+190765Y+194923
X+200786Y+190593
X+202650Y+191145
X+203578Y+192854
X+201317Y+195645
X+199453Y+195093
X+198525Y+193384
X+207924Y+187094
X+209844Y+187393
X+210991Y+188963
X+209123Y+192030
X+207202Y+191732
X+206055Y+190162
X+203925Y+180079
X+205864Y+180219
X+207137Y+181688
X+205528Y+184900
X+203589Y+184761
X+202316Y+183291
X+210199Y+175527
X+212140Y+175406
X+213597Y+176693
X+212431Y+180090
X+210490Y+180211
X+209033Y+178924
X+215648Y+169565
X+217555Y+169187
X+219171Y+170268
X+218468Y+173790
X+216561Y+174169
X+214945Y+173088
X+209700Y+164250
X+211569Y+163715
X+213268Y+164659
X+212859Y+168228
X+210990Y+168762
X+209290Y+167818
X+213912Y+157601
X+215694Y+156822
X+217504Y+157531
X+217574Y+161122
X+215793Y+161901
X+213983Y+161192
X+216866Y+149942
X+218527Y+148933
X+220416Y+149394
X+220964Y+152944
X+219303Y+153953
X+217414Y+153492
X+209607Y+146831
X+211179Y+145688
X+213099Y+145992
X+213939Y+149484
X+212366Y+150627
X+210446Y+150324
X+211108Y+138977
X+212514Y+137635
X+214458Y+137679
X+215755Y+141029
X+214350Y+142372
X+212406Y+142327
X+203158Y+137807
X+204448Y+136353
X+206389Y+136237
X+207959Y+139468
X+206669Y+140922
X+204728Y+141038
X+203279Y+130012
X+204364Y+128399
X+206272Y+128026
X+208258Y+131018
X+207173Y+132631
X+205266Y+133005
X+201786Y+122025
X+202646Y+120281
X+204487Y+119657
X+206855Y+122358
X+205995Y+124101
X+204154Y+124726
X+193965Y+123429
X+194679Y+121621
X+196462Y+120846
X+199045Y+123343
X+198331Y+125151
X+196548Y+125926
X+191162Y+116025
X+191628Y+114137
X+193292Y+113132
X+196185Y+115261
X+195719Y+117149
X+194055Y+118154
X+183824Y+119456
X+184132Y+117536
X+185707Y+116397
X+188766Y+118280
X+188457Y+120200
X+186882Y+121339
X+179901Y+112803
X+179951Y+110860
X+181360Y+109520
X+184643Y+110979
X+184593Y+112923
X+183184Y+114262
X+174495Y+106846
X+174285Y+104913
X+175504Y+103398
X+178951Y+104406
X+179161Y+106338
X+177943Y+107853
X+168700Y+112360
X+168331Y+110452
X+169420Y+108841
X+172939Y+109561
X+173308Y+111470
X+172219Y+113080
X+162502Y+107559
X+161882Y+105716
X+162746Y+103975
X+166330Y+104219
X+166950Y+106062
X+166086Y+107803
X+155180Y+103922
X+154320Y+102179
X+154944Y+100338
X+158529Y+100102
X+159389Y+101845
X+158764Y+103686
X+151482Y+110921
X+150481Y+109255
X+150951Y+107369
X+154504Y+106838
X+155505Y+108504
X+155035Y+110390
X+143834Y+108700
X+142619Y+107182
X+142834Y+105250
X+146284Y+104250
X+147498Y+105768
X+147284Y+107700
X+142020Y+116555
X+140684Y+115142
X+140738Y+113199
X+144094Y+111917
X+145430Y+113330
X+145376Y+115273
X+134301Y+115700
X+132788Y+114478
X+132583Y+112545
X+135738Y+110828
X+137250Y+112049
X+137456Y+113983
X+126242Y+116440
X+124580Y+115431
X+124119Y+113542
X+127016Y+111419
X+128678Y+112429
X+129139Y+114317
X+127010Y+124369
X+125271Y+123501
X+124655Y+121657
X+127368Y+119302
X+129107Y+120170
X+129723Y+122014
X+119405Y+126456
X+117565Y+125827
X+116709Y+124082
X+119084Y+121386
X+120923Y+122015
X+121779Y+123760
X+112049Y+130135
X+110142Y+129757
X+109060Y+128141
X+111054Y+125153
X+112961Y+125531
X+114042Y+127147
X+115274Y+137334
X+113342Y+137115
X+112131Y+135594
X+113871Y+132452
X+115803Y+132671
X+117014Y+134192
X+108863Y+142141
X+106919Y+142181
X+105516Y+140835
X+106822Y+137489
X+108766Y+137448
X+110168Y+138794
X+113906Y+148381
X+111973Y+148582
X+110463Y+147356
X+111488Y+143913
X+113422Y+143713
X+114931Y+144938
X+108562Y+154077
X+106672Y+154534
X+105013Y+153520
X+105570Y+149972
X+107459Y+149515
X+109118Y+150528
X+104278Y+161001
X+102466Y+161706
X+100686Y+160922
X+100765Y+157331
X+102577Y+156627
X+104356Y+157410
X+110971Y+165264
X+109223Y+166116
X+107385Y+165483
X+107167Y+161897
X+108914Y+161045
X+110752Y+161679
X+108054Y+172642
X+106435Y+173719
X+104529Y+173336
X+103835Y+169812
X+105453Y+168735
X+107359Y+169117
X+115762Y+175091
X+114238Y+176298
X+112307Y+176074
X+111323Y+172619
X+112847Y+171412
X+114778Y+171636
X+114185Y+182666
X+112836Y+184066
X+110892Y+184101
X+109457Y+180808
X+110806Y+179409
X+112750Y+179373
X+114171Y+190727
X+113020Y+192294
X+111099Y+192588
X+109237Y+189516
X+110388Y+187949
X+112309Y+187654
X+122159Y+190602
X+121141Y+192258
X+119250Y+192710
X+117142Y+189802
X+118159Y+188146
X+120050Y+187694
X+123515Y+198339
X+122727Y+200117
X+120914Y+200817
X+118436Y+198216
X+119223Y+196439
X+121037Y+195739
X+126483Y+205974
X+125940Y+207841
X+124236Y+208777
X+121434Y+206529
X+121977Y+204663
X+123681Y+203727
X+133938Y+203338
X+133551Y+205243
X+131930Y+206316
X+128951Y+204308
X+129339Y+202403
X+130960Y+201330
X+138107Y+210143
X+137977Y+212083
X+136514Y+213362
X+133294Y+211769
X+133424Y+209830
X+134887Y+208550
X+144754Y+205606
X+144785Y+207550
X+143433Y+208946
X+140092Y+207624
X+140062Y+205681
X+141414Y+204284
X+149900Y+211443
X+150190Y+213365
X+149035Y+214929
X+145549Y+214065
X+145259Y+212142
X+146413Y+210578
X+156369Y+216333
X+156913Y+218199
X+155977Y+219903
X+152407Y+219511
X+151863Y+217645
X+152799Y+215940
X+161173Y+209990
X+161869Y+211806
X+161077Y+213581
X+157486Y+213485
X+156791Y+211670
X+157582Y+209894
X+168216Y+213573
X+169148Y+215279
X+168600Y+217145
X+165028Y+217528
X+164097Y+215822
X+164645Y+213957
X+176147Y+215813
X+177298Y+217380
X+177004Y+219302
X+173516Y+220158
X+172365Y+218591
X+172659Y+216670
X+178653Y+208342
X+179930Y+209808
X+179795Y+211748
X+176389Y+212890
X+175113Y+211423
X+175248Y+209484
X+186645Y+209106
X+188106Y+210389
X+188231Y+212329
X+185008Y+213915
X+183548Y+212632
X+183422Y+210691
X+194984Y+208312
X+196602Y+209389
X+196985Y+211295
X+194002Y+213296
X+192384Y+212219
X+192001Y+210313
X+203393Y+205945
X+205141Y+206797
X+205774Y+208635
X+203085Y+211016
X+201337Y+210164
X+200703Y+208326
X+202815Y+198255
X+204626Y+198959
X+205410Y+200739
X+202926Y+203334
X+201114Y+202630
X+200331Y+200850
X+210429Y+194449
X+212318Y+194905
X+213332Y+196564
X+211216Y+199467
X+209326Y+199011
X+208313Y+197352
X+217548Y+189152
X+219482Y+189353
X+220708Y+190862
X+218998Y+194021
X+217065Y+193821
X+215839Y+192312
X+214529Y+182081
X+216472Y+182122
X+217818Y+183524
X+216376Y+186814
X+214432Y+186774
X+213086Y+185371
X+220361Y+175694
X+222292Y+175474
X+223814Y+176685
X+222822Y+180138
X+220891Y+180357
X+219370Y+179146
X+225201Y+168092
X+227087Y+167617
X+228755Y+168614
X+228234Y+172168
X+226349Y+172643
X+224680Y+171646
X+220068Y+162390
X+221907Y+161761
X+223653Y+162616
X+223426Y+166201
X+221587Y+166831
X+219841Y+165975
X+223278Y+154210
X+225017Y+153341
X+226861Y+153956
X+227115Y+157539
X+225375Y+158408
X+223531Y+157793
X+225130Y+145249
X+226738Y+144156
X+228647Y+144520
X+229376Y+148037
X+227768Y+149130
X+225859Y+148766
X+218432Y+141523
X+219944Y+140301
X+221877Y+140506
X+222894Y+143951
X+221382Y+145173
X+219449Y+144968
X+218514Y+132598
X+219849Y+131185
X+221793Y+131130
X+223260Y+134409
X+221924Y+135822
X+219981Y+135876
X+211087Y+130635
X+212301Y+129117
X+214233Y+128902
X+215966Y+132049
X+214752Y+133567
X+212820Y+133781
X+209505Y+122079
X+210506Y+120412
X+212392Y+119942
X+214529Y+122829
X+213528Y+124495
X+211642Y+124966
X+206357Y+113579
X+207127Y+111794
X+208934Y+111076
X+211437Y+113653
X+210667Y+115438
X+208860Y+116155
X+198708Y+114125
X+199328Y+112283
X+201069Y+111418
X+203776Y+113779
X+203156Y+115622
X+201415Y+116486
X+194100Y+106582
X+194469Y+104673
X+196079Y+103584
X+199077Y+105563
X+198708Y+107472
X+197098Y+108561
X+186800Y+109012
X+187010Y+107080
X+188525Y+105861
X+191676Y+107586
X+191466Y+109519
X+189951Y+110737
X+180997Y+102645
X+180947Y+100702
X+182286Y+099292
X+185638Y+100582
X+185688Y+102525
X+184349Y+103935
X+173893Y+097155
X+173585Y+095236
X+174724Y+093660
X+178219Y+094491
X+178527Y+096411
X+177388Y+097986
X+167785Y+101804
X+167319Y+099917
X+168324Y+098253
X+171876Y+098792
X+172342Y+100680
X+171336Y+102343
X+159963Y+097876
X+159249Y+096068
X+160024Y+094285
X+163615Y+094346
X+164329Y+096154
X+163554Y+097937
X+151240Y+095230
X+150292Y+093533
X+150821Y+091663
X+154389Y+091244
X+155337Y+092941
X+154807Y+094812
X+146973Y+101599
X+145888Y+099986
X+146261Y+098078
X+149782Y+097366
X+150867Y+098979
X+150494Y+100887
X+138126Y+100709
X+136836Y+099255
X+136951Y+097315
X+140346Y+096140
X+141637Y+097594
X+141521Y+099534
X+135559Y+107954
X+134152Y+106611
X+134107Y+104668
X+137393Y+103216
X+138799Y+104559
X+138845Y+106502
X+126928Y+108743
X+125355Y+107601
X+125051Y+105680
X+128115Y+103804
X+129687Y+104947
X+129991Y+106867
X+118211Y+111098
X+116500Y+110175
X+115943Y+108312
X+118728Y+106044
X+120439Y+106967
X+120996Y+108830
X+118125Y+118769
X+116344Y+117990
X+115635Y+116180
X+118224Y+113690
X+120005Y+114469
X+120714Y+116279
X+110224Y+122655
X+108355Y+122121
X+107411Y+120421
X+109644Y+117608
X+111514Y+118142
X+112457Y+119842
X+102800Y+128033
X+100876Y+127753
X+099714Y+126195
X+101553Y+123108
X+103476Y+123389
X+104639Y+124947
X+105204Y+135310
X+103263Y+135189
X+101977Y+133733
X+103554Y+130505
X+105494Y+130626
X+106781Y+132083
X+099114Y+141860
X+097175Y+141999
X+095706Y+140726
X+096839Y+137318
X+098778Y+137178
X+100247Y+138451
X+103247Y+148332
X+101326Y+148632
X+099756Y+147485
X+100604Y+143994
X+102525Y+143695
X+104095Y+144842
X+098639Y+155734
X+096776Y+156286
X+095067Y+155359
X+095442Y+151787
X+097305Y+151234
X+099014Y+152162
X+095226Y+164149
X+093453Y+164946
X+091636Y+164254
X+091531Y+160664
X+093304Y+159868
X+095121Y+160559
X+101223Y+168928
X+099521Y+169868
X+097653Y+169329
X+097252Y+165760
X+098954Y+164820
X+100822Y+165358
X+099538Y+177623
X+097977Y+178781
X+096054Y+178496
X+095180Y+175012
X+096741Y+173854
X+098664Y+174139
X+106551Y+180779
X+105091Y+182063
X+103151Y+181937
X+101993Y+178537
X+103453Y+177254
X+105393Y+177379
X+106548Y+189412
X+105272Y+190878
X+103333Y+191013
X+101731Y+187798
X+103007Y+186331
X+104947Y+186196
X+108096Y+198272
X+107026Y+199896
X+105122Y+200288
X+103106Y+197315
X+104176Y+195691
X+106080Y+195299
X+115736Y+198990
X+114805Y+200696
X+112940Y+201244
X+110685Y+198448
X+111617Y+196741
X+113482Y+196193
X+118873Y+207180
X+118177Y+208995
X+116402Y+209787
X+113795Y+207316
X+114490Y+205501
X+116266Y+204709
X+123539Y+215031
X+123092Y+216923
X+121438Y+217944
X+118524Y+215843
X+118972Y+213951
X+120626Y+212930
X+130991Y+213236
X+130701Y+215158
X+129137Y+216313
X+126060Y+214459
X+126350Y+212537
X+127914Y+211382
X+136936Y+219870
X+136906Y+221814
X+135510Y+223166
X+132213Y+221740
X+132244Y+219796
X+133640Y+218443
X+143731Y+216281
X+143861Y+218221
X+142581Y+219685
X+139178Y+218535
X+139048Y+216595
X+140328Y+215132
X+150653Y+221526
X+151040Y+223431
X+149967Y+225052
X+146441Y+224366
X+146054Y+222461
X+147127Y+220840
X+158693Y+225672
X+159331Y+227508
X+158484Y+229258
X+154898Y+229049
X+154260Y+227212
X+155107Y+225463
X+163951Y+220088
X+164739Y+221865
X+164039Y+223679
X+160448Y+223767
X+159660Y+221989
X+160360Y+220176
X+172423Y+222549
X+173441Y+224205
X+172989Y+226096
X+169442Y+226661
X+168424Y+225005
X+168876Y+223114
X+181549Y+223585
X+182778Y+225092
X+182583Y+227025
X+179143Y+228059
X+177913Y+226553
X+178109Y+224619
X+184709Y+216604
X+186059Y+218004
X+186023Y+219947
X+182680Y+221261
X+181331Y+219862
X+181366Y+217918
X+193639Y+215871
X+195163Y+217078
X+195387Y+219009
X+192250Y+220757
X+190726Y+219550
X+190501Y+217619
X+202674Y+213573
X+204345Y+214567
X+204825Y+216450
X+201948Y+218601
X+200276Y+217608
X+199797Y+215724
X+211548Y+209707
X+213337Y+210469
X+214064Y+212272
X+211499Y+214787
X+209711Y+214026
X+208984Y+212223
X+211603Y+202025
X+213449Y+202636
X+214322Y+204373
X+211974Y+207091
X+210128Y+206480
X+209255Y+204744
X+219354Y+196603
X+221264Y+196962
X+222361Y+198567
X+220397Y+201575
X+218486Y+201215
X+217389Y+199610
X+226397Y+189766
X+228338Y+189868
X+229639Y+191312
X+228094Y+194555
X+226152Y+194454
X+224851Y+193009
X+223929Y+182474
X+225872Y+182415
X+227288Y+183747
X+226015Y+187106
X+224072Y+187165
X+222656Y+185833
X+229344Y+174553
X+231262Y+174235
X+232843Y+175367
X+232030Y+178866
X+230112Y+179183
X+228531Y+178052
X+233593Y+165556
X+235451Y+164986
X+237169Y+165896
X+236829Y+169472
X+234971Y+170043
X+233253Y+169133
X+228858Y+159461
X+230663Y+158739
X+232450Y+159505
X+232407Y+163096
X+230602Y+163819
X+228815Y+163053
X+231168Y+150009
X+232860Y+149052
X+234733Y+149572
X+235169Y+153138
X+233477Y+154094
X+231604Y+153574
X+231999Y+139960
X+233549Y+138787
X+235475Y+139053
X+236382Y+142528
X+234833Y+143702
X+232907Y+143436
X+225507Y+135746
X+226954Y+134449
X+228895Y+134555
X+230087Y+137944
X+228639Y+139241
X+226698Y+139135
X+224327Y+125951
X+225589Y+124472
X+227527Y+124319
X+229160Y+127518
X+227898Y+128997
X+225960Y+129151
X+217047Y+123426
X+218182Y+121848
X+220101Y+121535
X+221992Y+124589
X+220857Y+126167
X+218939Y+126480
X+214005Y+114272
X+214920Y+112557
X+216780Y+111991
X+219062Y+114765
X+218147Y+116481
X+216287Y+117047
X+209399Y+105397
X+210077Y+103575
X+211844Y+102766
X+214476Y+105211
X+213798Y+107033
X+212030Y+107843
X+201673Y+105401
X+202198Y+103529
X+203893Y+102576
X+206717Y+104796
X+206192Y+106668
X+204497Y+107620
X+195518Y+097799
X+195788Y+095874
X+197341Y+094704
X+200436Y+096527
X+200165Y+098452
X+198613Y+099622
X+188049Y+099649
X+188160Y+097708
X+189611Y+096415
X+192846Y+097976
X+192735Y+099917
X+191284Y+101211
X+180674Y+093565
X+180525Y+091626
X+181790Y+090150
X+185204Y+091267
X+185353Y+093205
X+184088Y+094681
X+172123Y+088544
X+171717Y+086643
X+172774Y+085012
X+176306Y+085663
X+176713Y+087564
X+175655Y+089195
X+165658Y+092751
X+165096Y+090889
X+166015Y+089176
X+169589Y+089533
X+170151Y+091395
X+169232Y+093108
X+156483Y+089612
X+155678Y+087843
X+156360Y+086022
X+159950Y+085900
X+160755Y+087669
X+160073Y+089490
X+146582Y+087891
X+145549Y+086244
X+145982Y+084349
X+149523Y+083749
X+150557Y+085395
X+150124Y+087290
X+141844Y+094003
X+140677Y+092448
X+140953Y+090523
X+144433Y+089633
X+145599Y+091188
X+145323Y+093113
X+132016Y+094299
X+130653Y+092912
X+130669Y+090968
X+133999Y+089622
X+135362Y+091008
X+135346Y+092952
X+128895Y+101338
X+127422Y+100069
X+127278Y+098131
X+130485Y+096514
X+131958Y+097783
X+132102Y+099721
X+119537Y+103537
X+117908Y+102476
X+117507Y+100574
X+120470Y+098543
X+122099Y+099604
X+122500Y+101507
X+110316Y+107317
X+108560Y+106483
X+107909Y+104651
X+110575Y+102244
X+112330Y+103078
X+112982Y+104910
X+109674Y+115011
X+107856Y+114324
X+107055Y+112553
X+109513Y+109934
X+111332Y+110620
X+112133Y+112392
X+101579Y+120440
X+099685Y+120002
X+098655Y+118353
X+100742Y+115430
X+102636Y+115868
X+103666Y+117517
X+094173Y+127307
X+092237Y+127125
X+090997Y+125628
X+092675Y+122452
X+094611Y+122634
X+095851Y+124131
X+096100Y+134806
X+094156Y+134785
X+092797Y+133396
X+094207Y+130092
X+096151Y+130113
X+097511Y+131503
X+090353Y+142846
X+088424Y+143084
X+086891Y+141888
X+087848Y+138426
X+089778Y+138188
X+091310Y+139384
X+094003Y+149634
X+092100Y+150031
X+090473Y+148966
X+091142Y+145437
X+093045Y+145040
X+094671Y+146105
X+090066Y+158459
X+088233Y+159107
X+086479Y+158268
X+086671Y+154681
X+088504Y+154034
X+090258Y+154872
X+087474Y+168134
X+085743Y+169020
X+083893Y+168423
X+083605Y+164842
X+085336Y+163956
X+087186Y+164554
X+093165Y+173363
X+091513Y+174389
X+089620Y+173946
X+089037Y+170402
X+090689Y+169376
X+092582Y+169819
X+092579Y+183144
X+091079Y+184381
X+089144Y+184195
X+088094Y+180760
X+089594Y+179523
X+091529Y+179709
X+099331Y+186839
X+097938Y+188196
X+095994Y+188170
X+094663Y+184833
X+096056Y+183477
X+098000Y+183503
X+100673Y+196323
X+099474Y+197853
X+097544Y+198087
X+095780Y+194957
X+096980Y+193427
X+098910Y+193194
X+103603Y+205814
X+102618Y+207490
X+100736Y+207979
X+098571Y+205113
X+099556Y+203436
X+101438Y+202948
X+111211Y+207095
X+110368Y+208846
X+108533Y+209489
X+106139Y+206811
X+106982Y+205060
X+108817Y+204417
X+115875Y+215616
X+115273Y+217464
X+113540Y+218346
X+110810Y+216011
X+111412Y+214163
X+113145Y+213281
X+122031Y+223580
X+121681Y+225492
X+120081Y+226597
X+117064Y+224647
X+117414Y+222735
X+119014Y+221630
X+129659Y+222288
X+129468Y+224222
X+127965Y+225455
X+124798Y+223761
X+124989Y+221827
X+126492Y+220594
X+137125Y+228711
X+137194Y+230654
X+135869Y+232076
X+132504Y+230820
X+132435Y+228877
X+133760Y+227454
X+144191Y+225642
X+144420Y+227572
X+143216Y+229099
X+139759Y+228125
X+139530Y+226194
X+140733Y+224668
X+152596Y+230339
X+153081Y+232222
X+152092Y+233896
X+148535Y+233391
X+148051Y+231509
X+149040Y+229835
X+161969Y+233776
X+162700Y+235577
X+161943Y+237368
X+158351Y+237342
X+157620Y+235541
X+158377Y+233750
X+167651Y+228546
X+168529Y+230280
X+167922Y+232128
X+164340Y+232398
X+163463Y+230664
X+164069Y+228816
X+177307Y+230002
X+178407Y+231604
X+178053Y+233516
X+174539Y+234262
X+173438Y+232659
X+173793Y+230748
X+187422Y+229931
X+188727Y+231372
X+188630Y+233314
X+185247Y+234522
X+183942Y+233081
X+184039Y+231139
X+191081Y+223103
X+192500Y+224432
X+192564Y+226375
X+189293Y+227858
X+187874Y+226529
X+187810Y+224586
X+200764Y+221044
X+202347Y+222171
X+202670Y+224088
X+199625Y+225994
X+198042Y+224867
X+197719Y+222950
X+210336Y+217385
X+212056Y+218291
X+212631Y+220148
X+209868Y+222443
X+208148Y+221537
X+207573Y+219680
X+219539Y+212146
X+221364Y+212815
X+222182Y+214578
X+219749Y+217221
X+217924Y+216553
X+217106Y+214789
X+220003Y+204307
X+221878Y+204823
X+222838Y+206513
X+220632Y+209348
X+218758Y+208832
X+217797Y+207142
X+228117Y+205382
X+230015Y+205801
X+231061Y+207440
X+229002Y+210384
X+227104Y+209965
X+226058Y+208326
X+227788Y+197443
X+229714Y+197704
X+230892Y+199251
X+229083Y+202355
X+227157Y+202093
X+225980Y+200546
X+234665Y+189222
X+236608Y+189224
X+237982Y+190600
X+236603Y+193917
X+234659Y+193915
X+233286Y+192539
X+232501Y+181638
X+234438Y+181479
X+235920Y+182738
X+234821Y+186157
X+232883Y+186316
X+231401Y+185058
X+237455Y+172370
X+239354Y+171955
X+240990Y+173004
X+240357Y+176540
X+238457Y+176955
X+236821Y+175906
X+241074Y+162147
X+242901Y+161482
X+244663Y+162304
X+244506Y+165892
X+242679Y+166557
X+240917Y+165736
X+236499Y+155678
X+238265Y+154865
X+240089Y+155538
X+240229Y+159128
X+238463Y+159941
X+236640Y+159268
X+237921Y+145136
X+239563Y+144095
X+241460Y+144519
X+242078Y+148057
X+240436Y+149099
X+238539Y+148675
X+237748Y+134166
X+239236Y+132915
X+241173Y+133083
X+242257Y+136507
X+240769Y+137758
X+238832Y+137591
X+231257Y+129559
X+232636Y+128189
X+234580Y+128196
X+235943Y+131520
X+234564Y+132890
X+232620Y+132883
X+228881Y+119059
X+230066Y+117518
X+231993Y+117265
X+233787Y+120377
X+232603Y+121919
X+230675Y+122171
X+221548Y+116122
X+222601Y+114488
X+224501Y+114077
X+226546Y+117031
X+225493Y+118665
X+223592Y+119075
X+217163Y+106519
X+217988Y+104759
X+219817Y+104098
X+222237Y+106753
X+221411Y+108513
X+219583Y+109173
X+211205Y+097400
X+211789Y+095545
X+213513Y+094647
X+216266Y+096955
X+215682Y+098809
X+213958Y+099707
X+203276Y+097057
X+203705Y+095161
X+205349Y+094124
X+208283Y+096196
X+207854Y+098093
X+206210Y+099130
X+195723Y+089499
X+195895Y+087563
X+197385Y+086315
X+200570Y+087978
X+200397Y+089914
X+198907Y+091162
X+187992Y+091015
X+188003Y+089071
X+189386Y+087704
X+192697Y+089099
X+192685Y+091043
X+191302Y+092409
X+179230Y+085272
X+178982Y+083344
X+180170Y+081805
X+183637Y+082746
X+183885Y+084674
X+182697Y+086212
X+169398Y+080771
X+168895Y+078893
X+169868Y+077210
X+173429Y+077679
X+173932Y+079557
X+172959Y+081241
X+162574Y+084779
X+161918Y+082949
X+162748Y+081191
X+166336Y+081365
X+166992Y+083195
X+166162Y+084953
X+152232Y+082431
X+151338Y+080705
X+151926Y+078852
X+155505Y+078546
X+156399Y+080272
X+155811Y+082125
X+141322Y+081631
X+140205Y+080039
X+140541Y+078124
X+144047Y+077344
X+145164Y+078936
X+144828Y+080850
X+136189Y+087703
X+134945Y+086209
X+135122Y+084273
X+138552Y+083206
X+139796Y+084700
X+139619Y+086636
X+125551Y+089130
X+124119Y+087815
X+124036Y+085873
X+127293Y+084358
X+128725Y+085673
X+128807Y+087615
X+122010Y+096182
X+120474Y+094990
X+120231Y+093062
X+123352Y+091283
X+124888Y+092475
X+125131Y+094403
X+112085Y+099683
X+110404Y+098707
X+109906Y+096828
X+112761Y+094649
X+114442Y+095625
X+114940Y+097504
X+102500Y+104791
X+100704Y+104048
X+099959Y+102252
X+102499Y+099711
X+104295Y+100455
X+105039Y+102251
X+101491Y+112654
X+099640Y+112062
X+098750Y+110333
X+101071Y+107592
X+102922Y+108184
X+103812Y+109913
X+093315Y+119484
X+091401Y+119144
X+090288Y+117549
X+092223Y+114523
X+094137Y+114864
X+095250Y+116458
X+086028Y+127707
X+084085Y+127624
X+082770Y+126193
X+084284Y+122935
X+086226Y+123018
X+087542Y+124450
X+087692Y+135496
X+085749Y+135575
X+084320Y+134256
X+085560Y+130885
X+087503Y+130807
X+088932Y+132125
X+082350Y+144861
X+080435Y+145198
X+078843Y+144082
X+079623Y+140575
X+081537Y+140239
X+083129Y+141355
X+085764Y+151990
X+083884Y+152484
X+082205Y+151503
X+082693Y+147944
X+084573Y+147451
X+086252Y+148431
X+082514Y+162052
X+080716Y+162791
X+078922Y+162043
X+078931Y+158451
X+080728Y+157711
X+082523Y+158459
X+080752Y+172817
X+079069Y+173790
X+077191Y+173287
X+076720Y+169726
X+078404Y+168753
X+080282Y+169255
X+086363Y+178437
X+084766Y+179545
X+082853Y+179200
X+082090Y+175690
X+083687Y+174581
X+085600Y+174927
X+086836Y+189128
X+085401Y+190440
X+083459Y+190352
X+082235Y+186976
X+083670Y+185664
X+085612Y+185751
X+093558Y+193246
X+092236Y+194671
X+090293Y+194745
X+088794Y+191480
X+090116Y+190055
X+092058Y+189981
X+096152Y+203412
X+095032Y+205001
X+093117Y+205333
X+091196Y+202298
X+092316Y+200709
X+094231Y+200377
X+100375Y+213384
X+099477Y+215108
X+097623Y+215693
X+095315Y+212941
X+096212Y+211217
X+098067Y+210632
X+108116Y+215051
X+107364Y+216843
X+105564Y+217579
X+103036Y+215027
X+103788Y+213234
X+105588Y+212499
X+114172Y+223777
X+113666Y+225653
X+111980Y+226622
X+109134Y+224430
X+109641Y+222553
X+111327Y+221584
X+121693Y+231742
X+121441Y+233670
X+119900Y+234855
X+116788Y+233062
X+117040Y+231134
X+118581Y+229950
X+129586Y+230743
X+129494Y+232685
X+128056Y+233993
X+124806Y+232463
X+124898Y+230522
X+126336Y+229213
X+138412Y+236879
X+138580Y+238816
X+137329Y+240304
X+133904Y+239221
X+133737Y+237285
X+134987Y+235796
X+145795Y+234081
X+146122Y+235997
X+144999Y+237583
X+141496Y+236787
X+141169Y+234871
X+142293Y+233285
X+155497Y+238202
X+156077Y+240057
X+155175Y+241780
X+151597Y+241457
X+151018Y+239602
X+151920Y+237880
X+166032Y+240906
X+166855Y+242668
X+166190Y+244495
X+162602Y+244652
X+161779Y+242891
X+162444Y+241064
X+172099Y+235796
X+173064Y+237484
X+172553Y+239359
X+168989Y+239813
X+168025Y+238125
X+168536Y+236249
X+182758Y+236275
X+183939Y+237819
X+183683Y+239746
X+180211Y+240670
X+179030Y+239126
X+179287Y+237199
X+193700Y+235125
X+195077Y+236497
X+195080Y+238441
X+191763Y+239820
X+190386Y+238448
X+190384Y+236504
X+197747Y+228259
X+199233Y+229513
X+199396Y+231450
X+196204Y+233098
X+194719Y+231844
X+194556Y+229907
X+204670Y+232295
X+206217Y+233472
X+206479Y+235398
X+203376Y+237207
X+201829Y+236030
X+201567Y+234104
X+208025Y+224949
X+209664Y+225994
X+210084Y+227892
X+207141Y+229951
X+205502Y+228906
X+205082Y+227008
X+215404Y+227774
X+217095Y+228734
X+217611Y+230608
X+214777Y+232815
X+213086Y+231855
X+212570Y+229981
X+217994Y+220005
X+219758Y+220822
X+220427Y+222647
X+217785Y+225081
X+216021Y+224263
X+215352Y+222438
X+227396Y+213468
X+229253Y+214043
X+230160Y+215763
X+227866Y+218527
X+226008Y+217952
X+225102Y+216232
X+235981Y+205420
X+237898Y+205743
X+239026Y+207326
X+237121Y+210371
X+235204Y+210049
X+234076Y+208466
X+235827Y+197188
X+237764Y+197350
X+239019Y+198835
X+237372Y+202027
X+235434Y+201864
X+234180Y+200380
X+242442Y+187692
X+244383Y+187595
X+245825Y+188899
X+244618Y+192282
X+242676Y+192380
X+241235Y+191075
X+240414Y+179786
X+242341Y+179529
X+243885Y+180710
X+242962Y+184181
X+241035Y+184438
X+239491Y+183257
X+244841Y+169308
X+246717Y+168796
X+248405Y+169761
X+247953Y+173324
X+246077Y+173836
X+244389Y+172872
X+247778Y+157990
X+249568Y+157233
X+251369Y+157964
X+251396Y+161556
X+249606Y+162313
X+247804Y+161582
X+243203Y+151177
X+244925Y+150275
X+246781Y+150854
X+247104Y+154432
X+245382Y+155334
X+243526Y+154755
X+243718Y+139692
X+245304Y+138568
X+247220Y+138895
X+248018Y+142397
X+246432Y+143521
X+244515Y+143195
X+242531Y+127940
X+243954Y+126615
X+245896Y+126683
X+247154Y+130048
X+245732Y+131373
X+243789Y+131305
X+235908Y+123020
X+237215Y+121581
X+239157Y+121488
X+240688Y+124738
X+239381Y+126177
X+237439Y+126269
X+232364Y+111956
X+233468Y+110356
X+235381Y+110005
X+237331Y+113021
X+236227Y+114621
X+234315Y+114972
X+224853Y+108720
X+225822Y+107034
X+227698Y+106527
X+229891Y+109372
X+228923Y+111057
X+227046Y+111565
X+219191Y+098802
X+219926Y+097002
X+221718Y+096249
X+224271Y+098776
X+223536Y+100576
X+221744Y+101329
X+211953Y+089562
X+212441Y+087680
X+214117Y+086695
X+216984Y+088859
X+216496Y+090741
X+214820Y+091726
X+203748Y+089016
X+204079Y+087100
X+205668Y+085980
X+208704Y+087900
X+208372Y+089816
X+206784Y+090936
X+194899Y+081605
X+194972Y+079663
X+196397Y+078341
X+199662Y+079839
X+199589Y+081782
X+198163Y+083104
X+186860Y+082953
X+186772Y+081011
X+188083Y+079575
X+191461Y+080799
X+191549Y+082741
X+190237Y+084176
X+176843Y+077628
X+176497Y+075715
X+177605Y+074118
X+181116Y+074880
X+181461Y+076793
X+180353Y+078391
X+165858Y+073712
X+165260Y+071862
X+166145Y+070131
X+169726Y+070419
X+170324Y+072269
X+169438Y+073999
X+158690Y+077685
X+157942Y+075891
X+158681Y+074093
X+162273Y+074084
X+163022Y+075878
X+162282Y+077676
X+147326Y+076159
X+146345Y+074480
X+146838Y+072600
X+150397Y+072112
X+151378Y+073790
X+150885Y+075671
X+135545Y+076301
X+134349Y+074768
X+134586Y+072839
X+138049Y+071880
X+139245Y+073413
X+139007Y+075342
X+130086Y+082473
X+128768Y+081045
X+128845Y+079102
X+132216Y+077861
X+133535Y+079290
X+133457Y+081232
X+118781Y+085016
X+117284Y+083776
X+117102Y+081841
X+120277Y+080162
X+121775Y+081401
X+121957Y+083337
X+114924Y+092215
X+113330Y+091103
X+112988Y+089190
X+116014Y+087254
X+117609Y+088366
X+117950Y+090280
X+104571Y+096964
X+102843Y+096074
X+102249Y+094223
X+104990Y+091901
X+106719Y+092791
X+107312Y+094642
X+094752Y+103339
X+092920Y+102688
X+092085Y+100933
X+094492Y+098266
X+096324Y+098917
X+097159Y+100673
X+093512Y+111457
X+091633Y+110960
X+090656Y+109279
X+092834Y+106423
X+094713Y+106920
X+095690Y+108601
X+085368Y+119594
X+083440Y+119351
X+082247Y+117816
X+084025Y+114694
X+085954Y+114937
X+087146Y+116472
X+078301Y+129076
X+076357Y+129093
X+074971Y+127731
X+076316Y+124400
X+078260Y+124383
X+079647Y+125746
X+079853Y+137186
X+077917Y+137364
X+076423Y+136120
X+077489Y+132690
X+079425Y+132513
X+080919Y+133756
X+074992Y+147755
X+073097Y+148188
X+071450Y+147155
X+072049Y+143613
X+073944Y+143180
X+075591Y+144213
X+078337Y+155223
X+076484Y+155812
X+074758Y+154919
X+075063Y+151340
X+076916Y+150751
X+078642Y+151644
X+075816Y+166378
X+074059Y+167208
X+072228Y+166553
X+072053Y+162965
X+073811Y+162135
X+075641Y+162790
X+074917Y+178096
X+073286Y+179154
X+071385Y+178748
X+070733Y+175216
X+072364Y+174158
X+074265Y+174564
X+080595Y+184052
X+079057Y+185240
X+077129Y+184993
X+076187Y+181526
X+077726Y+180338
X+079654Y+180585
X+082123Y+195507
X+080757Y+196890
X+078813Y+196903
X+077418Y+193593
X+078784Y+192209
X+080728Y+192197
X+088960Y+199956
X+087713Y+201447
X+085776Y+201620
X+084112Y+198436
X+085360Y+196945
X+087296Y+196772
X+092761Y+210660
X+091724Y+212304
X+089828Y+212734
X+087754Y+209800
X+088792Y+208156
X+090688Y+207727
X+098229Y+220979
X+097420Y+222747
X+095598Y+223425
X+093152Y+220794
X+093961Y+219026
X+095783Y+218348
X+106201Y+222901
X+105541Y+224730
X+103781Y+225556
X+101126Y+223137
X+101786Y+221308
X+103546Y+220482
X+113564Y+231711
X+113154Y+233611
X+111520Y+234665
X+108566Y+232621
X+108976Y+230720
X+110610Y+229667
X+122362Y+239570
X+122209Y+241508
X+120731Y+242770
X+117530Y+241138
X+117684Y+239200
X+119162Y+237938
X+130564Y+238715
X+130571Y+240659
X+129202Y+242038
X+125878Y+240676
X+125870Y+238732
X+127240Y+237353
X+140634Y+244478
X+140900Y+246403
X+139727Y+247953
X+136251Y+247047
X+135985Y+245121
X+137158Y+243571
X+148349Y+241782
X+148774Y+243679
X+147733Y+245321
X+144194Y+244704
X+143769Y+242807
X+144811Y+241166
X+159207Y+245272
X+159881Y+247096
X+159068Y+248862
X+155479Y+248723
X+154805Y+246899
X+155618Y+245133
X+170770Y+247200
X+171681Y+248917
X+171111Y+250776
X+167535Y+251117
X+166624Y+249399
X+167194Y+247541
X+177179Y+242056
X+178228Y+243692
X+177813Y+245592
X+174278Y+246226
X+173228Y+244590
X+173643Y+242691
X+182801Y+247449
X+183933Y+249029
X+183616Y+250947
X+180117Y+251762
X+178985Y+250181
X+179303Y+248263
X+188694Y+241550
X+189953Y+243032
X+189795Y+244970
X+186376Y+246070
X+185117Y+244588
X+185275Y+242651
X+195046Y+245937
X+196378Y+247353
X+196320Y+249296
X+192961Y+250570
X+191629Y+249154
X+191687Y+247211
X+200325Y+239323
X+201769Y+240624
X+201871Y+242565
X+198629Y+244112
X+197185Y+242811
X+197083Y+240870
X+207240Y+242624
X+208749Y+243849
X+208950Y+245783
X+205791Y+247493
X+204282Y+246268
X+204081Y+244334
X+211806Y+235348
X+213411Y+236444
X+213771Y+238355
X+210764Y+240320
X+209159Y+239223
X+208799Y+237313
X+222872Y+229637
X+224609Y+230510
X+225220Y+232355
X+222502Y+234704
X+220765Y+233831
X+220153Y+231986
X+225641Y+221590
X+227445Y+222316
X+228206Y+224105
X+225692Y+226670
X+223888Y+225943
X+223127Y+224155
X+233257Y+222245
X+235095Y+222878
X+235947Y+224625
X+233567Y+227315
X+231729Y+226682
X+230877Y+224935
X+235123Y+213809
X+237008Y+214289
X+238001Y+215960
X+235851Y+218837
X+233967Y+218358
X+232973Y+216687
X+243605Y+204538
X+245536Y+204762
X+246743Y+206285
X+244996Y+209424
X+243065Y+209200
X+241858Y+207677
X+243512Y+195979
X+245455Y+196042
X+246784Y+197461
X+245302Y+200733
X+243359Y+200670
X+242030Y+199251
X+249771Y+185297
X+251705Y+185100
X+253211Y+186329
X+252178Y+189770
X+250244Y+189966
X+248738Y+188737
X+247754Y+177059
X+249665Y+176704
X+251268Y+177804
X+250523Y+181318
X+248612Y+181674
X+247009Y+180573
X+254562Y+173559
X+256453Y+173107
X+258110Y+174124
X+257545Y+177671
X+255654Y+178123
X+253997Y+177106
X+251583Y+165482
X+253430Y+164875
X+255165Y+165752
X+254895Y+169334
X+253048Y+169941
X+251313Y+169064
X+253776Y+153182
X+255525Y+152334
X+257361Y+152971
X+257572Y+156557
X+255822Y+157405
X+253986Y+156768
X+249085Y+146058
X+250759Y+145069
X+252642Y+145552
X+253147Y+149109
X+251474Y+150098
X+249591Y+149614
X+254215Y+140399
X+255836Y+139326
X+257741Y+139713
X+258427Y+143239
X+256806Y+144312
X+254901Y+143925
X+248662Y+133756
X+250189Y+132552
X+252119Y+132781
X+253094Y+136238
X+251568Y+137442
X+249637Y+137213
X+246442Y+121345
X+247795Y+119949
X+249739Y+119918
X+251166Y+123214
X+249814Y+124610
X+247870Y+124642
X+239593Y+116181
X+240826Y+114677
X+242761Y+114486
X+244455Y+117653
X+243223Y+119156
X+241288Y+119348
X+234893Y+104681
X+235914Y+103026
X+237806Y+102579
X+239908Y+105492
X+238887Y+107146
X+236995Y+107594
X+227122Y+101238
X+228003Y+099506
X+229852Y+098903
X+232187Y+101632
X+231306Y+103365
X+229458Y+103968
X+228459Y+093708
X+229251Y+091932
X+231066Y+091236
X+233537Y+093843
X+232746Y+095618
X+230931Y+096314
X+220226Y+091130
X+220868Y+089295
X+222620Y+088451
X+225298Y+090845
X+224656Y+092680
X+222905Y+093523
X+211758Y+081884
X+212150Y+079980
X+213774Y+078911
X+216747Y+080926
X+216355Y+082830
X+214732Y+083899
X+203235Y+081246
X+203468Y+079316
X+204998Y+078116
X+208127Y+079879
X+207894Y+081809
X+206365Y+083008
X+193170Y+074085
X+193144Y+072141
X+194500Y+070748
X+197837Y+072078
X+197863Y+074022
X+196507Y+075415
X+184803Y+075389
X+184616Y+073454
X+185852Y+071954
X+189287Y+073003
X+189474Y+074938
X+188238Y+076439
X+181926Y+068290
X+181640Y+066367
X+182798Y+064805
X+186283Y+065678
X+186568Y+067601
X+185410Y+069162
X+173636Y+070564
X+173193Y+068671
X+174218Y+067019
X+177762Y+067602
X+178206Y+069494
X+177181Y+071146
X+161604Y+067301
X+160913Y+065485
X+161708Y+063711
X+165299Y+063815
X+165991Y+065632
X+165195Y+067406
X+154116Y+071360
X+153277Y+069606
X+153924Y+067773
X+157510Y+067581
X+158350Y+069334
X+157703Y+071167
X+148938Y+065740
X+148010Y+064032
X+148562Y+062168
X+152135Y+061792
X+153062Y+063501
X+152510Y+065365
X+141854Y+070697
X+140788Y+069071
X+141185Y+067168
X+144714Y+066498
X+145779Y+068124
X+145383Y+070028
X+129324Y+071810
X+128051Y+070341
X+128190Y+068402
X+131598Y+067268
X+132871Y+068737
X+132732Y+070677
X+123600Y+078183
X+122211Y+076824
X+122189Y+074880
X+125492Y+073469
X+126882Y+074828
X+126904Y+076772
X+111758Y+081842
X+110199Y+080680
X+109919Y+078757
X+113004Y+076917
X+114563Y+078079
X+114843Y+080003
X+107670Y+089279
X+106021Y+088250
X+105582Y+086356
X+108505Y+084268
X+110155Y+085298
X+110593Y+087191
X+100285Y+087271
X+098586Y+086327
X+098051Y+084458
X+100864Y+082224
X+102563Y+083167
X+103098Y+085036
X+097017Y+095242
X+095245Y+094442
X+094558Y+092623
X+097177Y+090164
X+098949Y+090964
X+099636Y+092783
X+087083Y+102843
X+085220Y+102287
X+084297Y+100576
X+086564Y+097790
X+088427Y+098346
X+089350Y+100057
X+085720Y+111269
X+083818Y+110868
X+082756Y+109239
X+084786Y+106275
X+086688Y+106676
X+087750Y+108305
X+078118Y+111985
X+076198Y+111682
X+075055Y+110110
X+076930Y+107046
X+078850Y+107349
X+079994Y+108921
X+077717Y+120640
X+075779Y+120496
X+074509Y+119024
X+076126Y+115816
X+078064Y+115960
X+079334Y+117432
X+070968Y+131306
X+069027Y+131422
X+067573Y+130132
X+068747Y+126737
X+070687Y+126621
X+072142Y+127911
X+072522Y+139748
X+070598Y+140024
X+069042Y+138858
X+069932Y+135378
X+071856Y+135102
X+073412Y+136267
X+068220Y+151418
X+066350Y+151948
X+064652Y+151000
X+065070Y+147432
X+066940Y+146902
X+068638Y+147850
X+071619Y+159214
X+069799Y+159897
X+068029Y+159092
X+068151Y+155502
X+069971Y+154819
X+071741Y+155624
X+065554Y+163869
X+063771Y+164644
X+061962Y+163931
X+061900Y+160340
X+063683Y+159565
X+065492Y+160278
X+069879Y+171341
X+068166Y+172260
X+066305Y+171699
X+065947Y+168125
X+067660Y+167206
X+069521Y+167767
X+069883Y+183892
X+068308Y+185032
X+066388Y+184724
X+065557Y+181229
X+067132Y+180090
X+069052Y+180398
X+075735Y+190131
X+074259Y+191396
X+072321Y+191248
X+071204Y+187834
X+072680Y+186568
X+074618Y+186717
X+078328Y+202222
X+077034Y+203673
X+075093Y+203785
X+073531Y+200550
X+074824Y+199099
X+076765Y+198988
X+085379Y+206924
X+084209Y+208477
X+082284Y+208748
X+080460Y+205653
X+081630Y+204100
X+083554Y+203829
X+082714Y+214102
X+081625Y+215713
X+079716Y+216082
X+077737Y+213085
X+078825Y+211475
X+080734Y+211105
X+090365Y+218035
X+089413Y+219730
X+087541Y+220256
X+085321Y+217432
X+086272Y+215737
X+088144Y+215212
X+097045Y+228578
X+096327Y+230384
X+094542Y+231155
X+091965Y+228653
X+092683Y+226846
X+094467Y+226075
X+105311Y+230653
X+104746Y+232512
X+103030Y+233428
X+100255Y+231147
X+100821Y+229287
X+102536Y+228372
X+105342Y+238292
X+104872Y+240178
X+103206Y+241180
X+100318Y+239044
X+100788Y+237157
X+102454Y+236156
X+113919Y+239431
X+113606Y+241350
X+112028Y+242485
X+108974Y+240595
X+109287Y+238676
X+110865Y+237541
X+123925Y+247079
X+123871Y+249022
X+122459Y+250358
X+119179Y+248891
X+119233Y+246948
X+120646Y+245612
X+132457Y+246253
X+132564Y+248194
X+131266Y+249642
X+127877Y+248451
X+127771Y+246510
X+129068Y+245062
X+143676Y+251556
X+144040Y+253466
X+142948Y+255074
X+139430Y+254346
X+139066Y+252436
X+140158Y+250828
X+151722Y+248839
X+152243Y+250712
X+151287Y+252405
X+147722Y+251970
X+147201Y+250097
X+148157Y+248404
X+155817Y+255302
X+156433Y+257146
X+155565Y+258885
X+151982Y+258633
X+151366Y+256789
X+152234Y+255050
X+163620Y+251637
X+164387Y+253424
X+163665Y+255229
X+160073Y+255273
X+159307Y+253486
X+160029Y+251681
X+176095Y+252738
X+177092Y+254407
X+176618Y+256292
X+173064Y+256815
X+172066Y+255146
X+172541Y+253261
X+181934Y+257567
X+183015Y+259183
X+182637Y+261090
X+179115Y+261793
X+178034Y+260178
X+178411Y+258271
X+188894Y+252047
X+190105Y+253568
X+189886Y+255499
X+186433Y+256491
X+185223Y+254971
X+185442Y+253039
X+195394Y+255898
X+196681Y+257355
X+196561Y+259295
X+193163Y+260462
X+191876Y+259005
X+191997Y+257065
X+201751Y+249505
X+203155Y+250850
X+203195Y+252794
X+199906Y+254237
X+198503Y+252892
X+198462Y+250948
X+214394Y+245092
X+215964Y+246238
X+216263Y+248159
X+213195Y+250028
X+211625Y+248882
X+211326Y+246961
X+219112Y+237506
X+220771Y+238518
X+221228Y+240408
X+218325Y+242524
X+216666Y+241511
X+216209Y+239622
X+226543Y+238830
X+228252Y+239757
X+228805Y+241621
X+226014Y+243882
X+224305Y+242955
X+223752Y+241091
X+230391Y+230620
X+232171Y+231403
X+232876Y+233214
X+230281Y+235699
X+228502Y+234916
X+227797Y+233104
X+240814Y+222045
X+242682Y+222583
X+243622Y+224285
X+241382Y+227093
X+239514Y+226555
X+238574Y+224853
X+242707Y+213262
X+244613Y+213644
X+245691Y+215263
X+243690Y+218246
X+241784Y+217864
X+240707Y+216245
X+250981Y+202819
X+252921Y+202944
X+254204Y+204404
X+252620Y+207627
X+250679Y+207503
X+249396Y+206043
X+250855Y+193918
X+252799Y+193882
X+254199Y+195231
X+252886Y+198574
X+250942Y+198610
X+249542Y+197261
X+257855Y+191081
X+259794Y+190946
X+261261Y+192222
X+260120Y+195628
X+258181Y+195763
X+256714Y+194488
X+256667Y+182124
X+258589Y+181830
X+260156Y+182980
X+259300Y+186469
X+257378Y+186763
X+255811Y+185613
X+260858Y+169365
X+262723Y+168817
X+264429Y+169748
X+264046Y+173319
X+262181Y+173868
X+260475Y+172936
X+257720Y+160980
X+259534Y+160279
X+261311Y+161066
X+261225Y+164657
X+259411Y+165358
X+257634Y+164571
X+263276Y+155872
X+265051Y+155080
X+266866Y+155775
X+266963Y+159366
X+265188Y+160158
X+263372Y+159463
X+259110Y+147797
X+260814Y+146861
X+262681Y+147404
X+263074Y+150974
X+261370Y+151910
X+259503Y+151367
X+258633Y+134269
X+260197Y+133114
X+262119Y+133403
X+262985Y+136889
X+261421Y+138044
X+259499Y+137755
X+252818Y+127395
X+254281Y+126115
X+256221Y+126244
X+257371Y+129647
X+255908Y+130927
X+253969Y+130798
X+249542Y+114439
X+250821Y+112976
X+252761Y+112845
X+254355Y+116064
X+253076Y+117528
X+251136Y+117658
X+242399Y+109095
X+243553Y+107530
X+245476Y+107240
X+247330Y+110317
X+246176Y+111881
X+244253Y+112171
X+244384Y+101810
X+245456Y+100189
X+247361Y+099801
X+249370Y+102779
X+248297Y+104400
X+246392Y+104788
X+236546Y+097276
X+237481Y+095572
X+239348Y+095029
X+241596Y+097830
X+240660Y+099534
X+238794Y+100078
X+228937Y+086161
X+229636Y+084348
X+231414Y+083560
X+234015Y+086037
X+233316Y+087850
X+231538Y+088638
X+220361Y+083524
X+220909Y+081659
X+222615Y+080727
X+225412Y+082981
X+224864Y+084846
X+223158Y+085778
X+210707Y+074382
X+211001Y+072460
X+212568Y+071309
X+215640Y+073170
X+215346Y+075091
X+213780Y+076242
X+201840Y+073743
X+201974Y+071804
X+203441Y+070527
X+206656Y+072128
X+206522Y+074067
X+205056Y+075344
X+199641Y+066516
X+199676Y+064573
X+201076Y+063223
X+204369Y+064657
X+204334Y+066601
X+202935Y+067951
X+190628Y+066930
X+190503Y+064989
X+191786Y+063529
X+195186Y+064686
X+195312Y+066626
X+194029Y+068087
X+178311Y+061642
X+177928Y+059736
X+179005Y+058118
X+182529Y+058811
X+182913Y+060717
X+181836Y+062336
X+169700Y+064044
X+169161Y+062176
X+170100Y+060475
X+173670Y+060875
X+174209Y+062743
X+173270Y+064445
X+165109Y+058053
X+164475Y+056215
X+165327Y+054468
X+168912Y+054685
X+169546Y+056523
X+168695Y+058271
X+156718Y+061504
X+155934Y+059725
X+156638Y+057913
X+160229Y+057833
X+161013Y+059613
X+160309Y+061425
X+143226Y+060790
X+142213Y+059131
X+142669Y+057241
X+146217Y+056684
X+147231Y+058343
X+146775Y+060232
X+135888Y+065985
X+134741Y+064416
X+135040Y+062495
X+138530Y+061646
X+139677Y+063216
X+139379Y+065137
X+122721Y+068103
X+121375Y+066701
X+121415Y+064757
X+124761Y+063451
X+126107Y+064853
X+126067Y+066797
X+116791Y+074751
X+115334Y+073465
X+115213Y+071525
X+118440Y+069947
X+119897Y+071233
X+120018Y+073173
X+109712Y+072123
X+108191Y+070912
X+107971Y+068981
X+111113Y+067240
X+112634Y+068450
X+112854Y+070382
X+104529Y+079531
X+102913Y+078450
X+102534Y+076543
X+105522Y+074549
X+107138Y+075630
X+107516Y+077537
X+092810Y+086119
X+091065Y+085263
X+090435Y+083424
X+093130Y+081049
X+094876Y+081905
X+095505Y+083744
X+089451Y+094425
X+087640Y+093716
X+086861Y+091935
X+089351Y+089346
X+091161Y+090054
X+091940Y+091835
X+081905Y+094446
X+080061Y+093831
X+079192Y+092092
X+081546Y+089379
X+083390Y+089994
X+084259Y+091733
X+079514Y+103218
X+077625Y+102757
X+076616Y+101096
X+078737Y+098198
X+080626Y+098659
X+081636Y+100320
X+070722Y+113529
X+068789Y+113324
X+067567Y+111812
X+069283Y+108657
X+071217Y+108861
X+072439Y+110373
X+070360Y+122531
X+068416Y+122487
X+067073Y+121081
X+068523Y+117795
X+070467Y+117839
X+071810Y+119245
X+064021Y+134311
X+062089Y+134526
X+060571Y+133312
X+061570Y+129862
X+063502Y+129646
X+065020Y+130861
X+065672Y+143085
X+063764Y+143458
X+062151Y+142374
X+062862Y+138853
X+064770Y+138479
X+066383Y+139563
X+059293Y+147122
X+057407Y+147592
X+055740Y+146592
X+056270Y+143039
X+058157Y+142568
X+059823Y+143569
X+062005Y+155767
X+060165Y+156392
X+058421Y+155532
X+058656Y+151947
X+060497Y+151323
X+062240Y+152182
X+060110Y+169116
X+058369Y+169981
X+056527Y+169361
X+056282Y+165778
X+058023Y+164913
X+059865Y+165533
X+064650Y+176863
X+062986Y+177868
X+061098Y+177403
X+060558Y+173852
X+062222Y+172846
X+064109Y+173311
X+065598Y+190138
X+064083Y+191357
X+062151Y+191147
X+061142Y+187700
X+062656Y+186481
X+064589Y+186691
X+071704Y+196608
X+070295Y+197947
X+068352Y+197898
X+067061Y+194546
X+068471Y+193206
X+070414Y+193256
X+068451Y+203425
X+067112Y+204834
X+065169Y+204885
X+063710Y+201602
X+065048Y+200193
X+066992Y+200143
X+075377Y+209218
X+074159Y+210733
X+072226Y+210943
X+070501Y+207793
X+071719Y+206278
X+073651Y+206067
X+080897Y+221447
X+079892Y+223111
X+078004Y+223577
X+075874Y+220685
X+076879Y+219020
X+078766Y+218554
X+088872Y+225501
X+088007Y+227243
X+086165Y+227863
X+083803Y+225157
X+084667Y+223415
X+086510Y+222795
X+088218Y+233020
X+087444Y+234803
X+085635Y+235517
X+083138Y+232935
X+083912Y+231151
X+085721Y+230438
X+096740Y+236152
X+096116Y+237994
X+094373Y+238854
X+091671Y+236487
X+092295Y+234646
X+094038Y+233785
X+106218Y+245799
X+105845Y+247707
X+104232Y+248792
X+101239Y+246806
X+101612Y+244898
X+103225Y+243813
X+115144Y+246932
X+114929Y+248864
X+113412Y+250079
X+110264Y+248347
X+110479Y+246415
X+111996Y+245200
X+126297Y+254268
X+126342Y+256212
X+125000Y+257618
X+121650Y+256321
X+121605Y+254378
X+122947Y+252971
X+135167Y+253378
X+135373Y+255311
X+134151Y+256823
X+130706Y+255807
X+130500Y+253875
X+131722Y+252362
X+138618Y+260094
X+138922Y+262014
X+137779Y+263587
X+134287Y+262748
X+133982Y+260828
X+135125Y+259256
X+147452Y+258138
X+147913Y+260026
X+146904Y+261688
X+143354Y+261140
X+142893Y+259252
X+143902Y+257590
X+160557Y+261195
X+161266Y+263005
X+160488Y+264786
X+156896Y+264717
X+156187Y+262907
X+156965Y+261125
X+168653Y+257343
X+169509Y+259089
X+168881Y+260928
X+165296Y+261156
X+164440Y+259410
X+165068Y+257571
X+174236Y+262419
X+175181Y+264118
X+174647Y+265987
X+171078Y+266397
X+170134Y+264698
X+170667Y+262829
X+180309Y+266877
X+181339Y+268526
X+180901Y+270420
X+177358Y+271012
X+176328Y+269363
X+176766Y+267469
X+188225Y+261716
X+189387Y+263274
X+189107Y+265198
X+185625Y+266080
X+184463Y+264522
X+184743Y+262598
X+194910Y+265200
X+196151Y+266697
X+195970Y+268633
X+192537Y+269692
X+191297Y+268195
X+191478Y+266260
X+202243Y+259031
X+203603Y+260420
X+203583Y+262364
X+200249Y+263703
X+198889Y+262314
X+198910Y+260370
X+208755Y+252298
X+210225Y+253570
X+210365Y+255510
X+207154Y+257119
X+205684Y+255847
X+205544Y+253908
X+216006Y+254350
X+217539Y+255546
X+217778Y+257475
X+214653Y+259246
X+213120Y+258051
X+212881Y+256121
X+221737Y+246773
X+223364Y+247838
X+223761Y+249741
X+220793Y+251764
X+219166Y+250699
X+218769Y+248796
X+229223Y+247700
X+230902Y+248681
X+231396Y+250561
X+228535Y+252734
X+226856Y+251753
X+226362Y+249873
X+234057Y+239367
X+235811Y+240205
X+236458Y+242038
X+233786Y+244439
X+232032Y+243601
X+231385Y+241768
X+237927Y+230781
X+239744Y+231472
X+240540Y+233245
X+238076Y+235859
X+236259Y+235168
X+235463Y+233395
X+245439Y+230166
X+247289Y+230764
X+248175Y+232494
X+245848Y+235230
X+243998Y+234633
X+243112Y+232903
X+248280Y+221047
X+250173Y+221490
X+251199Y+223141
X+249105Y+226060
X+247212Y+225618
X+246186Y+223966
X+250126Y+211897
X+252049Y+212181
X+253208Y+213743
X+251362Y+216824
X+249439Y+216540
X+248281Y+214979
X+257354Y+209770
X+259289Y+209956
X+260526Y+211456
X+258840Y+214628
X+256905Y+214442
X+255668Y+212942
X+258092Y+200330
X+260036Y+200356
X+261393Y+201748
X+259975Y+205049
X+258031Y+205023
X+256674Y+203631
X+264918Y+197126
X+266861Y+197052
X+268287Y+198374
X+267039Y+201742
X+265097Y+201816
X+263671Y+200494
X+264499Y+187533
X+266429Y+187299
X+267959Y+188498
X+266994Y+191958
X+265064Y+192192
X+263534Y+190993
X+263133Y+178247
X+265037Y+177855
X+266660Y+178923
X+265984Y+182451
X+264080Y+182844
X+262456Y+181775
X+269161Y+173724
X+271042Y+173235
X+272718Y+174220
X+272223Y+177778
X+270342Y+178267
X+268665Y+177282
X+266645Y+164543
X+268480Y+163900
X+270232Y+164743
X+270032Y+168330
X+268197Y+168972
X+266445Y+168130
X+271923Y+159152
X+273723Y+158416
X+275515Y+159168
X+275499Y+162760
X+273699Y+163496
X+271907Y+162744
X+268258Y+150222
X+269990Y+149340
X+271839Y+149942
X+272119Y+153523
X+270386Y+154405
X+268538Y+153803
X+263805Y+141902
X+265458Y+140880
X+267351Y+141327
X+267925Y+144873
X+266272Y+145894
X+264379Y+145448
X+267871Y+135554
X+269471Y+134449
X+271383Y+134799
X+272138Y+138311
X+270539Y+139416
X+268627Y+139066
X+262365Y+127726
X+263868Y+126493
X+265803Y+126684
X+266845Y+130121
X+265342Y+131354
X+263408Y+131164
X+256227Y+120668
X+257623Y+119315
X+259567Y+119345
X+260890Y+122685
X+259494Y+124038
X+257550Y+124007
X+258918Y+113630
X+260243Y+112207
X+262185Y+112138
X+263677Y+115406
X+262352Y+116829
X+260409Y+116898
X+251873Y+107275
X+253076Y+105748
X+255006Y+105519
X+256763Y+108652
X+255559Y+110179
X+253629Y+110408
X+253464Y+099903
X+254587Y+098316
X+256504Y+097988
X+258418Y+101028
X+257294Y+102615
X+255378Y+102942
X+245589Y+094374
X+246578Y+092701
X+248460Y+092216
X+250619Y+095087
X+249630Y+096761
X+247748Y+097246
X+237380Y+089785
X+238227Y+088035
X+240063Y+087397
X+242452Y+090080
X+241605Y+091830
X+239768Y+092468
X+237438Y+082248
X+238195Y+080458
X+239996Y+079726
X+242518Y+082284
X+241762Y+084075
X+239960Y+084806
X+228610Y+078636
X+229216Y+076789
X+230951Y+075911
X+233676Y+078252
X+233069Y+080099
X+231335Y+080977
X+219665Y+076012
X+220117Y+074121
X+221773Y+073103
X+224682Y+075211
X+224230Y+077102
X+222574Y+078120
X+218192Y+068624
X+218546Y+066712
X+220148Y+065611
X+223161Y+067568
X+222806Y+069479
X+221204Y+070580
X+208863Y+067076
X+209059Y+065141
X+210564Y+063912
X+213728Y+065613
X+213533Y+067547
X+212027Y+068777
X+206281Y+059992
X+206377Y+058050
X+207818Y+056745
X+211065Y+058283
X+210969Y+060224
X+209527Y+061529
X+196700Y+059582
X+196636Y+057639
X+197964Y+056220
X+201327Y+057484
X+201391Y+059427
X+200063Y+060846
X+187344Y+060142
X+187120Y+058211
X+188326Y+056687
X+191781Y+057669
X+192006Y+059600
X+190799Y+061124
X+183378Y+053735
X+183055Y+051818
X+184182Y+050234
X+187683Y+051039
X+188006Y+052956
X+186878Y+054540
X+174026Y+055447
X+173546Y+053563
X+174539Y+051891
X+178094Y+052404
X+178574Y+054288
X+177581Y+055960
X+169127Y+049710
X+168552Y+047853
X+169458Y+046133
X+173035Y+046463
X+173610Y+048320
X+172704Y+050040
X+159926Y+052587
X+159199Y+050784
X+159960Y+048995
X+163552Y+049029
X+164279Y+050832
X+163518Y+052621
X+151265Y+056301
X+150392Y+054564
X+151002Y+052718
X+154585Y+052456
X+155458Y+054192
X+154848Y+056038
X+145306Y+051684
X+144345Y+049994
X+144861Y+048120
X+148425Y+047675
X+149386Y+049365
X+148870Y+051239
X+137043Y+056488
X+135946Y+054883
X+136305Y+052972
X+139821Y+052235
X+140918Y+053839
X+140559Y+055750
X+129492Y+061987
X+128266Y+060478
X+128467Y+058545
X+131909Y+057519
X+133135Y+059028
X+132935Y+060962
X+122723Y+058680
X+121422Y+057235
X+121523Y+055294
X+124909Y+054094
X+126210Y+055538
X+126109Y+057479
X+115793Y+065142
X+114377Y+063810
X+114318Y+061867
X+117593Y+060391
X+119009Y+061723
X+119068Y+063666
X+108593Y+062900
X+107111Y+061642
X+106952Y+059704
X+110148Y+058063
X+111630Y+059321
X+111788Y+061259
X+102414Y+070258
X+100833Y+069127
X+100515Y+067209
X+103564Y+065310
X+105145Y+066441
X+105463Y+068359
X+097141Y+078030
X+095472Y+077033
X+094997Y+075148
X+097878Y+073004
X+099547Y+074001
X+100023Y+075886
X+089640Y+077300
X+087922Y+076389
X+087351Y+074531
X+090120Y+072242
X+091838Y+073153
X+092409Y+075011
X+085285Y+085772
X+083498Y+085007
X+082776Y+083202
X+085346Y+080693
X+087133Y+081458
X+087856Y+083262
X+077752Y+086189
X+075928Y+085516
X+075114Y+083750
X+077553Y+081113
X+079377Y+081786
X+080190Y+083551
X+074415Y+095254
X+072542Y+094734
X+071585Y+093041
X+073798Y+090211
X+075671Y+090732
X+076627Y+092424
X+072071Y+104401
X+070162Y+104038
X+069069Y+102430
X+071040Y+099427
X+072950Y+099791
X+074043Y+101399
X+064786Y+106341
X+062860Y+106076
X+061687Y+104526
X+063502Y+101427
X+065428Y+101692
X+066602Y+103242
X+063553Y+115838
X+061612Y+115733
X+060314Y+114285
X+061867Y+111046
X+063808Y+111152
X+065106Y+112600
X+063305Y+125196
X+061361Y+125250
X+059949Y+123915
X+061229Y+120559
X+063172Y+120504
X+064585Y+121839
X+056570Y+128574
X+054632Y+128728
X+053153Y+127467
X+054260Y+124050
X+056198Y+123896
X+057677Y+125157
X+057467Y+138026
X+055548Y+138339
X+053970Y+137204
X+054792Y+133707
X+056710Y+133394
X+058288Y+134529
X+051317Y+142393
X+049417Y+142804
X+047783Y+141751
X+048425Y+138216
X+050325Y+137805
X+051959Y+138859
X+053386Y+151795
X+051526Y+152362
X+049811Y+151448
X+050159Y+147872
X+052018Y+147306
X+053734Y+148220
X+056335Y+160733
X+054529Y+161451
X+052744Y+160681
X+052795Y+157089
X+054602Y+156371
X+056387Y+157141
X+051206Y+166255
X+049439Y+167065
X+047616Y+166388
X+047485Y+162798
X+049252Y+161988
X+051074Y+162666
X+055273Y+174891
X+053579Y+175843
X+051707Y+175318
X+051279Y+171752
X+052974Y+170799
X+054846Y+171324
X+060095Y+182876
X+058485Y+183966
X+056576Y+183597
X+055855Y+180078
X+057465Y+178989
X+059374Y+179357
X+056196Y+189323
X+054644Y+190493
X+052719Y+190223
X+051819Y+186745
X+053372Y+185575
X+055297Y+185845
X+062029Y+196774
X+060578Y+198068
X+058637Y+197958
X+057454Y+194566
X+058904Y+193272
X+060845Y+193383
X+059154Y+203745
X+057771Y+205112
X+055827Y+205100
X+054472Y+201774
X+055855Y+200407
X+057799Y+200418
X+065942Y+210527
X+064677Y+212003
X+062739Y+212152
X+061114Y+208949
X+062379Y+207473
X+064317Y+207324
X+073221Y+216443
X+072082Y+218018
X+070163Y+218327
X+068279Y+215269
X+069418Y+213693
X+071337Y+213384
X+071825Y+223848
X+070768Y+225479
X+068867Y+225886
X+066829Y+222928
X+067886Y+221296
X+069787Y+220890
X+079879Y+228911
X+078960Y+230624
X+077099Y+231186
X+074824Y+228406
X+075743Y+226693
X+077604Y+226131
X+079622Y+236450
X+078792Y+238208
X+076963Y+238865
X+074548Y+236205
X+075378Y+234447
X+077208Y+233790
X+088354Y+240552
X+087672Y+242372
X+085902Y+243177
X+083277Y+240726
X+083959Y+238906
X+085728Y+238100
X+097253Y+243671
X+096724Y+245542
X+095027Y+246490
X+092208Y+244264
X+092737Y+242393
X+094434Y+241445
X+098535Y+251100
X+098102Y+252995
X+096456Y+254029
X+093527Y+251949
X+093960Y+250054
X+095606Y+249020
X+107878Y+253146
X+107603Y+255070
X+106048Y+256236
X+102957Y+254406
X+103232Y+252482
X+104787Y+251315
X+117166Y+254198
X+117051Y+256138
X+115597Y+257429
X+112366Y+255860
X+112481Y+253919
X+113935Y+252629
X+119930Y+261207
X+119914Y+263151
X+118528Y+264514
X+115221Y+263112
X+115237Y+261168
X+116623Y+259805
X+129411Y+261129
X+129556Y+263067
X+128287Y+264540
X+124875Y+263416
X+124731Y+261478
X+126000Y+260004
X+133212Y+267643
X+133455Y+269571
X+132263Y+271107
X+128799Y+270159
X+128556Y+268230
X+129747Y+266694
X+142746Y+266395
X+143147Y+268297
X+142086Y+269926
X+138555Y+269267
X+138154Y+267365
X+139215Y+265736
X+151892Y+264230
X+152449Y+266092
X+151526Y+267804
X+147952Y+267438
X+147395Y+265576
X+148318Y+263865
X+156934Y+269831
X+157586Y+271662
X+156752Y+273419
X+153164Y+273236
X+152513Y+271405
X+153347Y+269648
X+165876Y+266528
X+166677Y+268300
X+165991Y+270119
X+162400Y+270233
X+161599Y+268461
X+162286Y+266643
X+171717Y+271305
X+172607Y+273033
X+172015Y+274885
X+168435Y+275183
X+167545Y+273454
X+168138Y+271603
X+178028Y+275522
X+179006Y+277203
X+178508Y+279083
X+174949Y+279562
X+173971Y+277882
X+174469Y+276003
X+186817Y+270724
X+187929Y+272318
X+187589Y+274232
X+184081Y+275004
X+182968Y+273410
X+183308Y+271496
X+193708Y+273961
X+194900Y+275497
X+194658Y+277425
X+191194Y+278376
X+190001Y+276841
X+190244Y+274912
X+201939Y+268032
X+203254Y+269464
X+203172Y+271406
X+199798Y+272639
X+198483Y+271207
X+198565Y+269265
X+209390Y+261467
X+210820Y+262785
X+210898Y+264727
X+207637Y+266234
X+206208Y+264916
X+206130Y+262974
X+216785Y+263219
X+218279Y+264463
X+218457Y+266398
X+215277Y+268070
X+213783Y+266827
X+213605Y+264891
X+223453Y+255683
X+225046Y+256799
X+225382Y+258713
X+222352Y+260642
X+220760Y+259527
X+220423Y+257612
X+231051Y+256316
X+232698Y+257349
X+233132Y+259244
X+230204Y+261325
X+228557Y+260292
X+228123Y+258397
X+236806Y+247901
X+238532Y+248795
X+239121Y+250647
X+236375Y+252963
X+234649Y+252069
X+234059Y+250217
X+241610Y+239152
X+243404Y+239899
X+244144Y+241697
X+241598Y+244232
X+239804Y+243484
X+239064Y+241686
X+249160Y+238214
X+250990Y+238869
X+251821Y+240627
X+249408Y+243288
X+247578Y+242633
X+246747Y+240875
X+252891Y+228814
X+254769Y+229316
X+255742Y+230999
X+253557Y+233850
X+251679Y+233348
X+250706Y+231666
X+255622Y+219299
X+257535Y+219644
X+258644Y+221241
X+256702Y+224262
X+254789Y+223918
X+253680Y+222321
X+262806Y+216838
X+264735Y+217085
X+265923Y+218623
X+264138Y+221741
X+262210Y+221494
X+261021Y+219956
X+264361Y+206928
X+266303Y+207015
X+267615Y+208449
X+266093Y+211703
X+264151Y+211617
X+262839Y+210182
X+271119Y+203412
X+273063Y+203400
X+274446Y+204765
X+273093Y+208093
X+271149Y+208105
X+269766Y+206739
X+271435Y+193254
X+273372Y+193081
X+274863Y+194328
X+273789Y+197756
X+271853Y+197928
X+270361Y+196682
X+270771Y+183326
X+272687Y+182994
X+274276Y+184113
X+273489Y+187618
X+271573Y+187950
X+269984Y+186830
X+276653Y+178508
X+278549Y+178079
X+280193Y+179116
X+279585Y+182656
X+277690Y+183086
X+276045Y+182049
X+274739Y+168610
X+276593Y+168025
X+278318Y+168923
X+278005Y+172501
X+276151Y+173086
X+274426Y+172188
X+279854Y+162951
X+281676Y+162273
X+283444Y+163081
X+283314Y+166671
X+281492Y+167349
X+279724Y+166541
X+276684Y+153243
X+278443Y+152416
X+280272Y+153076
X+280439Y+156664
X+278680Y+157491
X+276851Y+156831
X+272668Y+144084
X+274354Y+143115
X+276231Y+143621
X+276693Y+147184
X+275008Y+148153
X+273131Y+147646
X+276505Y+137510
X+278138Y+136456
X+280039Y+136866
X+280683Y+140400
X+279049Y+141454
X+277149Y+141044
X+271317Y+128807
X+272858Y+127622
X+274786Y+127874
X+275719Y+131342
X+274178Y+132528
X+272250Y+132276
X+265428Y+120826
X+266866Y+119518
X+268807Y+119609
X+270024Y+122989
X+268586Y+124297
X+266644Y+124206
X+267831Y+113619
X+269200Y+112239
X+271144Y+112231
X+272531Y+115545
X+271162Y+116925
X+269218Y+116932
X+260908Y+106332
X+262159Y+104844
X+264096Y+104676
X+265752Y+107863
X+264502Y+109351
X+262565Y+109519
X+262214Y+098823
X+263387Y+097273
X+265312Y+097006
X+267130Y+100105
X+265957Y+101655
X+264031Y+101922
X+254339Y+092370
X+255379Y+090728
X+257277Y+090303
X+259343Y+093241
X+258302Y+094883
X+256405Y+095308
X+246048Y+086834
X+246949Y+085112
X+248805Y+084532
X+251107Y+087289
X+250206Y+089011
X+248350Y+089591
X+245785Y+079233
X+246598Y+077467
X+248422Y+076793
X+250862Y+079429
X+250049Y+081195
X+248226Y+081869
X+236755Y+074708
X+237419Y+072881
X+239181Y+072059
X+241830Y+074484
X+241166Y+076311
X+239404Y+077134
X+227523Y+071168
X+228034Y+069292
X+229722Y+068328
X+232562Y+070526
X+232051Y+072402
X+230364Y+073367
X+225712Y+063796
X+226127Y+061897
X+227763Y+060847
X+230712Y+062898
X+230297Y+064797
X+228661Y+065847
X+215986Y+061392
X+216242Y+059465
X+217786Y+058284
X+220894Y+060084
X+220638Y+062011
X+219094Y+063192
X+213085Y+054351
X+213243Y+052413
X+214725Y+051155
X+217921Y+052794
X+217763Y+054731
X+216282Y+055990
X+203005Y+053158
X+203002Y+051214
X+204375Y+049837
X+207696Y+051207
X+207699Y+053151
X+206326Y+054527
X+193069Y+052961
X+192906Y+051024
X+194160Y+049538
X+197583Y+050629
X+197746Y+052566
X+196492Y+054052
X+188796Y+046676
X+188534Y+044750
X+189710Y+043202
X+193184Y+044117
X+193446Y+046043
X+192269Y+047591
X+178781Y+047724
X+178361Y+045826
X+179406Y+044187
X+182943Y+044812
X+183363Y+046710
X+182318Y+048349
X+173601Y+042129
X+173085Y+040254
X+174045Y+038564
X+177609Y+039007
X+178126Y+040881
X+177166Y+042572
X+163667Y+044443
X+162997Y+042618
X+163815Y+040854
X+167404Y+041002
X+168073Y+042827
X+167256Y+044591
X+154207Y+047648
X+153389Y+045884
X+154058Y+044059
X+157647Y+043909
X+158465Y+045673
X+157796Y+047498
X+148002Y+043243
X+147095Y+041524
X+147670Y+039666
X+151246Y+039334
X+152153Y+041053
X+151579Y+042911
X+138894Y+047653
X+137848Y+046014
X+138267Y+044116
X+141805Y+043489
X+142850Y+045128
X+142431Y+047026
X+130445Y+052823
X+129267Y+051277
X+129528Y+049350
X+133001Y+048433
X+134179Y+049980
X+133918Y+051907
X+123482Y+049790
X+122227Y+048305
X+122389Y+046368
X+125811Y+045275
X+127066Y+046760
X+126904Y+048697
X+115633Y+056047
X+114260Y+054671
X+114262Y+052727
X+117582Y+051356
X+118955Y+052732
X+118953Y+054676
X+108273Y+054080
X+106831Y+052776
X+106733Y+050835
X+109979Y+049296
X+111421Y+050599
X+111518Y+052541
X+101170Y+061358
X+099625Y+060178
X+099368Y+058251
X+102476Y+056449
X+104020Y+057630
X+104277Y+059556
X+094946Y+069129
X+093309Y+068080
X+092893Y+066181
X+095841Y+064129
X+097478Y+065178
X+097894Y+067077
X+087354Y+068715
X+085665Y+067751
X+085153Y+065875
X+087993Y+063675
X+089681Y+064639
X+090193Y+066514
X+082071Y+077309
X+080309Y+076488
X+079644Y+074661
X+082292Y+072234
X+084054Y+073055
X+084719Y+074882
X+074476Y+078032
X+072674Y+077302
X+071917Y+075511
X+074438Y+072952
X+076239Y+073683
X+076997Y+075473
X+070250Y+087336
X+068394Y+086757
X+067491Y+085035
X+069792Y+082277
X+071647Y+082856
X+072550Y+084578
X+067017Y+096807
X+065120Y+096383
X+064078Y+094742
X+066143Y+091802
X+068041Y+092226
X+069083Y+093867
X+059748Y+099068
X+057832Y+098742
X+056708Y+097156
X+058620Y+094115
X+060536Y+094442
X+061661Y+096028
X+057690Y+108995
X+055753Y+108828
X+054501Y+107340
X+056156Y+104152
X+058093Y+104319
X+059344Y+105807
X+056635Y+118864
X+054692Y+118858
X+053321Y+117478
X+054707Y+114164
X+056651Y+114171
X+058021Y+115550
X+049998Y+122561
X+048056Y+122654
X+046617Y+121346
X+047832Y+117965
X+049774Y+117873
X+051212Y+119180
X+050175Y+132616
X+048247Y+132869
X+046706Y+131685
X+047637Y+128215
X+049565Y+127963
X+051107Y+129147
X+044143Y+137276
X+042231Y+137627
X+040631Y+136523
X+041384Y+133011
X+043296Y+132660
X+044896Y+133764
X+045587Y+147361
X+043710Y+147869
X+042025Y+146901
X+042485Y+143338
X+044362Y+142831
X+046048Y+143799
X+047958Y+157051
X+046130Y+157712
X+044370Y+156886
X+044535Y+153298
X+046363Y+152637
X+048123Y+153463
X+043020Y+162838
X+041228Y+163591
X+039428Y+162856
X+039410Y+159264
X+041202Y+158511
X+043002Y+159246
X+046621Y+172282
X+044897Y+173180
X+043043Y+172597
X+042728Y+169018
X+044452Y+168120
X+046306Y+168703
X+051036Y+181136
X+049392Y+182173
X+047496Y+181745
X+046886Y+178205
X+048530Y+177167
X+050426Y+177595
X+047396Y+187798
X+045807Y+188919
X+043891Y+188588
X+043102Y+185084
X+044691Y+183963
X+046606Y+184294
X+052944Y+196149
X+051453Y+197397
X+049517Y+197225
X+048441Y+193798
X+049932Y+192550
X+051868Y+192722
X+050331Y+203303
X+048906Y+204625
X+046963Y+204553
X+045714Y+201185
X+047139Y+199863
X+049081Y+199935
X+056958Y+211000
X+055648Y+212435
X+053706Y+212523
X+052182Y+209270
X+053493Y+207834
X+055435Y+207747
X+064153Y+217864
X+062965Y+219403
X+061037Y+219651
X+059250Y+216535
X+060438Y+214996
X+062366Y+214748
X+063065Y+225387
X+061957Y+226984
X+060044Y+227331
X+058100Y+224310
X+059208Y+222712
X+061121Y+222366
X+071160Y+231386
X+070188Y+233070
X+068310Y+233573
X+066123Y+230722
X+067096Y+229039
X+068973Y+228536
X+071205Y+239012
X+070320Y+240743
X+068470Y+241341
X+066141Y+238607
X+067026Y+236876
X+068876Y+236278
X+080097Y+244023
X+079358Y+245821
X+077564Y+246570
X+075017Y+244037
X+075756Y+242239
X+077550Y+241490
X+089241Y+248057
X+088653Y+249910
X+086927Y+250804
X+084180Y+248490
X+084768Y+246637
X+086494Y+245743
X+090847Y+255496
X+090354Y+257377
X+088676Y+258358
X+085814Y+256187
X+086307Y+254307
X+087985Y+253325
X+100546Y+258403
X+100211Y+260317
X+098619Y+261434
X+095588Y+259507
X+095924Y+257592
X+097515Y+256476
X+110275Y+260304
X+110098Y+262240
X+108605Y+263484
X+105424Y+261814
X+105601Y+259878
X+107095Y+258634
X+113365Y+267243
X+113288Y+269185
X+111860Y+270504
X+108598Y+268998
X+108676Y+267056
X+110104Y+265737
X+123386Y+267935
X+123469Y+269877
X+122154Y+271309
X+118780Y+270078
X+118697Y+268136
X+120011Y+266704
X+127490Y+274355
X+127672Y+276291
X+126433Y+277788
X+123000Y+276731
X+122817Y+274795
X+124057Y+273298
X+137650Y+273790
X+137991Y+275704
X+136880Y+277299
X+133371Y+276529
X+133029Y+274615
X+134141Y+273020
X+147496Y+272268
X+147994Y+274148
X+147017Y+275829
X+143457Y+275350
X+142959Y+273471
X+143935Y+271790
X+152819Y+277699
X+153412Y+279551
X+152523Y+281279
X+148943Y+280984
X+148349Y+279133
X+149239Y+277404
X+162527Y+274933
X+163271Y+276729
X+162528Y+278525
X+158935Y+278526
X+158191Y+276730
X+158935Y+274934
X+168619Y+279526
X+169455Y+281282
X+168804Y+283114
X+165217Y+283298
X+164381Y+281543
X+165032Y+279711
X+175167Y+283598
X+176090Y+285309
X+175534Y+287171
X+171961Y+287539
X+171037Y+285828
X+171593Y+283965
X+184760Y+279174
X+185822Y+280803
X+185421Y+282705
X+181891Y+283366
X+180829Y+281738
X+181230Y+279836
X+191866Y+282254
X+193010Y+283826
X+192707Y+285746
X+189215Y+286587
X+188071Y+285015
X+188374Y+283094
X+200935Y+276589
X+202204Y+278061
X+202061Y+280000
X+198650Y+281126
X+197380Y+279654
X+197523Y+277715
X+209261Y+270217
X+210647Y+271579
X+210665Y+273523
X+207358Y+274927
X+205971Y+273565
X+205954Y+271620
X+216828Y+271758
X+218283Y+273048
X+218399Y+274989
X+215168Y+276559
X+213714Y+275269
X+213598Y+273329
X+224378Y+264299
X+225934Y+265465
X+226210Y+267389
X+223121Y+269221
X+221565Y+268056
X+221289Y+266131
X+232125Y+264715
X+233739Y+265800
X+234113Y+267707
X+231121Y+269695
X+229507Y+268611
X+229133Y+266703
X+238753Y+256263
X+240450Y+257211
X+240981Y+259081
X+238163Y+261309
X+236465Y+260361
X+235935Y+258491
X+244441Y+247397
X+246211Y+248201
X+246894Y+250021
X+244269Y+252474
X+242499Y+251670
X+241816Y+249850
X+252085Y+246207
X+253893Y+246920
X+254668Y+248703
X+252173Y+251286
X+250364Y+250574
X+249589Y+248791
X+256666Y+236580
X+258527Y+237141
X+259447Y+238853
X+257173Y+241634
X+255312Y+241073
X+254392Y+239360
X+260242Y+226756
X+262143Y+227162
X+263201Y+228793
X+261165Y+231752
X+259263Y+231347
X+258205Y+229715
X+267456Y+224022
X+269375Y+224330
X+270515Y+225904
X+268632Y+228964
X+266713Y+228656
X+265573Y+227081
X+269798Y+213701
X+271736Y+213850
X+273002Y+215325
X+271378Y+218529
X+269440Y+218381
X+268174Y+216906
X+276562Y+209920
X+278505Y+209969
X+279845Y+211378
X+278387Y+214661
X+276444Y+214612
X+275104Y+213203
X+277597Y+199260
X+279537Y+199148
X+280989Y+200442
X+279807Y+203834
X+277866Y+203945
X+276415Y+202652
X+277617Y+188757
X+279543Y+188485
X+281095Y+189654
X+280198Y+193132
X+278273Y+193404
X+276720Y+192235
X+283439Y+183674
X+285347Y+183305
X+286958Y+184393
X+286239Y+187913
X+284331Y+188282
X+282720Y+187194
X+282122Y+173125
X+283994Y+172599
X+285689Y+173551
X+285263Y+177117
X+283391Y+177643
X+281696Y+176692
X+287158Y+167216
X+289000Y+166596
X+290742Y+167460
X+290499Y+171043
X+288657Y+171664
X+286915Y+170800
X+284489Y+156794
X+286274Y+156023
X+288081Y+156740
X+288134Y+160332
X+286349Y+161103
X+284542Y+160386
X+280918Y+146864
X+282633Y+145949
X+284493Y+146514
X+284843Y+150089
X+283128Y+151005
X+281268Y+150439
X+284614Y+140062
X+286280Y+139061
X+288166Y+139530
X+288698Y+143083
X+287032Y+144085
X+285146Y+143615
X+279762Y+130548
X+281340Y+129412
X+283259Y+129724
X+284082Y+133221
X+282505Y+134357
X+280586Y+134044
X+274142Y+121711
X+275621Y+120449
X+277559Y+120601
X+278668Y+124018
X+277190Y+125280
X+275252Y+125128
X+276348Y+114313
X+277760Y+112977
X+279704Y+113031
X+280986Y+116386
X+279574Y+117722
X+277631Y+117669
X+269580Y+106154
X+270877Y+104706
X+272818Y+104599
X+274373Y+107837
X+273076Y+109285
X+271135Y+109392
X+270681Y+098478
X+271902Y+096966
X+273836Y+096760
X+275554Y+099914
X+274333Y+101427
X+272400Y+101633
X+262845Y+091150
X+263937Y+089542
X+265847Y+089177
X+267819Y+092179
X+266727Y+093787
X+264818Y+094152
X+254515Y+084723
X+255470Y+083030
X+257343Y+082509
X+259557Y+085337
X+258601Y+087030
X+256729Y+087552
X+254008Y+077007
X+254876Y+075267
X+256720Y+074651
X+259075Y+077363
X+258207Y+079102
X+256363Y+079719
X+244824Y+071614
X+245546Y+069809
X+247333Y+069043
X+249904Y+071551
X+249182Y+073356
X+247396Y+074122
X+235359Y+067205
X+235929Y+065347
X+237646Y+064435
X+240416Y+066723
X+239846Y+068581
X+238129Y+069492
X+233276Y+059780
X+233751Y+057895
X+235419Y+056897
X+238302Y+059040
X+237828Y+060925
X+236160Y+061923
X+223210Y+056556
X+223527Y+054638
X+225107Y+053506
X+228157Y+055404
X+227840Y+057322
X+226260Y+058454
X+220045Y+049486
X+220263Y+047554
X+221784Y+046343
X+224927Y+048082
X+224708Y+050014
X+223188Y+051225
X+209526Y+047533
X+209585Y+045590
X+211000Y+044257
X+214276Y+045731
X+214218Y+047674
X+212802Y+049007
X+199077Y+046603
X+198974Y+044661
X+200275Y+043217
X+203661Y+044415
X+203763Y+046356
X+202463Y+047801
X+194533Y+040356
X+194332Y+038423
X+195557Y+036913
X+199000Y+037937
X+199201Y+039870
X+197976Y+041380
X+183921Y+040753
X+183561Y+038842
X+184657Y+037237
X+188173Y+037973
X+188533Y+039883
X+187437Y+041489
X+178485Y+035215
X+178028Y+033325
X+179041Y+031666
X+182589Y+032222
X+183047Y+034111
X+182034Y+035771
X+167882Y+036968
X+167270Y+035122
X+168143Y+033385
X+171725Y+033646
X+172337Y+035491
X+171465Y+037229
X+157692Y+039661
X+156930Y+037873
X+157656Y+036069
X+161248Y+036033
X+162010Y+037822
X+161284Y+039625
X+151248Y+035378
X+150395Y+033631
X+151028Y+031793
X+154614Y+031574
X+155466Y+033321
X+154833Y+035159
X+141359Y+039382
X+140366Y+037711
X+140845Y+035827
X+144400Y+035312
X+145393Y+036983
X+144914Y+038867
X+132080Y+044209
X+130951Y+042626
X+131273Y+040709
X+134774Y+039902
X+135902Y+041485
X+135580Y+043403
X+124910Y+041357
X+123702Y+039833
X+123926Y+037902
X+127381Y+036918
X+128588Y+038441
X+128364Y+040372
X+116205Y+047385
X+114875Y+045966
X+114939Y+044023
X+118300Y+042757
X+119629Y+044176
X+119566Y+046119
X+108660Y+045608
X+107260Y+044259
X+107224Y+042315
X+110516Y+040880
X+111916Y+042228
X+111952Y+044172
X+100689Y+052771
X+099182Y+051542
X+098986Y+049608
X+102149Y+047905
X+103655Y+049134
X+103852Y+051068
X+093572Y+060504
X+091969Y+059403
X+091613Y+057492
X+094625Y+055534
X+096228Y+056634
X+096583Y+058545
X+085844Y+060324
X+084188Y+059307
X+083735Y+057417
X+086642Y+055307
X+088299Y+056324
X+088752Y+058215
X+079683Y+068995
X+077948Y+068119
X+077340Y+066272
X+080064Y+063930
X+081799Y+064806
X+082406Y+066653
X+071977Y+069955
X+070200Y+069168
X+069499Y+067355
X+072099Y+064877
X+073877Y+065663
X+074577Y+067477
X+066899Y+079447
X+065062Y+078810
X+064214Y+077060
X+066601Y+074376
X+068438Y+075013
X+069286Y+076762
X+062819Y+089185
X+060936Y+088701
X+059946Y+087028
X+062103Y+084156
X+063986Y+084639
X+064976Y+086313
X+055499Y+091709
X+053594Y+091322
X+052520Y+089702
X+054527Y+086723
X+056433Y+087110
X+057506Y+088730
X+052644Y+102007
X+050713Y+101779
X+049510Y+100253
X+051264Y+097118
X+053195Y+097346
X+054399Y+098873
X+050814Y+112325
X+048871Y+112257
X+047545Y+110835
X+049035Y+107566
X+050978Y+107634
X+052304Y+109056
X+044191Y+116294
X+042248Y+116326
X+040851Y+114974
X+042172Y+111633
X+044116Y+111602
X+045512Y+112954
X+043667Y+126889
X+041732Y+127080
X+040229Y+125848
X+041269Y+122410
X+043204Y+122218
X+044707Y+123451
X+037672Y+131810
X+035749Y+132100
X+034185Y+130946
X+035048Y+127459
X+036971Y+127169
X+038535Y+128323
X+038497Y+142513
X+036605Y+142961
X+034951Y+141940
X+035524Y+138394
X+037415Y+137946
X+039070Y+138967
X+040295Y+152886
X+038446Y+153488
X+036713Y+152608
X+036992Y+149026
X+038840Y+148424
X+040573Y+149305
X+035459Y+158922
X+033644Y+159618
X+031868Y+158827
X+031963Y+155236
X+033778Y+154540
X+035554Y+155331
X+038586Y+169109
X+036835Y+169953
X+035000Y+169311
X+034798Y+165724
X+036549Y+164881
X+038384Y+165522
X+042586Y+178761
X+040911Y+179746
X+039029Y+179258
X+038532Y+175701
X+040207Y+174715
X+042089Y+175203
X+039110Y+185646
X+037487Y+186716
X+035583Y+186325
X+034904Y+182797
X+036528Y+181727
X+038432Y+182119
X+044355Y+194831
X+042826Y+196031
X+040896Y+195798
X+039928Y+192339
X+041458Y+191139
X+043388Y+191371
X+041917Y+202185
X+040451Y+203462
X+038512Y+203328
X+037369Y+199922
X+038835Y+198646
X+040775Y+198780
X+048354Y+210737
X+046999Y+212131
X+045055Y+212157
X+043635Y+208858
X+044991Y+207465
X+046935Y+207438
X+055433Y+218489
X+054197Y+219990
X+052262Y+220177
X+050574Y+217006
X+051810Y+215505
X+053745Y+215318
X+054569Y+226167
X+053411Y+227728
X+051488Y+228014
X+049640Y+224933
X+050798Y+223372
X+052721Y+223086
X+062663Y+233049
X+061638Y+234701
X+059746Y+235145
X+057650Y+232227
X+058675Y+230575
X+060568Y+230132
X+062936Y+240806
X+061997Y+242508
X+060129Y+243048
X+057888Y+240241
X+058827Y+238539
X+060695Y+238000
X+071941Y+246682
X+071146Y+248456
X+069329Y+249148
X+066863Y+246536
X+067659Y+244762
X+069476Y+244070
X+081278Y+251585
X+080632Y+253419
X+078878Y+254259
X+076206Y+251859
X+076852Y+250025
X+078605Y+249186
X+083142Y+259097
X+082591Y+260961
X+080882Y+261889
X+078090Y+259629
X+078642Y+257765
X+080350Y+256837
X+093142Y+262830
X+092746Y+264734
X+091120Y+265799
X+088151Y+263777
X+088547Y+261874
X+090173Y+260808
X+103251Y+265545
X+103013Y+267474
X+101481Y+268671
X+098355Y+266901
X+098592Y+264971
X+100125Y+263775
X+106616Y+272490
X+106477Y+274429
X+105008Y+275703
X+101796Y+274094
X+101935Y+272155
X+103404Y+270882
X+117112Y+273930
X+117134Y+275874
X+115775Y+277264
X+112441Y+275927
X+112419Y+273983
X+113779Y+272593
X+121481Y+280335
X+121602Y+282276
X+120315Y+283733
X+116917Y+282568
X+116796Y+280628
X+118083Y+279170
X+132203Y+280441
X+132484Y+282365
X+131322Y+283924
X+127839Y+283043
X+127559Y+281120
X+128720Y+279561
X+142680Y+279551
X+143119Y+281444
X+142090Y+283094
X+138547Y+282504
X+138108Y+280610
X+139137Y+278960
X+148262Y+284900
X+148796Y+286769
X+147853Y+288469
X+144284Y+288061
X+143749Y+286192
X+144693Y+284492
X+158669Y+282671
X+159356Y+284489
X+158557Y+286261
X+154966Y+286149
X+154279Y+284331
X+155079Y+282559
X+165003Y+287165
X+165783Y+288946
X+165075Y+290757
X+161483Y+290828
X+160704Y+289047
X+161412Y+287236
X+171780Y+291165
X+172650Y+292903
X+172035Y+294748
X+168452Y+295002
X+167583Y+293263
X+168198Y+291419
X+182124Y+287135
X+183133Y+288796
X+182673Y+290685
X+179123Y+291235
X+178113Y+289573
X+178574Y+287685
X+189447Y+290126
X+190541Y+291733
X+190177Y+293643
X+186660Y+294373
X+185567Y+292765
X+185930Y+290855
X+199302Y+284753
X+200524Y+286264
X+200319Y+288197
X+196874Y+289215
X+195652Y+287704
X+195857Y+285770
X+208450Y+278604
X+209793Y+280009
X+209749Y+281953
X+206400Y+283252
X+205057Y+281846
X+205101Y+279903
X+216210Y+280003
X+217623Y+281339
X+217678Y+283282
X+214399Y+284750
X+212986Y+283415
X+212931Y+281471
X+224595Y+272659
X+226114Y+273873
X+226329Y+275805
X+223183Y+277539
X+221665Y+276325
X+221449Y+274393
X+232518Y+272921
X+234096Y+274056
X+234410Y+275975
X+231357Y+277867
X+229778Y+276732
X+229465Y+274814
X+239981Y+264475
X+241647Y+265476
X+242119Y+267362
X+239232Y+269500
X+237565Y+268499
X+237094Y+266613
X+246515Y+255538
X+248258Y+256398
X+248883Y+258239
X+246183Y+260608
X+244439Y+259748
X+243814Y+257907
X+254293Y+254154
X+256078Y+254923
X+256797Y+256729
X+254220Y+259233
X+252435Y+258464
X+251717Y+256657
X+259695Y+244349
X+261538Y+244969
X+262403Y+246709
X+260043Y+249417
X+258200Y+248798
X+257335Y+247057
X+264087Y+234272
X+265975Y+234737
X+266981Y+236400
X+264852Y+239294
X+262964Y+238829
X+261959Y+237165
X+271385Y+231312
X+273294Y+231680
X+274383Y+233290
X+272405Y+236289
X+270496Y+235920
X+269407Y+234310
X+274495Y+220638
X+276427Y+220847
X+277646Y+222362
X+275922Y+225513
X+273990Y+225304
X+272771Y+223789
X+281322Y+216631
X+283263Y+216741
X+284558Y+218192
X+282997Y+221427
X+281056Y+221317
X+279762Y+219866
X+283066Y+205525
X+285009Y+205475
X+286419Y+206814
X+285131Y+210167
X+283187Y+210217
X+281778Y+208878
X+283764Y+194507
X+285696Y+194296
X+287212Y+195514
X+286205Y+198962
X+284272Y+199172
X+282757Y+197955
X+289591Y+189187
X+291510Y+188877
X+293086Y+190016
X+292256Y+193511
X+290337Y+193820
X+288762Y+192682
X+288873Y+178045
X+290761Y+177578
X+292425Y+178583
X+291887Y+182134
X+289999Y+182601
X+288335Y+181596
X+293896Y+171904
X+295757Y+171342
X+297470Y+172260
X+297114Y+175835
X+295253Y+176397
X+293540Y+175478
X+291739Y+160823
X+293548Y+160109
X+295331Y+160883
X+295271Y+164475
X+293463Y+165189
X+291680Y+164415
X+288627Y+150181
X+290370Y+149320
X+292211Y+149944
X+292448Y+153528
X+290705Y+154389
X+288864Y+153765
X+292252Y+143154
X+293949Y+142206
X+295819Y+142735
X+296239Y+146302
X+294542Y+147251
X+292672Y+146722
X+287760Y+132881
X+289373Y+131796
X+291281Y+132169
X+291993Y+135689
X+290380Y+136775
X+288473Y+136402
X+282435Y+123244
X+283952Y+122029
X+285884Y+122243
X+286885Y+125693
X+285368Y+126908
X+283436Y+126694
X+284515Y+115642
X+285968Y+114352
X+287909Y+114467
X+289085Y+117861
X+287631Y+119152
X+285690Y+119037
X+277933Y+106660
X+279275Y+105254
X+281219Y+105208
X+282671Y+108494
X+281329Y+109900
X+279385Y+109945
X+278895Y+098796
X+280164Y+097323
X+282102Y+097178
X+283720Y+100385
X+282452Y+101858
X+280513Y+102003
X+271137Y+090636
X+272280Y+089063
X+274200Y+088759
X+276077Y+091821
X+274935Y+093394
X+273014Y+093698
X+262811Y+083359
X+263819Y+081697
X+265708Y+081235
X+267832Y+084132
X+266823Y+085794
X+264934Y+086256
X+262120Y+075492
X+263043Y+073781
X+264905Y+073224
X+267174Y+076008
X+266252Y+077720
X+264389Y+078277
X+252832Y+069265
X+253610Y+067483
X+255420Y+066774
X+257911Y+069362
X+257133Y+071144
X+255323Y+071853
X+243184Y+064020
X+243813Y+062181
X+245558Y+061324
X+248254Y+063698
X+247626Y+065538
X+245880Y+066394
X+240884Y+056493
X+241417Y+054624
X+243116Y+053680
X+245930Y+055912
X+245397Y+057782
X+243698Y+058726
X+230531Y+052473
X+230909Y+050566
X+232524Y+049484
X+235513Y+051477
X+235135Y+053384
X+233520Y+054465
X+227146Y+045321
X+227426Y+043397
X+228984Y+042234
X+232070Y+044072
X+231791Y+045996
X+230232Y+047158
X+216245Y+042622
X+216365Y+040681
X+217822Y+039394
X+221049Y+040970
X+220929Y+042911
X+219473Y+044198
X+205340Y+040971
X+205300Y+039028
X+206645Y+037625
X+209992Y+038929
X+210033Y+040873
X+208687Y+042276
X+200560Y+034699
X+200419Y+032760
X+201692Y+031290
X+205101Y+032422
X+205241Y+034361
X+203969Y+035831
X+189409Y+034447
X+189110Y+032526
X+190256Y+030956
X+193747Y+031803
X+194046Y+033724
X+192900Y+035294
X+183740Y+028903
X+183343Y+027000
X+184408Y+025374
X+187937Y+026041
X+188334Y+027944
X+187270Y+029571
X+172526Y+030088
X+171973Y+028224
X+172899Y+026515
X+176472Y+026889
X+177025Y+028753
X+176098Y+030461
X+161665Y+032262
X+160960Y+030450
X+161742Y+028671
X+165333Y+028748
X+166039Y+030560
X+165256Y+032339
X+154990Y+028031
X+154194Y+026258
X+154884Y+024441
X+158474Y+024335
X+159271Y+026108
X+158581Y+027925
X+144377Y+031611
X+143436Y+029909
X+143975Y+028041
X+147544Y+027639
X+148485Y+029340
X+147946Y+031208
X+134324Y+036074
X+133247Y+034456
X+133629Y+032550
X+137153Y+031854
X+138230Y+033472
X+137848Y+035379
X+126941Y+033330
X+125782Y+031770
X+126066Y+029847
X+129550Y+028972
X+130709Y+030533
X+130425Y+032456
X+117431Y+039101
X+116147Y+037641
X+116272Y+035701
X+119671Y+034542
X+120955Y+036001
X+120831Y+037942
X+109687Y+037447
X+108330Y+036055
X+108355Y+034111
X+111691Y+032780
X+113048Y+034172
X+113023Y+036116
X+100893Y+044460
X+099426Y+043184
X+099290Y+041245
X+102505Y+039642
X+103972Y+040918
X+104107Y+042857
X+092928Y+052115
X+091361Y+050965
X+091066Y+049043
X+094138Y+047181
X+095705Y+048331
X+096000Y+050252
X+085036Y+052106
X+083412Y+051037
X+083019Y+049133
X+085992Y+047117
X+087616Y+048185
X+088008Y+050089
X+078033Y+060809
X+076326Y+059878
X+075778Y+058013
X+078573Y+055758
X+080280Y+056689
X+080829Y+058554
X+070180Y+061949
X+068428Y+061106
X+067785Y+059271
X+070462Y+056876
X+072214Y+057719
X+072857Y+059554
X+064280Y+071579
X+062464Y+070884
X+061672Y+069109
X+064142Y+066501
X+065957Y+067196
X+066750Y+068971
X+059380Y+081533
X+057513Y+080990
X+056577Y+079286
X+058824Y+076483
X+060691Y+077026
X+061627Y+078730
X+051961Y+084270
X+050068Y+083824
X+049046Y+082170
X+051147Y+079256
X+053039Y+079703
X+054061Y+081356
X+048329Y+094884
X+046406Y+094595
X+045251Y+093032
X+047104Y+089954
X+049026Y+090243
X+050181Y+091807
X+045741Y+105593
X+043801Y+105464
X+042521Y+104001
X+044113Y+100781
X+046053Y+100910
X+047333Y+102373
X+039073Y+109798
X+037129Y+109768
X+035776Y+108372
X+037202Y+105075
X+039145Y+105105
X+040499Y+106500
X+037854Y+120872
X+035915Y+121003
X+034451Y+119724
X+035600Y+116320
X+037539Y+116190
X+039003Y+117469
X+031834Y+126026
X+029904Y+126255
X+028376Y+125052
X+029350Y+121595
X+031280Y+121365
X+032807Y+122568
X+032040Y+137289
X+030135Y+137677
X+028513Y+136604
X+029198Y+133078
X+031103Y+132690
X+032724Y+133763
X+033261Y+148286
X+031395Y+148830
X+029690Y+147895
X+030081Y+144324
X+031948Y+143780
X+033652Y+144715
X+028459Y+154556
X+026623Y+155195
X+024873Y+154348
X+025081Y+150762
X+026917Y+150124
X+028667Y+150970
X+031100Y+165429
X+029322Y+166217
X+027508Y+165518
X+027420Y+161927
X+029197Y+161139
X+031011Y+161838
X+034670Y+175820
X+032964Y+176752
X+031098Y+176205
X+030713Y+172633
X+032420Y+171701
X+034285Y+172249
X+031285Y+182928
X+029628Y+183946
X+027738Y+183495
X+027171Y+179948
X+028827Y+178930
X+030718Y+179381
X+036202Y+192893
X+034635Y+194044
X+032714Y+193750
X+031856Y+190262
X+033423Y+189111
X+035344Y+189405
X+033871Y+200456
X+032365Y+201686
X+030431Y+201491
X+029396Y+198051
X+030902Y+196821
X+032836Y+197016
X+040086Y+209816
X+038687Y+211166
X+036743Y+211131
X+035428Y+207789
X+036827Y+206439
X+038771Y+206474
X+047013Y+218406
X+045730Y+219866
X+043791Y+219992
X+042204Y+216769
X+043487Y+215309
X+045427Y+215183
X+046306Y+226262
X+045099Y+227787
X+043168Y+228011
X+041419Y+224874
X+042626Y+223350
X+044557Y+223125
X+054360Y+233987
X+053283Y+235606
X+051377Y+235989
X+049375Y+233007
X+050452Y+231388
X+052357Y+231005
X+054799Y+241906
X+053807Y+243577
X+051923Y+244057
X+049771Y+241181
X+050764Y+239510
X+052648Y+239030
X+063872Y+248614
X+063020Y+250361
X+061183Y+250995
X+058801Y+248307
X+059652Y+246559
X+061490Y+245925
X+073352Y+254353
X+072648Y+256165
X+070869Y+256948
X+068273Y+254466
X+068977Y+252654
X+070756Y+251870
X+075421Y+261982
X+074810Y+263828
X+073074Y+264701
X+070354Y+262354
X+070965Y+260508
X+072702Y+259634
X+085668Y+266517
X+085212Y+268407
X+083554Y+269421
X+080650Y+267306
X+081106Y+265416
X+082765Y+264403
X+096101Y+270021
X+095802Y+271942
X+094233Y+273090
X+091165Y+271222
X+091463Y+269301
X+093032Y+268154
X+099697Y+277031
X+099497Y+278965
X+097988Y+280191
X+094828Y+278483
X+095028Y+276549
X+096537Y+275323
X+110612Y+279205
X+110573Y+281149
X+109170Y+282495
X+105880Y+281053
X+105920Y+279109
X+107322Y+277763
X+115210Y+285655
X+115270Y+287598
X+113938Y+289014
X+110579Y+287742
X+110519Y+285799
X+111851Y+284382
X+126437Y+286427
X+126657Y+288359
X+125447Y+289880
X+121994Y+288890
X+121774Y+286959
X+122984Y+285437
X+137486Y+286166
X+137865Y+288073
X+136785Y+289689
X+133262Y+288987
X+132883Y+287080
X+133963Y+285464
X+143304Y+291502
X+143780Y+293387
X+142784Y+295056
X+139229Y+294535
X+138754Y+292650
X+139750Y+290981
X+154354Y+289817
X+154983Y+291656
X+154128Y+293402
X+150543Y+293176
X+149913Y+291337
X+150769Y+289592
X+160918Y+294279
X+161641Y+296083
X+160875Y+297871
X+157284Y+297828
X+156561Y+296024
X+157326Y+294236
X+167916Y+298264
X+168730Y+300029
X+168057Y+301853
X+164468Y+301994
X+163654Y+300229
X+164327Y+298405
X+175311Y+301752
X+176214Y+303474
X+175635Y+305330
X+172057Y+305654
X+171154Y+303932
X+171733Y+302076
X+178959Y+294651
X+179916Y+296343
X+179396Y+298217
X+175831Y+298654
X+174874Y+296961
X+175394Y+295088
X+186500Y+297609
X+187542Y+299250
X+187118Y+301147
X+183580Y+301766
X+182537Y+300124
X+182961Y+298227
X+194362Y+300022
X+195486Y+301607
X+195160Y+303524
X+191658Y+304322
X+190533Y+302736
X+190859Y+300820
X+197096Y+292556
X+198270Y+294106
X+198004Y+296031
X+194529Y+296940
X+193355Y+295390
X+193620Y+293464
X+205027Y+294415
X+206279Y+295903
X+206112Y+297840
X+202687Y+298924
X+201436Y+297437
X+201603Y+295500
X+207022Y+286663
X+208320Y+288110
X+208214Y+290051
X+204826Y+291244
X+203528Y+289796
X+203634Y+287855
X+214985Y+287977
X+216355Y+289356
X+216349Y+291300
X+213026Y+292664
X+211656Y+291285
X+211662Y+289341
X+223148Y+288690
X+224587Y+289997
X+224680Y+291939
X+221431Y+293471
X+219992Y+292163
X+219899Y+290221
X+224169Y+280785
X+225648Y+282046
X+225802Y+283984
X+222603Y+285617
X+221124Y+284356
X+220970Y+282418
X+232285Y+280946
X+233826Y+282130
X+234079Y+284058
X+230968Y+285852
X+229426Y+284668
X+229173Y+282741
X+240514Y+280486
X+242115Y+281590
X+242466Y+283502
X+239450Y+285453
X+237849Y+284349
X+237498Y+282438
X+240552Y+272548
X+242186Y+273601
X+242597Y+275501
X+239645Y+277546
X+238010Y+276493
X+237599Y+274594
X+248654Y+271542
X+250340Y+272510
X+250848Y+274386
X+248003Y+276580
X+246318Y+275612
X+245810Y+273736
X+247901Y+263586
X+249617Y+264500
X+250184Y+266360
X+247410Y+268642
X+245694Y+267728
X+245128Y+265868
X+255844Y+262055
X+257604Y+262880
X+258265Y+264709
X+255611Y+267130
X+253851Y+266304
X+253190Y+264476
X+263766Y+259891
X+265566Y+260626
X+266319Y+262418
X+263793Y+264971
X+261993Y+264237
X+261239Y+262445
X+262045Y+252122
X+263868Y+252799
X+264677Y+254566
X+262233Y+257198
X+260410Y+256521
X+259601Y+254753
X+269731Y+249455
X+271586Y+250038
X+272484Y+251762
X+270177Y+254515
X+268323Y+253932
X+267424Y+252208
X+267232Y+241840
X+269104Y+242365
X+270057Y+244059
X+267838Y+246884
X+265966Y+246360
X+265013Y+244665
X+274654Y+238698
X+276550Y+239126
X+277588Y+240770
X+275517Y+243704
X+273620Y+243276
X+272582Y+241632
X+281922Y+234939
X+283838Y+235270
X+284959Y+236858
X+283040Y+239895
X+281124Y+239564
X+280003Y+237975
X+278520Y+227722
X+280445Y+227993
X+281615Y+229545
X+279793Y+232640
X+277867Y+232370
X+276697Y+230818
X+285454Y+223525
X+287391Y+223696
X+288639Y+225187
X+286977Y+228371
X+285040Y+228200
X+283792Y+226709
X+292152Y+218741
X+294095Y+218813
X+295418Y+220238
X+293920Y+223503
X+291977Y+223431
X+290655Y+222006
X+287903Y+212027
X+289847Y+212037
X+291214Y+213420
X+289821Y+216731
X+287876Y+216720
X+286510Y+215337
X+294203Y+206850
X+296145Y+206762
X+297580Y+208073
X+296358Y+211450
X+294416Y+211539
X+292980Y+210228
X+289277Y+200547
X+291215Y+200397
X+292691Y+201662
X+291576Y+205077
X+289637Y+205226
X+288161Y+203961
X+295162Y+195014
X+297090Y+194766
X+298629Y+195954
X+297689Y+199420
X+295761Y+199669
X+294222Y+198481
X+300691Y+188957
X+302603Y+188611
X+304201Y+189718
X+303440Y+193229
X+301527Y+193575
X+299929Y+192467
X+295049Y+183332
X+296950Y+182926
X+298582Y+183983
X+297932Y+187516
X+296031Y+187922
X+294399Y+186865
X+300111Y+176978
X+301988Y+176474
X+303672Y+177446
X+303203Y+181008
X+301325Y+181511
X+299642Y+180539
X+304748Y+170155
X+306598Y+169557
X+308329Y+170441
X+308042Y+174022
X+306193Y+174620
X+304462Y+173736
X+298482Y+165289
X+300312Y+164633
X+302070Y+165462
X+301896Y+169050
X+300066Y+169707
X+298309Y+168877
X+302607Y+158235
X+304401Y+157486
X+306199Y+158225
X+306209Y+161817
X+304415Y+162566
X+302617Y+161827
X+295845Y+153985
X+297615Y+153180
X+299435Y+153861
X+299559Y+157451
X+297789Y+158256
X+295969Y+157575
X+299456Y+146739
X+301182Y+145845
X+303034Y+146433
X+303341Y+150012
X+301615Y+150906
X+299762Y+150318
X+302551Y+139125
X+304229Y+138144
X+306110Y+138636
X+306599Y+142195
X+304921Y+143177
X+303041Y+142684
X+295348Y+135755
X+296994Y+134721
X+298889Y+135154
X+299490Y+138695
X+297844Y+139729
X+295949Y+139296
X+297899Y+128023
X+299490Y+126906
X+301405Y+127242
X+302186Y+130748
X+300595Y+131864
X+298680Y+131529
X+290344Y+125364
X+291900Y+124197
X+293824Y+124472
X+294716Y+127952
X+293160Y+129118
X+291236Y+128844
X+292357Y+117552
X+293850Y+116308
X+295786Y+116484
X+296854Y+119914
X+295361Y+121158
X+293425Y+120982
X+293786Y+109488
X+295215Y+108169
X+297157Y+108247
X+298399Y+111617
X+296971Y+112936
X+295028Y+112859
X+285996Y+107788
X+287382Y+106424
X+289326Y+106440
X+290674Y+109770
X+289288Y+111133
X+287344Y+111117
X+286873Y+099722
X+288188Y+098290
X+290130Y+098207
X+291646Y+101463
X+290331Y+102895
X+288389Y+102979
X+287142Y+091489
X+288381Y+089991
X+290316Y+089809
X+291997Y+092984
X+290757Y+094481
X+288822Y+094664
X+279233Y+090765
X+280425Y+089229
X+282354Y+088985
X+284133Y+092105
X+282942Y+093642
X+281013Y+093885
X+278947Y+082610
X+280059Y+081015
X+281973Y+080673
X+283909Y+083699
X+282798Y+085293
X+280884Y+085635
X+270952Y+082672
X+272013Y+081043
X+273915Y+080641
X+275946Y+083604
X+274885Y+085233
X+272983Y+085635
X+270130Y+074630
X+271106Y+072949
X+272985Y+072450
X+275165Y+075305
X+274189Y+076986
X+272310Y+077485
X+268675Y+066552
X+269564Y+064823
X+271415Y+064229
X+273738Y+066969
X+272849Y+068698
X+270998Y+069292
X+260783Y+067594
X+261617Y+065839
X+263448Y+065187
X+265856Y+067852
X+265022Y+069608
X+263191Y+070260
X+258806Y+059708
X+259549Y+057911
X+261345Y+057167
X+263886Y+059706
X+263143Y+061502
X+261347Y+062247
X+251001Y+061540
X+251687Y+059721
X+253458Y+058920
X+256078Y+061378
X+255392Y+063196
X+253621Y+063998
X+248528Y+053873
X+249120Y+052022
X+250849Y+051131
X+253591Y+053452
X+252998Y+055303
X+251270Y+056194
X+245428Y+046306
X+245925Y+044426
X+247605Y+043449
X+250462Y+045626
X+249965Y+047506
X+248285Y+048483
X+237941Y+049073
X+238378Y+047179
X+240027Y+046149
X+242951Y+048235
X+242514Y+050129
X+240865Y+051159
X+234374Y+041799
X+234715Y+039884
X+236308Y+038772
X+239335Y+040706
X+238995Y+042620
X+237401Y+043732
X+230202Y+034708
X+230445Y+032779
X+231980Y+031586
X+235101Y+033364
X+234859Y+035293
X+233324Y+036485
X+223143Y+038362
X+223324Y+036427
X+224821Y+035186
X+227997Y+036864
X+227816Y+038799
X+226320Y+040040
X+218547Y+031634
X+218628Y+029692
X+220060Y+028376
X+223318Y+029889
X+223236Y+031832
X+221804Y+033147
X+211838Y+035998
X+211858Y+034055
X+213247Y+032695
X+216552Y+034104
X+216531Y+036048
X+215142Y+037408
X+206850Y+029651
X+206771Y+027708
X+208089Y+026279
X+211460Y+027518
X+211539Y+029461
X+210221Y+030890
X+201307Y+023612
X+201130Y+021676
X+202373Y+020182
X+205803Y+021247
X+205981Y+023183
X+204738Y+024677
X+195214Y+028748
X+194975Y+026818
X+196171Y+025285
X+199633Y+026242
X+199872Y+028171
X+198677Y+029704
X+189334Y+023148
X+188997Y+021233
X+190113Y+019641
X+193620Y+020420
X+193957Y+022334
X+192841Y+023926
X+182952Y+017929
X+182517Y+016035
X+183550Y+014387
X+187092Y+014986
X+187526Y+016881
X+186493Y+018528
X+177560Y+023754
X+177066Y+021873
X+178046Y+020195
X+181605Y+020681
X+182099Y+022561
X+181119Y+024240
X+170902Y+019024
X+170313Y+017171
X+171206Y+015445
X+174785Y+015749
X+175374Y+017601
X+174481Y+019328
X+166081Y+025396
X+165433Y+023563
X+166271Y+021809
X+169858Y+021999
X+170506Y+023832
X+169668Y+025586
X+159186Y+021162
X+158446Y+019364
X+159194Y+017569
X+162786Y+017577
X+163526Y+019374
X+162778Y+021169
X+151879Y+017408
X+151048Y+015650
X+151703Y+013820
X+155291Y+013644
X+156122Y+015401
X+155467Y+017231
X+147897Y+024296
X+147011Y+022565
X+147608Y+020715
X+151188Y+020426
X+152074Y+022156
X+151477Y+024006
X+140425Y+021073
X+139451Y+019390
X+139953Y+017512
X+143514Y+017040
X+144487Y+018723
X+143986Y+020601
X+137121Y+028373
X+136095Y+026721
X+136537Y+024828
X+140082Y+024244
X+141108Y+025896
X+140666Y+027789
X+129522Y+025679
X+128413Y+024083
X+128758Y+022169
X+132268Y+021405
X+133377Y+023002
X+133032Y+024915
X+121621Y+023544
X+120432Y+022006
X+120678Y+020078
X+124145Y+019135
X+125334Y+020673
X+125087Y+022602
X+119252Y+031161
X+118015Y+029661
X+118200Y+027726
X+121635Y+026675
X+122872Y+028175
X+122687Y+030110
X+111300Y+029576
X+109988Y+028141
X+110075Y+026199
X+113451Y+024974
X+114763Y+026408
X+114677Y+028350
X+103127Y+028582
X+101743Y+027216
X+101731Y+025272
X+105040Y+023876
X+106424Y+025242
X+106437Y+027186
X+101721Y+036401
X+100295Y+035080
X+100221Y+033137
X+103485Y+031637
X+104911Y+032958
X+104985Y+034901
X+093577Y+035966
X+092086Y+034719
X+091912Y+032783
X+095096Y+031118
X+096587Y+032365
X+096760Y+034301
X+092948Y+043939
X+091418Y+042741
X+091183Y+040811
X+094312Y+039046
X+095843Y+040245
X+096077Y+042175
X+084869Y+044048
X+083279Y+042929
X+082947Y+041013
X+085982Y+039091
X+087571Y+040210
X+087904Y+042126
X+076699Y+044783
X+075054Y+043747
X+074624Y+041851
X+077557Y+039776
X+079202Y+040813
X+079631Y+042709
X+077055Y+052740
X+075379Y+051755
X+074889Y+049874
X+077755Y+047708
X+079431Y+048692
X+079921Y+050574
X+069029Y+054011
X+067304Y+053113
X+066719Y+051259
X+069471Y+048950
X+071195Y+049847
X+071780Y+051701
X+060999Y+055913
X+059231Y+055105
X+058552Y+053283
X+061182Y+050836
X+062950Y+051644
X+063629Y+053466
X+062329Y+063733
X+060536Y+062981
X+059800Y+061182
X+062352Y+058653
X+064144Y+059405
X+064880Y+061204
X+054521Y+066152
X+052693Y+065492
X+051866Y+063733
X+054285Y+061077
X+056113Y+061737
X+056940Y+063496
X+056632Y+073853
X+054783Y+073252
X+053901Y+071519
X+056235Y+068788
X+058084Y+069390
X+058966Y+071122
X+049075Y+076761
X+047198Y+076255
X+046229Y+074570
X+048420Y+071724
X+050297Y+072230
X+051266Y+073915
X+041648Y+080289
X+039748Y+079879
X+038694Y+078245
X+040737Y+075291
X+042637Y+075701
X+043691Y+077334
X+044679Y+087640
X+042767Y+087290
X+041662Y+085691
X+043611Y+082674
X+045523Y+083023
X+046628Y+084623
X+037575Y+091622
X+035647Y+091371
X+034462Y+089830
X+036254Y+086717
X+038182Y+086968
X+039367Y+088509
X+041345Y+098686
X+039410Y+098496
X+038177Y+096993
X+039870Y+093825
X+041805Y+094016
X+043038Y+095518
X+034585Y+103091
X+032643Y+103000
X+031335Y+101562
X+032864Y+098312
X+034806Y+098403
X+036114Y+099841
X+028084Y+108076
X+026140Y+108084
X+024760Y+106715
X+026121Y+103391
X+028065Y+103383
X+029445Y+104752
X+032676Y+114593
X+030733Y+114662
X+029310Y+113338
X+030565Y+109972
X+032508Y+109903
X+033931Y+111228
X+026581Y+119952
X+024645Y+120120
X+023156Y+118870
X+024238Y+115445
X+026175Y+115276
X+027663Y+116527
X+020823Y+125846
X+018897Y+126113
X+017347Y+124940
X+018252Y+121464
X+020178Y+121197
X+021728Y+122370
X+026161Y+131723
X+024245Y+132051
X+022658Y+130928
X+023454Y+127425
X+025370Y+127097
X+026957Y+128220
X+020865Y+137934
X+018968Y+138359
X+017326Y+137319
X+017942Y+133780
X+019838Y+133354
X+021481Y+134395
X+026798Y+143291
X+024916Y+143775
X+023242Y+142787
X+023745Y+139230
X+025628Y+138745
X+027302Y+139734
X+021974Y+149780
X+020119Y+150360
X+018396Y+149459
X+018718Y+145881
X+020573Y+145301
X+022295Y+146202
X+017592Y+156723
X+015769Y+157397
X+014003Y+156585
X+014141Y+152995
X+015964Y+152321
X+017730Y+153134
X+024112Y+161288
X+022311Y+162019
X+020520Y+161263
X+020545Y+157671
X+022346Y+156939
X+024137Y+157696
X+020245Y+168442
X+018483Y+169265
X+016656Y+168601
X+016497Y+165012
X+018259Y+164190
X+020086Y+164854
X+027234Y+172366
X+025500Y+173244
X+023652Y+172638
X+023380Y+169056
X+025115Y+168178
X+026962Y+168784
X+023882Y+179693
X+022194Y+180658
X+020318Y+180147
X+019864Y+176584
X+021551Y+175619
X+023427Y+176130
X+021058Y+187371
X+019422Y+188421
X+017523Y+188007
X+016887Y+184472
X+018523Y+183421
X+020423Y+183836
X+028445Y+190391
X+026843Y+191492
X+024932Y+191138
X+024185Y+187624
X+025787Y+186523
X+027698Y+186877
X+026164Y+198167
X+024621Y+199349
X+022694Y+199093
X+021768Y+195622
X+023312Y+194440
X+025239Y+194696
X+024454Y+206216
X+022973Y+207475
X+021035Y+207318
X+019934Y+203899
X+021415Y+202640
X+023353Y+202797
X+032125Y+208294
X+030684Y+209599
X+028742Y+209503
X+027534Y+206120
X+028975Y+204815
X+030916Y+204911
X+030973Y+216363
X+029601Y+217740
X+027657Y+217743
X+026277Y+214427
X+027649Y+213050
X+029593Y+213046
X+038866Y+217680
X+037538Y+219099
X+035595Y+219164
X+034110Y+215893
X+035439Y+214473
X+037382Y+214409
X+038260Y+225732
X+037006Y+227218
X+035069Y+227381
X+033420Y+224190
X+034674Y+222705
X+036611Y+222541
X+038271Y+233931
X+037094Y+235479
X+035168Y+235741
X+033358Y+232638
X+034535Y+231090
X+036461Y+230828
X+046232Y+234264
X+045104Y+235848
X+043187Y+236171
X+041280Y+233127
X+042408Y+231543
X+044325Y+231220
X+046788Y+242367
X+045743Y+244006
X+043845Y+244426
X+041786Y+241484
X+042830Y+239844
X+044728Y+239424
X+047973Y+250528
X+047014Y+252219
X+045140Y+252736
X+042932Y+249902
X+043892Y+248211
X+045766Y+247694
X+055882Y+249879
X+054977Y+251599
X+053120Y+252175
X+050824Y+249413
X+051730Y+247692
X+053586Y+247117
X+057601Y+257866
X+056784Y+259630
X+054959Y+260300
X+052525Y+257658
X+053342Y+255894
X+055167Y+255224
X+065459Y+256428
X+064698Y+258217
X+062895Y+258944
X+060379Y+256381
X+061140Y+254592
X+062943Y+253865
X+067687Y+264209
X+067018Y+266034
X+065255Y+266852
X+062611Y+264421
X+063280Y+262595
X+065043Y+261777
X+070543Y+271913
X+069969Y+273771
X+068250Y+274678
X+065485Y+272384
X+066059Y+270527
X+067779Y+269619
X+078132Y+269528
X+077617Y+271403
X+075927Y+272364
X+073091Y+270159
X+073607Y+268284
X+075297Y+267323
X+081469Y+276952
X+081050Y+278851
X+079412Y+279897
X+076467Y+277839
X+076886Y+275941
X+078525Y+274895
X+088836Y+273806
X+088477Y+275717
X+086872Y+276814
X+083864Y+274850
X+084223Y+272940
X+085828Y+271842
X+092624Y+280925
X+092364Y+282851
X+090817Y+284029
X+087713Y+282222
X+087973Y+280295
X+089520Y+279118
X+097013Y+287837
X+096851Y+289774
X+095366Y+291029
X+092174Y+289383
X+092336Y+287445
X+093820Y+286190
X+103905Y+283824
X+103804Y+285766
X+102360Y+287068
X+099117Y+285522
X+099218Y+283581
X+100662Y+282280
X+108702Y+290365
X+108701Y+292309
X+107325Y+293682
X+104007Y+292305
X+104009Y+290361
X+105385Y+288987
X+114062Y+296617
X+114160Y+298559
X+112856Y+300001
X+109472Y+298795
X+109374Y+296853
X+110678Y+295411
X+120381Y+291806
X+120540Y+293743
X+119282Y+295225
X+115862Y+294127
X+115703Y+292189
X+116961Y+290707
X+126097Y+297627
X+126354Y+299553
X+125174Y+301098
X+121702Y+300175
X+121445Y+298249
X+122625Y+296704
X+131948Y+292176
X+132266Y+294094
X+131136Y+295675
X+127637Y+294863
X+127318Y+292945
X+128449Y+291364
X+137983Y+297552
X+138399Y+299451
X+137350Y+301088
X+133814Y+300455
X+133398Y+298556
X+134447Y+296919
X+144508Y+302527
X+145020Y+304402
X+144057Y+306091
X+140493Y+305639
X+139981Y+303764
X+140944Y+302076
X+149622Y+296424
X+150193Y+298282
X+149283Y+300000
X+145707Y+299661
X+145135Y+297803
X+146045Y+296085
X+156403Y+300906
X+157068Y+302733
X+156247Y+304495
X+152658Y+304339
X+151993Y+302512
X+152814Y+300750
X+163612Y+304925
X+164370Y+306716
X+163640Y+308517
X+160048Y+308545
X+159290Y+306755
X+160020Y+304953
M30
